<svg width="723" height="209" viewBox="0 0 723 209" fill="none" xmlns="http://www.w3.org/2000/svg">
<g filter="url(#filter0_d)">
<circle cx="618.977" cy="100.976" r="100" fill="#4CD964"/>
<path d="M562.424 105.269H557.784L556.377 112.476H553.864L555.27 105.269H551.069V102.86H555.727L556.94 96.6377H552.405V94.1943H557.415L558.856 86.8818H561.37L559.928 94.1943H564.569L566.01 86.8818H568.542L567.1 94.1943H570.686V96.6377H566.625L565.413 102.86H569.368V105.269H564.956L563.549 112.476H561.018L562.424 105.269ZM558.241 102.86H562.881L564.094 96.6377H559.454L558.241 102.86ZM593.748 109.118C592.881 110.36 591.668 111.292 590.109 111.913C588.562 112.522 586.758 112.827 584.695 112.827C582.609 112.827 580.758 112.341 579.14 111.368C577.523 110.384 576.269 108.989 575.379 107.185C574.5 105.38 574.049 103.288 574.025 100.909V98.6768C574.025 94.8213 574.922 91.833 576.715 89.7119C578.519 87.5908 581.051 86.5303 584.308 86.5303C586.98 86.5303 589.131 87.2158 590.76 88.5869C592.388 89.9463 593.385 91.8799 593.748 94.3877H590.373C589.74 91.001 587.724 89.3076 584.326 89.3076C582.064 89.3076 580.347 90.1045 579.176 91.6982C578.015 93.2803 577.429 95.5771 577.418 98.5889V100.681C577.418 103.552 578.074 105.837 579.387 107.536C580.699 109.224 582.474 110.067 584.713 110.067C585.978 110.067 587.086 109.927 588.035 109.646C588.984 109.364 589.769 108.89 590.39 108.222V102.474H584.467V99.7314H593.748V109.118ZM609.497 102.122H603.485V112.476H600.093V86.8818H608.565C611.448 86.8818 613.663 87.5381 615.21 88.8506C616.769 90.1631 617.548 92.0732 617.548 94.5811C617.548 96.1748 617.114 97.5635 616.247 98.7471C615.392 99.9307 614.196 100.815 612.661 101.401L618.673 112.265V112.476H615.052L609.497 102.122ZM603.485 99.3623H608.671C610.347 99.3623 611.677 98.9287 612.661 98.0615C613.657 97.1943 614.155 96.0342 614.155 94.5811C614.155 92.999 613.681 91.7861 612.732 90.9424C611.794 90.0986 610.435 89.6709 608.653 89.6592H603.485V99.3623ZM637.481 100.646H626.389V109.716H639.274V112.476H623.014V86.8818H639.098V89.6592H626.389V97.8857H637.481V100.646ZM658.662 100.646H647.57V109.716H660.455V112.476H644.195V86.8818H660.279V89.6592H647.57V97.8857H658.662V100.646ZM685.046 112.476H681.653L668.768 92.7529V112.476H665.376V86.8818H668.768L681.688 106.692V86.8818H685.046V112.476Z" fill="white"/>
</g>
<g filter="url(#filter1_d)">
<circle cx="355.977" cy="100.975" r="100" fill="#00BAFF"/>
<path d="M313.924 105.268H309.284L307.877 112.475H305.364L306.77 105.268H302.569V102.86H307.227L308.44 96.6376H303.905V94.1942H308.914L310.356 86.8817H312.87L311.428 94.1942H316.069L317.51 86.8817H320.041L318.6 94.1942H322.186V96.6376H318.125L316.912 102.86H320.868V105.268H316.455L315.049 112.475H312.518L313.924 105.268ZM309.741 102.86H314.381L315.594 96.6376H310.953L309.741 102.86ZM326.351 112.475V86.8817H334.718C337.496 86.8817 339.582 87.4559 340.976 88.6044C342.382 89.7528 343.086 91.452 343.086 93.702C343.086 94.8973 342.746 95.9579 342.066 96.8837C341.386 97.7977 340.461 98.5067 339.289 99.0106C340.672 99.3973 341.761 100.136 342.558 101.225C343.367 102.304 343.771 103.593 343.771 105.093C343.771 107.39 343.027 109.194 341.539 110.507C340.05 111.819 337.947 112.475 335.228 112.475H326.351ZM329.726 100.505V109.716H335.298C336.869 109.716 338.105 109.311 339.007 108.503C339.922 107.682 340.379 106.557 340.379 105.128C340.379 102.046 338.703 100.505 335.351 100.505H329.726ZM329.726 97.7977H334.824C336.3 97.7977 337.478 97.4286 338.357 96.6903C339.248 95.952 339.693 94.9501 339.693 93.6844C339.693 92.2782 339.283 91.2587 338.463 90.6259C337.642 89.9813 336.394 89.6591 334.718 89.6591H329.726V97.7977ZM352.893 109.716H365.022V112.475H349.501V86.8817H352.893V109.716ZM386.66 86.8817V104.284C386.649 106.698 385.887 108.673 384.375 110.208C382.875 111.743 380.836 112.604 378.258 112.792L377.362 112.827C374.561 112.827 372.328 112.071 370.664 110.559C369 109.048 368.156 106.968 368.133 104.319V86.8817H371.473V104.214C371.473 106.065 371.983 107.507 373.002 108.538C374.022 109.557 375.475 110.067 377.362 110.067C379.272 110.067 380.731 109.557 381.738 108.538C382.758 107.518 383.268 106.083 383.268 104.231V86.8817H386.66ZM407.173 100.645H396.082V109.716H408.966V112.475H392.707V86.8817H408.791V89.6591H396.082V97.8856H407.173V100.645Z" fill="white"/>
</g>
<g filter="url(#filter2_d)">
<circle cx="104.023" cy="100.976" r="100" fill="#FF697B"/>
<path d="M71.4703 105.269H66.8297L65.4235 112.476H62.9098L64.316 105.269H60.1149V102.86H64.7731L65.986 96.6377H61.4508V94.1943H66.4606L67.902 86.8818H70.4156L68.9742 94.1943H73.6149L75.0563 86.8818H77.5875L76.1461 94.1943H79.7321V96.6377H75.6715L74.4586 102.86H78.4137V105.269H74.0016L72.5953 112.476H70.0641L71.4703 105.269ZM67.2867 102.86H71.9274L73.1403 96.6377H68.4996L67.2867 102.86ZM93.2841 102.122H87.2724V112.476H83.8798V86.8818H92.3524C95.2353 86.8818 97.4501 87.5381 98.997 88.8506C100.556 90.1631 101.335 92.0732 101.335 94.5811C101.335 96.1748 100.901 97.5635 100.034 98.7471C99.1786 99.9307 97.9833 100.815 96.4481 101.401L102.46 112.265V112.476H98.8388L93.2841 102.122ZM87.2724 99.3623H92.4579C94.1337 99.3623 95.4638 98.9287 96.4481 98.0615C97.4442 97.1943 97.9423 96.0342 97.9423 94.5811C97.9423 92.999 97.4677 91.7861 96.5185 90.9424C95.581 90.0986 94.2216 89.6709 92.4403 89.6592H87.2724V99.3623ZM121.268 100.646H110.176V109.716H123.061V112.476H106.801V86.8818H122.885V89.6592H110.176V97.8857H121.268V100.646ZM127.982 112.476V86.8818H135.207C137.433 86.8818 139.402 87.374 141.113 88.3584C142.824 89.3428 144.142 90.7432 145.068 92.5596C146.005 94.376 146.48 96.4619 146.492 98.8174V100.452C146.492 102.866 146.023 104.981 145.085 106.798C144.16 108.614 142.83 110.009 141.095 110.981C139.373 111.954 137.363 112.452 135.066 112.476H127.982ZM131.357 89.6592V109.716H134.908C137.509 109.716 139.531 108.907 140.972 107.29C142.425 105.673 143.152 103.37 143.152 100.382V98.8877C143.152 95.9814 142.466 93.7256 141.095 92.1201C139.736 90.5029 137.802 89.6826 135.294 89.6592H131.357Z" fill="white"/>
</g>
<defs>
<filter id="filter0_d" x="514.977" y="0.975586" width="208" height="208" filterUnits="userSpaceOnUse" color-interpolation-filters="sRGB">
<feFlood flood-opacity="0" result="BackgroundImageFix"/>
<feColorMatrix in="SourceAlpha" type="matrix" values="0 0 0 0 0 0 0 0 0 0 0 0 0 0 0 0 0 0 127 0"/>
<feOffset dy="4"/>
<feGaussianBlur stdDeviation="2"/>
<feColorMatrix type="matrix" values="0 0 0 0 0 0 0 0 0 0 0 0 0 0 0 0 0 0 0.25 0"/>
<feBlend mode="normal" in2="BackgroundImageFix" result="effect1_dropShadow"/>
<feBlend mode="normal" in="SourceGraphic" in2="effect1_dropShadow" result="shape"/>
</filter>
<filter id="filter1_d" x="251.977" y="0.975464" width="208" height="208" filterUnits="userSpaceOnUse" color-interpolation-filters="sRGB">
<feFlood flood-opacity="0" result="BackgroundImageFix"/>
<feColorMatrix in="SourceAlpha" type="matrix" values="0 0 0 0 0 0 0 0 0 0 0 0 0 0 0 0 0 0 127 0"/>
<feOffset dy="4"/>
<feGaussianBlur stdDeviation="2"/>
<feColorMatrix type="matrix" values="0 0 0 0 0 0 0 0 0 0 0 0 0 0 0 0 0 0 0.25 0"/>
<feBlend mode="normal" in2="BackgroundImageFix" result="effect1_dropShadow"/>
<feBlend mode="normal" in="SourceGraphic" in2="effect1_dropShadow" result="shape"/>
</filter>
<filter id="filter2_d" x="0.0230713" y="0.975586" width="208" height="208" filterUnits="userSpaceOnUse" color-interpolation-filters="sRGB">
<feFlood flood-opacity="0" result="BackgroundImageFix"/>
<feColorMatrix in="SourceAlpha" type="matrix" values="0 0 0 0 0 0 0 0 0 0 0 0 0 0 0 0 0 0 127 0"/>
<feOffset dy="4"/>
<feGaussianBlur stdDeviation="2"/>
<feColorMatrix type="matrix" values="0 0 0 0 0 0 0 0 0 0 0 0 0 0 0 0 0 0 0.25 0"/>
<feBlend mode="normal" in2="BackgroundImageFix" result="effect1_dropShadow"/>
<feBlend mode="normal" in="SourceGraphic" in2="effect1_dropShadow" result="shape"/>
</filter>
</defs>
</svg>
