<svg width="81" height="91" viewBox="0 0 81 91" fill="none" xmlns="http://www.w3.org/2000/svg">
<path d="M76.8135 0.425781H4.81348C2.59125 0.425781 0.813477 2.42578 0.813477 4.92578V85.9258C0.813477 87.9258 2.59125 90.4258 4.81348 90.4258H76.8135C78.5913 90.4258 80.8135 87.9258 80.8135 85.9258V4.92578C80.8135 2.42578 78.5913 0.425781 76.8135 0.425781Z" fill="#000405" fill-opacity="0.65"/>
<path d="M71.9246 80.4248H9.70239V10.4258H71.9246V80.4248Z" fill="white"/>
<path d="M36.3691 20.4268H63.0358V30.4179H36.3691V20.4268Z" fill="#FF2D55"/>
<path d="M36.3691 40.4258H63.0358V50.4161H36.3691V40.4258Z" fill="#FF2D55"/>
<path d="M36.3691 60.4258H63.0358V70.4161H36.3691V60.4258Z" fill="#FF2D55"/>
<path d="M18.5913 20.4268H27.4802V30.4179H18.5913V20.4268Z" fill="#FF2D55"/>
<path d="M18.5913 40.4258H27.4802V50.4161H18.5913V40.4258Z" fill="#FF2D55"/>
<path d="M18.5913 60.4258H27.4802V70.4161H18.5913V60.4258Z" fill="#FF2D55"/>
</svg>
