<svg width="606" height="451" viewBox="0 0 606 451" fill="none" xmlns="http://www.w3.org/2000/svg">
<path d="M380.004 260.358L366.358 432.636L591.932 450.511L605.578 278.234L380.004 260.358Z" fill="#FFF0A5"/>
<path d="M162.974 0.510595L0.578369 14.3467L14.4747 176.768L176.87 162.931L162.974 0.510595Z" fill="#00FFD2"/>
<path d="M521.04 218.608L507.303 217.964L507.868 205.93C507.905 205.146 507.786 204.363 507.52 203.625C507.254 202.887 506.845 202.208 506.317 201.628C505.789 201.048 505.151 200.578 504.441 200.244C503.731 199.911 502.962 199.72 502.178 199.684L475.191 198.427C474.407 198.389 473.623 198.506 472.883 198.772C472.144 199.037 471.465 199.446 470.884 199.975C470.303 200.503 469.832 201.141 469.498 201.852C469.163 202.563 468.973 203.333 468.937 204.118L468.381 216.152L241.029 205.55C239.38 205.476 237.768 206.059 236.548 207.172C235.328 208.284 234.599 209.835 234.521 211.484L226.113 392.156C225.994 394.736 226.904 397.258 228.643 399.167C230.382 401.077 232.808 402.217 235.388 402.339L508.374 415.065C510.954 415.184 513.476 414.274 515.385 412.534C517.294 410.795 518.434 408.368 518.555 405.788L526.973 225.117C527.011 224.3 526.888 223.483 526.61 222.714C526.332 221.944 525.906 221.237 525.355 220.633C524.804 220.028 524.139 219.538 523.399 219.191C522.658 218.843 521.857 218.645 521.04 218.608Z" fill="#333333"/>
<path d="M503.452 374.365L435.289 371.186C432.881 371.073 430.838 372.935 430.726 375.343L429.771 395.823C429.659 398.232 431.52 400.275 433.928 400.387L502.091 403.567C504.499 403.679 506.542 401.818 506.654 399.409L507.609 378.929C507.721 376.521 505.86 374.477 503.452 374.365Z" fill="#FD3A5C" stroke="#4D4D4D" stroke-width="0.976484" stroke-miterlimit="10"/>
<path d="M445.658 387.659C445.675 387.307 445.565 387.032 445.326 386.834C445.088 386.632 444.651 386.411 444.017 386.172C443.383 385.929 442.883 385.697 442.517 385.476C441.52 384.871 441.045 384.099 441.092 383.161C441.116 382.674 441.274 382.247 441.566 381.88C441.862 381.51 442.272 381.23 442.795 381.04C443.322 380.851 443.906 380.773 444.546 380.805C445.191 380.837 445.759 380.984 446.252 381.244C446.744 381.501 447.118 381.849 447.374 382.289C447.634 382.728 447.75 383.219 447.723 383.76L445.863 383.667C445.884 383.254 445.77 382.927 445.521 382.687C445.272 382.442 444.912 382.308 444.441 382.285C443.987 382.262 443.629 382.342 443.367 382.523C443.105 382.701 442.967 382.946 442.951 383.26C442.936 383.554 443.071 383.807 443.354 384.02C443.642 384.233 444.068 384.441 444.634 384.643C445.676 385.014 446.427 385.448 446.887 385.943C447.347 386.438 447.559 387.037 447.524 387.739C447.485 388.52 447.159 389.119 446.546 389.536C445.933 389.949 445.126 390.13 444.126 390.08C443.432 390.045 442.806 389.888 442.248 389.607C441.691 389.322 441.272 388.951 440.993 388.494C440.717 388.037 440.594 387.517 440.623 386.934L442.489 387.028C442.439 388.024 443.009 388.551 444.2 388.611C444.642 388.633 444.991 388.561 445.248 388.396C445.505 388.227 445.642 387.981 445.658 387.659ZM451.632 390.455C450.649 390.406 449.862 390.064 449.273 389.43C448.687 388.796 448.419 387.977 448.47 386.973L448.478 386.799C448.512 386.126 448.672 385.531 448.959 385.015C449.246 384.495 449.634 384.104 450.124 383.843C450.617 383.578 451.17 383.46 451.782 383.491C452.699 383.537 453.406 383.862 453.902 384.467C454.402 385.072 454.625 385.905 454.572 386.967L454.535 387.699L450.265 387.485C450.301 387.926 450.457 388.286 450.733 388.565C451.013 388.844 451.376 388.995 451.822 389.017C452.512 389.051 453.064 388.828 453.478 388.348L454.309 389.377C454.021 389.744 453.642 390.023 453.173 390.215C452.704 390.403 452.19 390.483 451.632 390.455ZM451.703 384.941C451.348 384.923 451.052 385.028 450.817 385.257C450.586 385.486 450.429 385.822 450.344 386.265L452.836 386.389L452.843 386.247C452.855 385.85 452.763 385.539 452.567 385.313C452.371 385.084 452.083 384.96 451.703 384.941ZM457.404 383.896L457.421 384.674C457.93 384.099 458.588 383.831 459.393 383.871C460.104 383.907 460.623 384.142 460.949 384.577C461.275 385.012 461.422 385.644 461.388 386.475L461.172 390.808L459.38 390.718L459.595 386.429C459.614 386.049 459.545 385.77 459.388 385.592C459.231 385.411 458.961 385.31 458.577 385.291C458.073 385.266 457.684 385.462 457.41 385.879L457.174 390.608L455.382 390.519L455.718 383.812L457.404 383.896ZM462.427 387.459C462.479 386.414 462.754 385.593 463.252 384.996C463.754 384.4 464.412 384.122 465.226 384.163C465.879 384.196 466.406 384.467 466.807 384.975L466.978 381.554L468.776 381.644L468.3 391.165L466.682 391.084L466.631 390.366C466.157 390.902 465.568 391.152 464.866 391.117C464.077 391.078 463.458 390.736 463.01 390.092C462.565 389.444 462.371 388.567 462.427 387.459ZM464.211 387.679C464.18 388.307 464.265 388.794 464.468 389.14C464.67 389.485 464.98 389.669 465.397 389.69C465.951 389.717 466.353 389.503 466.604 389.048L466.736 386.401C466.536 385.923 466.161 385.67 465.612 385.643C464.748 385.599 464.281 386.278 464.211 387.679Z" fill="black"/>
<path d="M486.873 384.31L490.584 388.383L486.512 392.095" stroke="white" stroke-width="1.95297" stroke-miterlimit="10" stroke-linecap="round"/>
<path d="M492.124 208.971L488.052 212.684L484.34 208.61" stroke="white" stroke-width="1.95297" stroke-miterlimit="10" stroke-linecap="round"/>
<path d="M240.503 349.902L508.131 362.375" stroke="black" stroke-width="0.732363" stroke-miterlimit="10"/>
<path d="M240.551 348.928L508.18 361.401" stroke="#232220" stroke-width="0.732363" stroke-miterlimit="10"/>
<path d="M267.497 272.863L248.763 271.989C248.225 271.964 247.769 272.379 247.744 272.917L246.734 294.575C246.709 295.112 247.125 295.568 247.662 295.593L266.396 296.467C266.934 296.492 267.39 296.077 267.415 295.539L268.425 273.881C268.45 273.344 268.034 272.888 267.497 272.863Z" fill="#4D4D4D"/>
<path d="M291.347 273.972L272.613 273.098C272.075 273.073 271.619 273.489 271.594 274.026L270.584 295.684C270.559 296.222 270.975 296.678 271.512 296.703L290.246 297.577C290.784 297.602 291.24 297.186 291.265 296.649L292.275 274.991C292.3 274.453 291.884 273.997 291.347 273.972Z" fill="#4D4D4D"/>
<path d="M315.187 275.084L296.453 274.21C295.916 274.185 295.46 274.6 295.435 275.138L294.425 296.796C294.4 297.333 294.815 297.789 295.353 297.815L314.087 298.688C314.624 298.713 315.08 298.298 315.105 297.76L316.115 276.103C316.14 275.565 315.725 275.109 315.187 275.084Z" fill="#4D4D4D"/>
<path d="M339.028 276.192L320.294 275.318C319.756 275.293 319.3 275.709 319.275 276.246L318.265 297.904C318.24 298.442 318.656 298.898 319.193 298.923L337.927 299.797C338.465 299.822 338.921 299.406 338.946 298.869L339.956 277.211C339.981 276.673 339.565 276.217 339.028 276.192Z" fill="#4D4D4D"/>
<path d="M362.314 279.081L343.559 278.143C343.021 278.116 342.563 278.531 342.536 279.069L341.452 300.75C341.425 301.288 341.84 301.746 342.378 301.773L361.132 302.711C361.67 302.738 362.128 302.324 362.155 301.785L363.239 280.104C363.266 279.566 362.852 279.108 362.314 279.081Z" fill="#4D4D4D"/>
<path d="M386.718 278.431L367.984 277.558C367.447 277.533 366.991 277.948 366.965 278.486L365.956 300.143C365.931 300.681 366.346 301.137 366.883 301.162L385.618 302.036C386.155 302.061 386.611 301.646 386.636 301.108L387.646 279.45C387.671 278.913 387.256 278.456 386.718 278.431Z" fill="#4D4D4D"/>
<path d="M410.038 281.486L391.283 280.548C390.745 280.521 390.287 280.936 390.26 281.474L389.177 303.155C389.15 303.693 389.564 304.152 390.102 304.178L408.856 305.116C409.395 305.143 409.853 304.729 409.879 304.191L410.963 282.509C410.99 281.971 410.576 281.513 410.038 281.486Z" fill="#4D4D4D"/>
<path d="M434.408 280.65L415.674 279.776C415.137 279.751 414.681 280.167 414.656 280.704L413.646 302.362C413.621 302.9 414.036 303.356 414.574 303.381L433.308 304.255C433.845 304.28 434.301 303.864 434.326 303.327L435.336 281.669C435.361 281.131 434.946 280.675 434.408 280.65Z" fill="#4D4D4D"/>
<path d="M458.249 281.76L439.515 280.886C438.977 280.861 438.521 281.276 438.496 281.814L437.486 303.472C437.461 304.009 437.877 304.465 438.414 304.49L457.148 305.364C457.686 305.389 458.142 304.974 458.167 304.436L459.177 282.778C459.202 282.241 458.786 281.785 458.249 281.76Z" fill="#4D4D4D"/>
<path d="M482.099 282.869L463.365 281.995C462.827 281.97 462.371 282.386 462.346 282.923L461.336 304.581C461.311 305.118 461.727 305.575 462.264 305.6L480.998 306.473C481.536 306.499 481.992 306.083 482.017 305.545L483.027 283.888C483.052 283.35 482.636 282.894 482.099 282.869Z" fill="#4D4D4D"/>
<path d="M505.94 283.98L487.205 283.106C486.668 283.081 486.212 283.496 486.187 284.034L485.177 305.692C485.152 306.229 485.567 306.685 486.105 306.711L504.839 307.584C505.376 307.609 505.833 307.194 505.858 306.656L506.867 284.999C506.892 284.461 506.477 284.005 505.94 283.98Z" fill="#4D4D4D"/>
<path d="M267.406 274.805L248.672 273.931C248.135 273.906 247.679 274.322 247.654 274.859L246.644 296.517C246.619 297.055 247.034 297.511 247.572 297.536L266.306 298.41C266.843 298.435 267.299 298.019 267.325 297.482L268.334 275.824C268.359 275.286 267.944 274.83 267.406 274.805Z" fill="#464646"/>
<path d="M291.247 275.924L272.513 275.05C271.975 275.025 271.519 275.441 271.494 275.978L270.484 297.636C270.459 298.174 270.875 298.63 271.412 298.655L290.146 299.529C290.684 299.554 291.14 299.138 291.165 298.601L292.175 276.943C292.2 276.405 291.784 275.949 291.247 275.924Z" fill="#464646"/>
<path d="M315.097 277.033L296.363 276.16C295.825 276.135 295.369 276.55 295.344 277.088L294.334 298.745C294.309 299.283 294.725 299.739 295.262 299.764L313.996 300.638C314.534 300.663 314.99 300.248 315.015 299.71L316.024 278.052C316.05 277.515 315.634 277.059 315.097 277.033Z" fill="#464646"/>
<path d="M338.937 278.143L320.203 277.269C319.665 277.244 319.209 277.659 319.184 278.197L318.175 299.855C318.149 300.392 318.565 300.849 319.102 300.874L337.836 301.747C338.374 301.772 338.83 301.357 338.855 300.819L339.865 279.162C339.89 278.624 339.474 278.168 338.937 278.143Z" fill="#464646"/>
<path d="M362.206 281.035L343.452 280.098C342.914 280.071 342.456 280.485 342.429 281.023L341.345 302.705C341.318 303.243 341.732 303.701 342.271 303.728L361.025 304.666C361.563 304.693 362.021 304.278 362.048 303.74L363.132 282.059C363.159 281.52 362.744 281.062 362.206 281.035Z" fill="#464646"/>
<path d="M386.628 280.363L367.894 279.489C367.356 279.464 366.9 279.88 366.875 280.417L365.865 302.075C365.84 302.613 366.256 303.069 366.793 303.094L385.527 303.968C386.065 303.993 386.521 303.577 386.546 303.04L387.556 281.382C387.581 280.844 387.165 280.388 386.628 280.363Z" fill="#464646"/>
<path d="M410.468 281.472L391.734 280.599C391.196 280.574 390.74 280.989 390.715 281.527L389.706 303.184C389.68 303.722 390.096 304.178 390.633 304.203L409.367 305.077C409.905 305.102 410.361 304.687 410.386 304.149L411.396 282.491C411.421 281.954 411.006 281.497 410.468 281.472Z" fill="#464646"/>
<path d="M434.318 282.582L415.584 281.708C415.046 281.683 414.59 282.098 414.565 282.636L413.555 304.294C413.53 304.831 413.946 305.287 414.483 305.313L433.217 306.186C433.755 306.211 434.211 305.796 434.236 305.258L435.246 283.601C435.271 283.063 434.855 282.607 434.318 282.582Z" fill="#464646"/>
<path d="M458.158 283.712L439.424 282.838C438.886 282.813 438.43 283.229 438.405 283.766L437.396 305.424C437.37 305.962 437.786 306.418 438.323 306.443L457.057 307.317C457.595 307.342 458.051 306.926 458.076 306.389L459.086 284.731C459.111 284.193 458.695 283.737 458.158 283.712Z" fill="#464646"/>
<path d="M481.998 284.82L463.264 283.946C462.727 283.921 462.271 284.337 462.246 284.874L461.236 306.532C461.211 307.07 461.626 307.526 462.164 307.551L480.898 308.425C481.435 308.45 481.891 308.034 481.916 307.497L482.926 285.839C482.951 285.301 482.536 284.845 481.998 284.82Z" fill="#464646"/>
<path d="M505.849 285.932L487.114 285.058C486.577 285.033 486.121 285.448 486.096 285.986L485.086 307.644C485.061 308.181 485.476 308.638 486.014 308.663L504.748 309.536C505.285 309.562 505.741 309.146 505.767 308.608L506.776 286.951C506.801 286.413 506.386 285.957 505.849 285.932Z" fill="#464646"/>
<path d="M260.516 286.825C260.449 288.169 260.119 289.183 259.527 289.867C258.935 290.551 258.103 290.866 257.031 290.813C255.972 290.76 255.179 290.37 254.653 289.643C254.127 288.916 253.891 287.901 253.942 286.596L254.032 284.807C254.1 283.45 254.431 282.434 255.027 281.759C255.628 281.084 256.457 280.773 257.517 280.826C258.576 280.879 259.368 281.269 259.894 281.995C260.42 282.718 260.657 283.731 260.605 285.036L260.516 286.825ZM258.685 284.766C258.725 283.96 258.643 283.369 258.439 282.993C258.239 282.613 257.906 282.411 257.438 282.388C256.985 282.365 256.64 282.524 256.404 282.865C256.173 283.201 256.032 283.741 255.982 284.483L255.864 286.846C255.824 287.638 255.902 288.233 256.096 288.631C256.295 289.025 256.632 289.234 257.108 289.257C257.58 289.281 257.93 289.113 258.157 288.754C258.385 288.396 258.522 287.836 258.569 287.075L258.685 284.766Z" fill="white"/>
<path d="M282.786 291.879L280.857 291.783L281.229 284.347L278.89 284.946L278.969 283.377L283.066 282.136L283.273 282.147L282.786 291.879Z" fill="white"/>
<path d="M308.125 293.069L301.463 292.736L301.529 291.414L304.841 288.221C305.296 287.771 305.635 287.375 305.857 287.034C306.084 286.693 306.205 286.364 306.221 286.048C306.243 285.616 306.15 285.273 305.945 285.017C305.739 284.757 305.434 284.617 305.029 284.596C304.593 284.575 304.24 284.709 303.971 284.999C303.707 285.284 303.563 285.672 303.539 286.161L301.603 286.065C301.632 285.473 301.8 284.939 302.104 284.464C302.414 283.988 302.833 283.626 303.363 283.376C303.894 283.121 304.486 283.01 305.14 283.043C306.141 283.093 306.906 283.372 307.434 283.88C307.966 284.389 308.21 285.081 308.166 285.958C308.142 286.439 307.993 286.922 307.719 287.408C307.445 287.894 306.989 288.453 306.35 289.086L304.024 291.305L308.203 291.514L308.125 293.069Z" fill="white"/>
<path d="M328.039 288.261L329.067 288.313C329.556 288.337 329.925 288.233 330.173 288C330.421 287.767 330.555 287.448 330.575 287.043C330.595 286.652 330.492 286.341 330.267 286.111C330.047 285.881 329.732 285.756 329.322 285.736C328.953 285.717 328.639 285.804 328.379 285.997C328.12 286.184 327.982 286.441 327.966 286.766L326.037 286.669C326.062 286.162 326.221 285.715 326.512 285.328C326.808 284.937 327.207 284.64 327.708 284.437C328.213 284.235 328.762 284.149 329.354 284.178C330.381 284.23 331.175 284.517 331.733 285.04C332.291 285.559 332.549 286.25 332.506 287.113C332.484 287.558 332.327 287.961 332.037 288.321C331.747 288.681 331.377 288.95 330.926 289.129C331.464 289.352 331.856 289.666 332.104 290.071C332.356 290.476 332.468 290.946 332.442 291.48C332.398 292.343 332.048 293.019 331.39 293.508C330.736 293.997 329.891 294.216 328.854 294.164C327.884 294.116 327.103 293.82 326.51 293.278C325.921 292.735 325.648 292.043 325.69 291.202L327.619 291.299C327.601 291.664 327.722 291.969 327.981 292.214C328.246 292.459 328.578 292.591 328.979 292.611C329.437 292.634 329.801 292.532 330.071 292.305C330.346 292.073 330.494 291.757 330.514 291.356C330.562 290.386 330.052 289.875 328.984 289.821L327.963 289.77L328.039 288.261Z" fill="white"/>
<path d="M355.043 291.586L356.144 291.641L356.067 293.197L354.965 293.142L354.86 295.244L352.931 295.148L353.036 293.045L349.051 292.846L349.025 291.627L353.397 285.428L355.346 285.525L355.043 291.586ZM350.964 291.382L353.114 291.49L353.285 288.059L353.148 288.273L350.964 291.382Z" fill="white"/>
<path d="M373.032 291.287L373.839 286.375L379.286 286.647L379.206 288.256L375.341 288.063L374.996 290.14C375.467 289.918 375.96 289.82 376.476 289.846C377.402 289.892 378.113 290.216 378.609 290.816C379.106 291.416 379.328 292.233 379.277 293.265C379.245 293.893 379.084 294.449 378.792 294.934C378.504 295.415 378.107 295.781 377.599 296.032C377.092 296.279 376.502 296.385 375.83 296.352C375.243 296.322 374.703 296.177 374.212 295.916C373.721 295.651 373.34 295.295 373.068 294.848C372.8 294.402 372.671 293.903 372.681 293.35L374.59 293.446C374.61 293.853 374.734 294.176 374.963 294.415C375.197 294.649 375.509 294.776 375.901 294.796C376.337 294.818 376.681 294.679 376.932 294.379C377.184 294.075 377.324 293.636 377.353 293.062C377.38 292.51 377.266 292.08 377.009 291.773C376.752 291.466 376.375 291.3 375.876 291.275C375.418 291.252 375.04 291.354 374.744 291.58L374.548 291.744L373.032 291.287Z" fill="white"/>
<path d="M402.557 287.633L402.478 289.222L402.291 289.213C401.418 289.182 400.704 289.374 400.148 289.788C399.596 290.202 399.247 290.798 399.101 291.576C399.644 291.077 400.309 290.847 401.096 290.886C401.942 290.928 402.599 291.265 403.067 291.895C403.535 292.525 403.745 293.334 403.695 294.322C403.664 294.954 403.497 295.519 403.196 296.017C402.899 296.515 402.491 296.894 401.974 297.153C401.462 297.413 400.889 297.527 400.257 297.496C399.234 297.445 398.424 297.047 397.828 296.304C397.236 295.56 396.97 294.594 397.029 293.406L397.064 292.712C397.116 291.657 397.361 290.737 397.797 289.952C398.238 289.162 398.841 288.565 399.607 288.162C400.376 287.754 401.253 287.573 402.237 287.617L402.557 287.633ZM400.432 292.405C400.12 292.39 399.833 292.458 399.572 292.61C399.31 292.757 399.112 292.962 398.979 293.223L398.949 293.81C398.917 294.455 399.019 294.967 399.254 295.344C399.49 295.718 399.837 295.916 400.295 295.939C400.709 295.959 401.051 295.813 401.321 295.501C401.595 295.185 401.746 294.766 401.772 294.246C401.798 293.716 401.69 293.282 401.449 292.945C401.207 292.607 400.868 292.427 400.432 292.405Z" fill="white"/>
<path d="M428.21 290.012L424.02 298.462L421.984 298.36L426.157 290.392L421.324 290.15L421.402 288.588L428.264 288.931L428.21 290.012Z" fill="white"/>
<path d="M452.189 292.632C452.165 293.104 452.026 293.516 451.772 293.869C451.518 294.222 451.179 294.498 450.754 294.695C451.214 294.946 451.572 295.278 451.828 295.692C452.084 296.102 452.199 296.576 452.172 297.115C452.129 297.978 451.801 298.646 451.188 299.12C450.576 299.589 449.765 299.798 448.755 299.748C447.744 299.697 446.956 299.406 446.389 298.873C445.823 298.341 445.561 297.645 445.604 296.786C445.631 296.248 445.792 295.785 446.088 295.399C446.384 295.012 446.771 294.719 447.249 294.52C446.846 294.281 446.536 293.973 446.318 293.597C446.105 293.22 446.011 292.796 446.034 292.324C446.076 291.497 446.384 290.852 446.961 290.39C447.537 289.923 448.299 289.714 449.247 289.761C450.191 289.809 450.926 290.091 451.453 290.608C451.985 291.121 452.23 291.795 452.189 292.632ZM450.243 296.878C450.264 296.455 450.159 296.111 449.927 295.845C449.695 295.579 449.372 295.436 448.958 295.415C448.548 295.394 448.215 295.505 447.958 295.746C447.7 295.983 447.561 296.315 447.54 296.743C447.519 297.156 447.623 297.496 447.85 297.762C448.078 298.028 448.405 298.171 448.832 298.192C449.251 298.213 449.584 298.107 449.832 297.874C450.085 297.642 450.222 297.309 450.243 296.878ZM450.255 292.629C450.274 292.251 450.189 291.943 450 291.706C449.811 291.465 449.534 291.335 449.169 291.317C448.809 291.299 448.523 291.396 448.312 291.608C448.1 291.821 447.985 292.123 447.965 292.515C447.946 292.902 448.03 293.218 448.219 293.464C448.407 293.71 448.684 293.842 449.049 293.86C449.414 293.878 449.7 293.775 449.908 293.549C450.12 293.323 450.235 293.016 450.255 292.629Z" fill="white"/>
<path d="M473.557 296.883C473.029 297.351 472.429 297.569 471.757 297.535C470.899 297.492 470.226 297.164 469.739 296.551C469.252 295.933 469.034 295.124 469.084 294.123C469.116 293.486 469.283 292.91 469.585 292.394C469.892 291.874 470.302 291.48 470.815 291.211C471.329 290.938 471.897 290.817 472.52 290.848C473.161 290.88 473.722 291.069 474.205 291.414C474.687 291.76 475.051 292.24 475.297 292.854C475.543 293.469 475.649 294.163 475.615 294.938L475.579 295.652C475.498 297.272 475.032 298.524 474.18 299.41C473.328 300.295 472.162 300.732 470.681 300.72L470.207 300.703L470.288 299.095L470.715 299.109C472.397 299.118 473.344 298.375 473.557 296.883ZM472.305 296.084C472.617 296.099 472.888 296.033 473.118 295.884C473.353 295.735 473.534 295.55 473.661 295.329L473.701 294.534C473.734 293.88 473.634 293.367 473.403 292.994C473.172 292.621 472.847 292.424 472.429 292.403C472.042 292.383 471.715 292.546 471.448 292.889C471.181 293.228 471.034 293.665 471.007 294.199C470.981 294.728 471.079 295.17 471.302 295.525C471.53 295.876 471.865 296.062 472.305 296.084Z" fill="white"/>
<path d="M493.002 301.683L491.073 301.586L491.444 294.15L489.106 294.749L489.184 293.181L493.281 291.94L493.488 291.95L493.002 301.683ZM502.908 298.15C502.841 299.494 502.512 300.508 501.92 301.192C501.328 301.876 500.496 302.192 499.423 302.138C498.364 302.085 497.572 301.695 497.046 300.968C496.52 300.242 496.283 299.226 496.335 297.921L496.424 296.133C496.492 294.775 496.824 293.759 497.42 293.084C498.02 292.409 498.85 292.098 499.909 292.151C500.968 292.204 501.761 292.594 502.286 293.321C502.812 294.043 503.049 295.056 502.998 296.361L502.908 298.15ZM501.077 296.091C501.117 295.285 501.035 294.695 500.831 294.319C500.632 293.938 500.298 293.737 499.831 293.713C499.377 293.69 499.032 293.849 498.797 294.19C498.566 294.527 498.425 295.066 498.374 295.808L498.256 298.171C498.217 298.964 498.294 299.559 498.488 299.956C498.687 300.35 499.025 300.559 499.501 300.583C499.973 300.606 500.322 300.439 500.55 300.08C500.778 299.721 500.915 299.161 500.962 298.4L501.077 296.091Z" fill="white"/>
<path d="M489.537 257.268C489.564 256.734 489.65 256.312 489.795 256.002C489.941 255.692 490.193 255.393 490.551 255.105C490.914 254.813 491.157 254.575 491.281 254.39C491.405 254.201 491.473 254 491.483 253.786C491.516 253.142 491.234 252.805 490.639 252.775C490.357 252.761 490.125 252.837 489.945 253.004C489.769 253.167 489.669 253.401 489.646 253.706L487.987 253.623C488.031 252.895 488.294 252.336 488.776 251.948C489.262 251.559 489.906 251.385 490.707 251.425C491.515 251.465 492.133 251.693 492.56 252.108C492.986 252.519 493.182 253.082 493.146 253.795C493.13 254.119 493.042 254.423 492.883 254.705C492.724 254.984 492.454 255.29 492.074 255.623L491.589 256.04C491.285 256.304 491.103 256.622 491.042 256.994L491.002 257.342L489.537 257.268ZM489.283 259.017C489.296 258.761 489.392 258.555 489.572 258.4C489.756 258.241 489.983 258.168 490.254 258.182C490.525 258.195 490.742 258.29 490.905 258.467C491.072 258.639 491.15 258.854 491.137 259.109C491.124 259.361 491.028 259.565 490.848 259.72C490.672 259.876 490.445 259.946 490.167 259.933C489.888 259.919 489.667 259.825 489.504 259.653C489.344 259.48 489.271 259.268 489.283 259.017Z" fill="white"/>
<path d="M470.917 242.101L252.833 231.929C249.141 231.757 246.008 234.609 245.836 238.299C245.664 241.99 248.517 245.121 252.21 245.294L470.294 255.466C473.987 255.638 477.119 252.786 477.292 249.095C477.464 245.405 474.61 242.273 470.917 242.101Z" fill="#4D4D4D"/>
<path d="M505.53 349.472L493.391 348.907L494.219 331.202L506.358 331.777L505.53 349.472ZM495.427 347.056L503.679 347.436L504.322 333.628L496.07 333.248L495.427 347.056Z" fill="white"/>
<path d="M491.033 348.656L477.198 348.013C476.786 348.014 476.378 347.933 475.997 347.775C475.616 347.617 475.271 347.385 474.98 347.092C474.69 346.799 474.461 346.451 474.307 346.069C474.152 345.687 474.075 345.277 474.081 344.865C474.097 344.351 474.248 343.85 474.519 343.413C473.974 343.15 473.517 342.733 473.206 342.213C472.894 341.694 472.741 341.095 472.765 340.49C472.793 339.953 472.961 339.432 473.252 338.98C472.977 338.828 472.727 338.634 472.512 338.405C472.054 337.931 471.762 337.323 471.678 336.67C471.593 336.017 471.722 335.354 472.044 334.78C471.656 334.61 471.305 334.365 471.012 334.059C470.721 333.763 470.495 333.41 470.347 333.023C470.2 332.636 470.134 332.222 470.154 331.808C470.224 330.98 470.613 330.213 471.238 329.667C471.864 329.122 472.677 328.841 473.506 328.884L482.81 329.323L482.313 327.023V326.896C482.45 325.117 482.909 323.377 483.667 321.761L483.891 321.186C484.104 320.488 484.57 319.894 485.198 319.522C485.826 319.15 486.57 319.026 487.284 319.175C487.999 319.324 488.632 319.735 489.058 320.327C489.485 320.92 489.675 321.65 489.591 322.375L489.454 325.298C490.643 328.631 493.069 333.211 494.93 333.299L494.832 335.247C490.935 335.062 488.09 327.315 487.555 325.766L487.486 325.581L487.642 322.248C487.649 322.119 487.631 321.989 487.587 321.867C487.544 321.745 487.476 321.633 487.389 321.537C487.302 321.441 487.197 321.363 487.08 321.308C486.963 321.252 486.836 321.221 486.707 321.215C486.498 321.202 486.291 321.257 486.115 321.371C485.94 321.485 485.806 321.653 485.733 321.849L485.518 322.414C484.863 323.806 484.448 325.298 484.291 326.828L485.265 331.35L473.438 330.794C473.124 330.767 472.811 330.862 472.566 331.06C472.32 331.258 472.162 331.543 472.122 331.856C472.109 332.012 472.13 332.169 472.184 332.315C472.238 332.462 472.323 332.594 472.434 332.704C472.669 332.95 472.991 333.093 473.33 333.104L475.035 333.182L474.938 335.131C474.763 335.114 474.586 335.133 474.419 335.187C474.252 335.241 474.097 335.327 473.964 335.442C473.847 335.535 473.752 335.652 473.685 335.785C473.617 335.917 473.58 336.063 473.574 336.212C473.563 336.366 473.585 336.521 473.638 336.665C473.692 336.81 473.777 336.941 473.886 337.05C474.122 337.294 474.443 337.437 474.782 337.45L476.107 337.508L476.01 339.457C475.693 339.437 475.381 339.537 475.135 339.738C474.889 339.938 474.728 340.224 474.685 340.539C474.676 340.694 474.699 340.849 474.752 340.995C474.806 341.141 474.889 341.274 474.996 341.386C475.239 341.626 475.562 341.768 475.902 341.786L477.452 341.854L477.364 343.803C477.204 343.77 477.039 343.773 476.88 343.81C476.722 343.847 476.573 343.918 476.444 344.018C476.315 344.118 476.21 344.245 476.135 344.389C476.059 344.534 476.016 344.693 476.009 344.856C476.001 345.019 476.028 345.182 476.089 345.333C476.15 345.484 476.243 345.621 476.362 345.732C476.48 345.844 476.622 345.929 476.776 345.981C476.931 346.034 477.095 346.052 477.257 346.035L490.653 346.658L493.936 345.284L494.686 347.087L491.033 348.656Z" fill="white"/>
<path d="M260.212 326.477L248.073 325.902L248.901 308.207L261.04 308.772L260.212 326.477ZM250.109 324.051L258.361 324.431L259.004 310.623L250.752 310.243L250.109 324.051Z" fill="white"/>
<path d="M267.782 338.384H267.645C267.252 338.37 266.865 338.277 266.508 338.109C266.152 337.942 265.833 337.704 265.57 337.41C265.31 337.125 265.109 336.792 264.979 336.429C264.849 336.066 264.791 335.681 264.81 335.295L264.947 332.372C263.768 329.039 261.332 324.46 259.471 324.372L259.569 322.423C263.466 322.608 266.311 330.355 266.856 331.904L266.915 332.089L266.759 335.422C266.706 335.681 266.758 335.949 266.903 336.17C267.048 336.39 267.275 336.543 267.533 336.596C267.792 336.649 268.061 336.597 268.281 336.452C268.501 336.307 268.654 336.08 268.707 335.822L268.931 335.256C269.581 333.864 269.993 332.371 270.149 330.842L269.175 326.321L281.002 326.876C281.177 326.892 281.354 326.872 281.521 326.819C281.688 326.765 281.843 326.679 281.977 326.564C282.089 326.473 282.181 326.359 282.246 326.23C282.312 326.1 282.349 325.959 282.357 325.814C282.362 325.652 282.334 325.491 282.276 325.34C282.218 325.189 282.13 325.051 282.017 324.934C281.904 324.818 281.769 324.725 281.62 324.662C281.471 324.599 281.31 324.567 281.149 324.567L279.444 324.489L279.541 322.54C279.708 322.553 279.877 322.533 280.036 322.479C280.195 322.426 280.342 322.34 280.467 322.228C280.583 322.135 280.678 322.018 280.745 321.885C280.812 321.753 280.85 321.607 280.856 321.458C280.86 321.297 280.832 321.137 280.773 320.987C280.714 320.837 280.625 320.7 280.513 320.585C280.4 320.47 280.266 320.378 280.117 320.315C279.969 320.253 279.809 320.221 279.648 320.221L278.343 320.162L278.43 318.213C278.591 318.233 278.753 318.22 278.908 318.173C279.063 318.127 279.206 318.049 279.33 317.945C279.453 317.841 279.553 317.712 279.624 317.567C279.695 317.421 279.735 317.263 279.742 317.102C279.749 316.94 279.722 316.779 279.663 316.629C279.605 316.478 279.516 316.341 279.402 316.227C279.287 316.113 279.151 316.023 279.001 315.964C278.85 315.905 278.689 315.878 278.528 315.885L276.979 315.816L277.066 313.867C277.241 313.884 277.417 313.867 277.584 313.815C277.751 313.763 277.907 313.678 278.041 313.565C278.157 313.471 278.253 313.352 278.32 313.218C278.387 313.083 278.425 312.936 278.43 312.786C278.442 312.657 278.427 312.527 278.385 312.404C278.343 312.281 278.275 312.169 278.187 312.074C277.929 311.811 277.581 311.654 277.213 311.636L263.817 311.012L260.543 312.377L259.783 310.584L263.466 309.044L277.3 309.687C278.2 309.726 279.049 310.114 279.668 310.769C279.923 311.047 280.12 311.372 280.249 311.727C280.377 312.081 280.435 312.458 280.418 312.835C280.399 313.347 280.252 313.846 279.989 314.286C280.382 314.471 280.73 314.738 281.011 315.068C281.292 315.399 281.499 315.786 281.618 316.203C281.737 316.62 281.766 317.058 281.701 317.487C281.637 317.916 281.482 318.327 281.246 318.691C281.747 318.966 282.163 319.375 282.445 319.872C282.727 320.369 282.865 320.936 282.844 321.507C282.828 321.993 282.694 322.468 282.454 322.891C283.034 323.135 283.526 323.55 283.864 324.081C284.202 324.612 284.369 325.234 284.344 325.863C284.329 326.282 284.227 326.693 284.044 327.071C283.861 327.448 283.602 327.784 283.282 328.055C282.646 328.594 281.825 328.867 280.993 328.815L271.688 328.387L272.185 330.686V330.813C272.048 332.596 271.589 334.339 270.831 335.958L270.617 336.523C270.396 337.09 270.005 337.574 269.497 337.907C268.989 338.241 268.389 338.408 267.782 338.384Z" fill="white"/>
<path d="M487.983 154.869L474.548 151.945L477.091 140.164C477.424 138.615 477.129 136.997 476.27 135.665C475.412 134.334 474.06 133.397 472.512 133.061L446.1 127.36C444.551 127.027 442.933 127.323 441.602 128.181C440.27 129.04 439.334 130.392 438.998 131.94L436.455 143.731L213.993 95.642C213.194 95.4688 212.369 95.455 211.564 95.6013C210.76 95.7477 209.992 96.0513 209.305 96.4949C208.618 96.9384 208.026 97.5131 207.561 98.1861C207.097 98.8591 206.77 99.6171 206.599 100.417L168.388 277.2C167.845 279.726 168.326 282.365 169.728 284.536C171.129 286.707 173.335 288.232 175.861 288.776L442.963 346.522C444.214 346.793 445.505 346.814 446.764 346.586C448.023 346.357 449.225 345.883 450.301 345.19C451.376 344.497 452.305 343.598 453.034 342.546C453.762 341.494 454.276 340.309 454.547 339.058L492.747 162.274C492.921 161.475 492.935 160.65 492.79 159.845C492.644 159.04 492.341 158.272 491.899 157.585C491.457 156.897 490.883 156.303 490.211 155.837C489.539 155.371 488.782 155.042 487.983 154.869Z" fill="black"/>
<path d="M482.235 142.046L468.8 139.123L471.353 127.361C471.685 125.812 471.39 124.194 470.532 122.862C469.673 121.53 468.322 120.594 466.774 120.257L440.361 114.547C439.594 114.381 438.802 114.368 438.03 114.508C437.258 114.648 436.521 114.939 435.861 115.365C435.202 115.79 434.632 116.341 434.186 116.987C433.739 117.632 433.424 118.36 433.259 119.127L430.707 130.908L208.255 82.8194C207.456 82.646 206.63 82.6316 205.826 82.7772C205.021 82.9228 204.253 83.2255 203.566 83.668C202.878 84.1105 202.284 84.6841 201.819 85.3561C201.353 86.0281 201.024 86.7852 200.85 87.5844L162.65 264.368C162.379 265.619 162.357 266.911 162.586 268.17C162.814 269.429 163.289 270.631 163.982 271.707C164.675 272.783 165.573 273.712 166.625 274.44C167.677 275.169 168.862 275.683 170.112 275.954L437.224 333.699C438.476 333.97 439.768 333.991 441.028 333.762C442.287 333.533 443.489 333.058 444.565 332.364C445.641 331.669 446.569 330.77 447.297 329.717C448.026 328.664 448.539 327.477 448.808 326.225L487.009 149.442C487.182 148.643 487.196 147.817 487.05 147.013C486.903 146.208 486.6 145.44 486.156 144.753C485.713 144.066 485.138 143.473 484.465 143.009C483.792 142.544 483.035 142.217 482.235 142.046Z" fill="#333333"/>
<path d="M439.09 292.758L372.394 278.335C370.038 277.825 367.715 279.322 367.206 281.679L362.874 301.718C362.364 304.075 363.861 306.398 366.218 306.908L432.913 321.331C435.269 321.84 437.592 320.343 438.102 317.986L442.434 297.947C442.943 295.59 441.446 293.267 439.09 292.758Z" fill="#FD3A5C" stroke="#4D4D4D" stroke-width="0.976484" stroke-miterlimit="10"/>
<path d="M379.921 296.249C379.995 295.904 379.929 295.615 379.726 295.381C379.522 295.142 379.127 294.854 378.538 294.516C377.951 294.174 377.494 293.865 377.168 293.587C376.28 292.829 375.935 291.991 376.132 291.072C376.234 290.594 376.459 290.197 376.806 289.882C377.158 289.563 377.607 289.353 378.155 289.25C378.706 289.148 379.295 289.164 379.923 289.298C380.555 289.434 381.093 289.67 381.538 290.007C381.983 290.339 382.297 290.743 382.479 291.219C382.665 291.695 382.701 292.198 382.587 292.728L380.765 292.338C380.852 291.933 380.791 291.592 380.584 291.314C380.377 291.033 380.043 290.843 379.582 290.744C379.136 290.648 378.77 290.669 378.482 290.807C378.195 290.94 378.018 291.161 377.953 291.468C377.891 291.756 377.983 292.028 378.229 292.284C378.479 292.54 378.867 292.814 379.394 293.105C380.363 293.639 381.036 294.188 381.411 294.751C381.786 295.314 381.899 295.94 381.752 296.628C381.588 297.394 381.169 297.933 380.497 298.246C379.825 298.555 378.999 298.605 378.019 298.395C377.338 298.249 376.745 297.993 376.239 297.626C375.734 297.255 375.38 296.821 375.178 296.325C374.979 295.829 374.941 295.296 375.063 294.725L376.891 295.116C376.682 296.092 377.161 296.705 378.327 296.955C378.76 297.048 379.117 297.034 379.398 296.912C379.679 296.785 379.853 296.564 379.921 296.249ZM385.375 299.972C384.411 299.765 383.689 299.301 383.208 298.58C382.731 297.859 382.598 297.007 382.809 296.023L382.846 295.853C382.987 295.192 383.241 294.631 383.607 294.167C383.974 293.699 384.42 293.375 384.946 293.196C385.476 293.013 386.041 292.986 386.641 293.114C387.54 293.307 388.186 293.742 388.578 294.419C388.975 295.097 389.062 295.957 388.839 296.997L388.686 297.714L384.5 296.817C384.465 297.259 384.561 297.639 384.789 297.959C385.021 298.28 385.356 298.487 385.793 298.581C386.47 298.726 387.051 298.594 387.536 298.186L388.192 299.336C387.849 299.653 387.43 299.868 386.935 299.982C386.442 300.092 385.922 300.089 385.375 299.972ZM386.33 294.534C385.982 294.46 385.673 294.517 385.404 294.705C385.139 294.893 384.929 295.2 384.775 295.624L387.217 296.148L387.247 296.008C387.322 295.618 387.281 295.295 387.124 295.041C386.967 294.783 386.703 294.614 386.33 294.534ZM392.13 294.418L392.022 295.189C392.618 294.702 393.31 294.544 394.1 294.713C394.796 294.862 395.271 295.178 395.524 295.66C395.776 296.142 395.819 296.791 395.653 297.606L394.743 301.852L392.988 301.476L393.888 297.273C393.968 296.9 393.945 296.613 393.818 296.413C393.693 296.208 393.442 296.065 393.065 295.984C392.571 295.878 392.155 296.01 391.818 296.378L390.825 301.013L389.07 300.636L390.478 294.064L392.13 294.418ZM396.521 298.745C396.74 297.721 397.144 296.954 397.732 296.444C398.323 295.936 399.018 295.767 399.816 295.938C400.456 296.075 400.933 296.428 401.248 296.995L401.966 293.642L403.728 294.019L401.729 303.35L400.143 303.01L400.208 302.293C399.653 302.746 399.032 302.899 398.344 302.751C397.57 302.585 397.014 302.148 396.674 301.44C396.339 300.729 396.288 299.831 396.521 298.745ZM398.249 299.249C398.117 299.865 398.123 300.359 398.268 300.734C398.412 301.108 398.689 301.338 399.098 301.426C399.64 301.542 400.072 301.396 400.393 300.986L400.948 298.392C400.828 297.887 400.498 297.577 399.96 297.462C399.113 297.281 398.543 297.876 398.249 299.249Z" fill="black"/>
<path d="M421.13 299.806L424.111 304.435L419.483 307.426" stroke="white" stroke-width="1.95297" stroke-miterlimit="10" stroke-linecap="round"/>
<path d="M455.316 127.747L450.679 130.729L447.698 126.101" stroke="white" stroke-width="1.95297" stroke-miterlimit="10" stroke-linecap="round"/>
<path d="M183.85 225.088L445.72 281.693" stroke="black" stroke-width="0.732363" stroke-miterlimit="10"/>
<path d="M184.054 224.132L445.925 280.747" stroke="#232220" stroke-width="0.732363" stroke-miterlimit="10"/>
<path d="M223.21 153.587L204.879 149.623C204.353 149.509 203.835 149.843 203.721 150.369L199.14 171.561C199.027 172.087 199.361 172.606 199.887 172.719L218.218 176.684C218.743 176.797 219.262 176.463 219.376 175.937L223.957 154.745C224.07 154.219 223.736 153.701 223.21 153.587Z" fill="#4D4D4D"/>
<path d="M246.538 158.64L228.207 154.676C227.681 154.562 227.163 154.896 227.049 155.422L222.468 176.614C222.354 177.14 222.689 177.658 223.215 177.772L241.545 181.736C242.071 181.85 242.59 181.516 242.704 180.99L247.285 159.798C247.398 159.272 247.064 158.753 246.538 158.64Z" fill="#4D4D4D"/>
<path d="M269.876 163.682L251.545 159.718C251.019 159.604 250.501 159.938 250.387 160.464L245.806 181.656C245.692 182.182 246.026 182.7 246.552 182.814L264.883 186.778C265.409 186.892 265.928 186.558 266.041 186.032L270.622 164.84C270.736 164.314 270.402 163.795 269.876 163.682Z" fill="#4D4D4D"/>
<path d="M293.197 168.722L274.866 164.758C274.34 164.644 273.821 164.978 273.708 165.504L269.127 186.696C269.013 187.222 269.347 187.741 269.873 187.854L288.204 191.818C288.73 191.932 289.248 191.598 289.362 191.072L293.943 169.88C294.057 169.354 293.723 168.835 293.197 168.722Z" fill="#4D4D4D"/>
<path d="M316.524 173.773L298.193 169.809C297.668 169.696 297.149 170.03 297.035 170.556L292.454 191.748C292.341 192.274 292.675 192.792 293.201 192.906L311.532 196.87C312.058 196.984 312.576 196.65 312.69 196.124L317.271 174.932C317.384 174.406 317.05 173.887 316.524 173.773Z" fill="#4D4D4D"/>
<path d="M339.864 178.815L321.534 174.851C321.008 174.738 320.489 175.072 320.375 175.598L315.794 196.79C315.681 197.316 316.015 197.834 316.541 197.948L334.872 201.912C335.398 202.026 335.916 201.692 336.03 201.166L340.611 179.974C340.725 179.448 340.39 178.929 339.864 178.815Z" fill="#4D4D4D"/>
<path d="M363.193 183.868L344.862 179.904C344.336 179.79 343.817 180.125 343.704 180.651L339.123 201.842C339.009 202.368 339.343 202.887 339.869 203.001L358.2 206.965C358.726 207.078 359.244 206.744 359.358 206.218L363.939 185.027C364.053 184.501 363.718 183.982 363.193 183.868Z" fill="#4D4D4D"/>
<path d="M386.523 188.898L368.192 184.934C367.666 184.821 367.148 185.155 367.034 185.681L362.453 206.873C362.339 207.399 362.674 207.917 363.199 208.031L381.53 211.995C382.056 212.109 382.575 211.775 382.688 211.249L387.269 190.057C387.383 189.531 387.049 189.012 386.523 188.898Z" fill="#4D4D4D"/>
<path d="M409.851 193.95L391.52 189.986C390.994 189.872 390.475 190.207 390.362 190.733L385.781 211.924C385.667 212.45 386.001 212.969 386.527 213.083L404.858 217.047C405.384 217.161 405.902 216.826 406.016 216.3L410.597 195.109C410.711 194.583 410.377 194.064 409.851 193.95Z" fill="#4D4D4D"/>
<path d="M433.179 199L414.848 195.036C414.322 194.922 413.804 195.256 413.69 195.783L409.109 216.974C408.995 217.5 409.33 218.019 409.855 218.133L428.186 222.097C428.712 222.21 429.231 221.876 429.344 221.35L433.925 200.158C434.039 199.632 433.705 199.114 433.179 199Z" fill="#4D4D4D"/>
<path d="M456.509 204.042L438.178 200.078C437.652 199.964 437.134 200.298 437.02 200.825L432.439 222.016C432.325 222.542 432.659 223.061 433.185 223.175L451.516 227.139C452.042 227.252 452.561 226.918 452.674 226.392L457.255 205.2C457.369 204.674 457.035 204.156 456.509 204.042Z" fill="#4D4D4D"/>
<path d="M222.796 155.493L204.465 151.529C203.94 151.415 203.421 151.75 203.307 152.276L198.726 173.467C198.613 173.993 198.947 174.512 199.473 174.626L217.804 178.59C218.33 178.703 218.848 178.369 218.962 177.843L223.543 156.652C223.656 156.126 223.322 155.607 222.796 155.493Z" fill="#464646"/>
<path d="M246.136 160.537L227.805 156.573C227.279 156.459 226.761 156.794 226.647 157.32L222.066 178.511C221.952 179.037 222.286 179.556 222.812 179.67L241.143 183.634C241.669 183.747 242.188 183.413 242.301 182.887L246.882 161.696C246.996 161.169 246.662 160.651 246.136 160.537Z" fill="#464646"/>
<path d="M269.465 165.589L251.134 161.625C250.608 161.511 250.089 161.845 249.976 162.371L245.395 183.563C245.281 184.089 245.615 184.608 246.141 184.721L264.472 188.685C264.998 188.799 265.516 188.465 265.63 187.939L270.211 166.747C270.325 166.221 269.99 165.703 269.465 165.589Z" fill="#464646"/>
<path d="M292.783 170.639L274.452 166.675C273.926 166.561 273.407 166.895 273.294 167.421L268.713 188.613C268.599 189.139 268.933 189.658 269.459 189.771L287.79 193.735C288.316 193.849 288.834 193.515 288.948 192.989L293.529 171.797C293.643 171.271 293.309 170.752 292.783 170.639Z" fill="#464646"/>
<path d="M316.123 175.67L297.792 171.706C297.266 171.592 296.747 171.926 296.634 172.452L292.053 193.644C291.939 194.17 292.273 194.689 292.799 194.802L311.13 198.767C311.656 198.88 312.174 198.546 312.288 198.02L316.869 176.828C316.983 176.302 316.649 175.784 316.123 175.67Z" fill="#464646"/>
<path d="M339.451 180.722L321.12 176.758C320.594 176.644 320.075 176.978 319.962 177.504L315.381 198.696C315.267 199.222 315.601 199.741 316.127 199.854L334.458 203.818C334.984 203.932 335.502 203.598 335.616 203.072L340.197 181.88C340.311 181.354 339.977 180.835 339.451 180.722Z" fill="#464646"/>
<path d="M362.771 185.764L344.441 181.8C343.915 181.686 343.396 182.02 343.282 182.546L338.701 203.738C338.588 204.264 338.922 204.783 339.448 204.896L357.779 208.86C358.305 208.974 358.823 208.64 358.937 208.114L363.518 186.922C363.631 186.396 363.297 185.877 362.771 185.764Z" fill="#464646"/>
<path d="M386.109 190.814L367.778 186.85C367.252 186.737 366.734 187.071 366.62 187.597L362.039 208.789C361.925 209.315 362.26 209.833 362.785 209.947L381.116 213.911C381.642 214.025 382.161 213.691 382.275 213.165L386.855 191.973C386.969 191.447 386.635 190.928 386.109 190.814Z" fill="#464646"/>
<path d="M409.437 195.855L391.106 191.89C390.58 191.777 390.061 192.111 389.948 192.637L385.367 213.829C385.253 214.355 385.587 214.873 386.113 214.987L404.444 218.951C404.97 219.065 405.488 218.731 405.602 218.205L410.183 197.013C410.297 196.487 409.963 195.968 409.437 195.855Z" fill="#464646"/>
<path d="M432.777 200.897L414.446 196.933C413.92 196.82 413.401 197.154 413.288 197.68L408.707 218.872C408.593 219.398 408.927 219.916 409.453 220.03L427.784 223.994C428.31 224.108 428.828 223.774 428.942 223.248L433.523 202.056C433.637 201.53 433.303 201.011 432.777 200.897Z" fill="#464646"/>
<path d="M456.095 205.948L437.764 201.984C437.238 201.871 436.72 202.205 436.606 202.731L432.025 223.922C431.912 224.448 432.246 224.967 432.772 225.081L451.103 229.045C451.628 229.159 452.147 228.824 452.261 228.298L456.842 207.107C456.955 206.581 456.621 206.062 456.095 205.948Z" fill="#464646"/>
<path d="M214.012 166.149C213.73 167.466 213.242 168.415 212.547 168.996C211.852 169.577 210.979 169.755 209.928 169.529C208.89 169.307 208.17 168.794 207.767 167.992C207.365 167.189 207.293 166.148 207.554 164.867L207.93 163.114C208.215 161.784 208.706 160.833 209.403 160.262C210.104 159.692 210.974 159.518 212.012 159.74C213.05 159.963 213.77 160.475 214.173 161.277C214.577 162.076 214.648 163.115 214.388 164.396L214.012 166.149ZM212.534 163.82C212.703 163.031 212.717 162.434 212.575 162.03C212.439 161.622 212.142 161.369 211.684 161.271C211.239 161.176 210.873 161.277 210.586 161.576C210.303 161.871 210.078 162.382 209.909 163.107L209.412 165.423C209.246 166.199 209.227 166.8 209.355 167.224C209.488 167.645 209.788 167.905 210.255 168.005C210.717 168.104 211.09 167.995 211.372 167.677C211.655 167.359 211.88 166.828 212.049 166.084L212.534 163.82Z" fill="white"/>
<path d="M235.161 174.841L233.27 174.435L234.831 167.148L232.425 167.364L232.754 165.827L237.001 165.259L237.204 165.303L235.161 174.841Z" fill="white"/>
<path d="M259.953 180.196L253.424 178.797L253.702 177.502L257.486 174.878C258.008 174.506 258.407 174.17 258.681 173.868C258.96 173.568 259.132 173.263 259.199 172.953C259.289 172.53 259.254 172.176 259.091 171.89C258.93 171.6 258.651 171.412 258.254 171.327C257.827 171.236 257.457 171.312 257.145 171.555C256.838 171.795 256.633 172.154 256.53 172.634L254.633 172.228C254.758 171.648 255.008 171.147 255.386 170.726C255.768 170.306 256.241 170.015 256.804 169.853C257.369 169.687 257.972 169.673 258.613 169.81C259.594 170.02 260.305 170.419 260.745 171.006C261.189 171.594 261.319 172.317 261.135 173.176C261.034 173.647 260.809 174.101 260.46 174.537C260.112 174.973 259.571 175.453 258.839 175.975L256.184 177.794L260.279 178.672L259.953 180.196Z" fill="white"/>
<path d="M280.348 178.754L281.356 178.97C281.835 179.073 282.217 179.029 282.499 178.839C282.782 178.648 282.965 178.355 283.05 177.958C283.133 177.574 283.081 177.25 282.896 176.987C282.715 176.725 282.424 176.551 282.022 176.465C281.66 176.387 281.336 176.423 281.049 176.571C280.762 176.715 280.585 176.946 280.517 177.264L278.626 176.859C278.733 176.362 278.961 175.946 279.311 175.61C279.667 175.271 280.108 175.042 280.636 174.922C281.167 174.804 281.723 174.806 282.303 174.931C283.311 175.147 284.048 175.558 284.516 176.164C284.984 176.767 285.128 177.491 284.947 178.337C284.853 178.773 284.634 179.146 284.29 179.455C283.945 179.764 283.536 179.971 283.062 180.074C283.557 180.381 283.895 180.755 284.074 181.195C284.258 181.635 284.294 182.117 284.182 182.641C284.001 183.487 283.546 184.099 282.817 184.476C282.093 184.855 281.223 184.935 280.206 184.717C279.256 184.513 278.531 184.096 278.032 183.464C277.538 182.834 277.379 182.106 277.556 181.282L279.446 181.687C279.37 182.045 279.44 182.366 279.657 182.649C279.879 182.934 280.186 183.119 280.579 183.203C281.028 183.299 281.404 183.257 281.708 183.075C282.016 182.891 282.213 182.602 282.297 182.209C282.501 181.259 282.079 180.671 281.032 180.447L280.032 180.232L280.348 178.754Z" fill="white"/>
<path d="M306.443 186.498L307.522 186.729L307.196 188.253L306.116 188.022L305.675 190.083L303.784 189.677L304.226 187.617L300.32 186.78L300.49 185.571L305.805 180.148L307.715 180.558L306.443 186.498ZM302.446 185.641L304.552 186.092L305.273 182.73L305.102 182.919L302.446 185.641Z" fill="white"/>
<path d="M324.222 189.202L325.809 184.478L331.147 185.623L330.809 187.199L327.022 186.387L326.347 188.384C326.848 188.241 327.351 188.223 327.857 188.332C328.764 188.526 329.415 188.96 329.809 189.633C330.203 190.306 330.292 191.148 330.075 192.16C329.943 192.775 329.694 193.298 329.328 193.731C328.967 194.16 328.515 194.457 327.973 194.624C327.432 194.786 326.832 194.797 326.174 194.656C325.598 194.532 325.089 194.302 324.645 193.965C324.203 193.624 323.883 193.211 323.686 192.727C323.493 192.243 323.446 191.729 323.544 191.184L325.415 191.585C325.37 191.99 325.441 192.33 325.628 192.602C325.822 192.872 326.11 193.048 326.494 193.13C326.921 193.222 327.283 193.14 327.58 192.884C327.877 192.624 328.086 192.212 328.207 191.65C328.323 191.109 328.278 190.666 328.074 190.321C327.87 189.976 327.523 189.752 327.035 189.647C326.586 189.551 326.196 189.59 325.867 189.766L325.647 189.897L324.222 189.202Z" fill="white"/>
<path d="M353.939 190.445L353.605 192.002L353.422 191.963C352.564 191.793 351.828 191.867 351.212 192.187C350.6 192.507 350.16 193.04 349.891 193.785C350.507 193.379 351.201 193.259 351.973 193.424C352.802 193.602 353.397 194.04 353.758 194.737C354.119 195.435 354.196 196.268 353.989 197.236C353.856 197.856 353.601 198.387 353.223 198.831C352.85 199.275 352.387 199.584 351.834 199.758C351.286 199.932 350.702 199.953 350.083 199.82C349.08 199.605 348.343 199.083 347.873 198.252C347.408 197.422 347.3 196.425 347.55 195.261L347.695 194.581C347.917 193.547 348.306 192.677 348.863 191.971C349.426 191.261 350.118 190.769 350.938 190.493C351.764 190.214 352.66 190.176 353.625 190.378L353.939 190.445ZM351.072 194.819C350.767 194.753 350.473 194.775 350.19 194.883C349.907 194.986 349.679 195.156 349.505 195.393L349.382 195.969C349.247 196.601 349.265 197.123 349.437 197.533C349.61 197.94 349.921 198.191 350.37 198.288C350.776 198.375 351.137 198.285 351.454 198.02C351.776 197.752 351.991 197.362 352.101 196.852C352.212 196.333 352.175 195.887 351.99 195.515C351.806 195.142 351.5 194.91 351.072 194.819Z" fill="white"/>
<path d="M378.839 197.047L373.343 204.723L371.347 204.295L376.75 197.092L372.013 196.077L372.341 194.546L379.066 195.987L378.839 197.047Z" fill="white"/>
<path d="M402.067 203.604C401.967 204.066 401.764 204.451 401.456 204.76C401.149 205.068 400.769 205.285 400.318 205.412C400.732 205.733 401.033 206.119 401.219 206.57C401.406 207.016 401.443 207.503 401.33 208.03C401.149 208.877 400.718 209.484 400.036 209.854C399.356 210.219 398.521 210.295 397.531 210.083C396.541 209.871 395.809 209.456 395.334 208.839C394.86 208.222 394.713 207.493 394.893 206.651C395.006 206.123 395.24 205.692 395.595 205.357C395.949 205.023 396.379 204.796 396.883 204.676C396.523 204.375 396.266 204.021 396.112 203.614C395.962 203.208 395.936 202.774 396.035 202.311C396.209 201.5 396.618 200.913 397.261 200.549C397.906 200.181 398.692 200.096 399.621 200.295C400.546 200.493 401.227 200.89 401.665 201.486C402.108 202.078 402.242 202.784 402.067 203.604ZM399.463 207.486C399.551 207.072 399.502 206.715 399.316 206.415C399.129 206.115 398.833 205.922 398.428 205.835C398.026 205.749 397.679 205.804 397.386 206.001C397.094 206.194 396.903 206.5 396.813 206.919C396.726 207.324 396.774 207.677 396.956 207.976C397.139 208.275 397.439 208.469 397.858 208.559C398.268 208.647 398.614 208.595 398.896 208.405C399.183 208.216 399.372 207.91 399.463 207.486ZM400.156 203.29C400.236 202.92 400.201 202.602 400.053 202.338C399.905 202.069 399.652 201.896 399.295 201.819C398.941 201.744 398.643 201.794 398.4 201.97C398.157 202.146 397.995 202.426 397.913 202.81C397.831 203.189 397.864 203.515 398.011 203.788C398.157 204.062 398.41 204.237 398.767 204.313C399.125 204.39 399.424 204.333 399.666 204.143C399.912 203.954 400.075 203.67 400.156 203.29Z" fill="white"/>
<path d="M422.454 211.349C421.858 211.728 421.23 211.847 420.571 211.705C419.73 211.525 419.118 211.093 418.735 210.409C418.354 209.72 418.268 208.885 418.478 207.904C418.612 207.281 418.869 206.738 419.251 206.277C419.638 205.813 420.106 205.489 420.656 205.306C421.207 205.118 421.788 205.09 422.399 205.221C423.027 205.355 423.551 205.632 423.972 206.051C424.394 206.469 424.676 207.002 424.821 207.649C424.965 208.295 424.958 208.999 424.8 209.759L424.65 210.458C424.31 212.046 423.648 213.209 422.664 213.947C421.68 214.685 420.458 214.929 418.997 214.68L418.531 214.587L418.869 213.01L419.289 213.093C420.949 213.371 422.004 212.79 422.454 211.349ZM421.346 210.359C421.651 210.425 421.929 210.402 422.181 210.292C422.437 210.183 422.646 210.029 422.807 209.831L422.974 209.052C423.111 208.411 423.095 207.888 422.927 207.482C422.758 207.077 422.469 206.83 422.059 206.742C421.68 206.661 421.33 206.768 421.011 207.065C420.693 207.357 420.478 207.765 420.366 208.288C420.255 208.807 420.281 209.26 420.445 209.646C420.614 210.029 420.914 210.267 421.346 210.359Z" fill="white"/>
<path d="M440.846 219.306L438.955 218.9L440.517 211.613L438.11 211.829L438.439 210.292L442.687 209.724L442.889 209.768L440.846 219.306ZM451.201 217.406C450.919 218.723 450.431 219.672 449.736 220.253C449.041 220.834 448.168 221.012 447.117 220.787C446.08 220.564 445.359 220.052 444.956 219.249C444.554 218.447 444.482 217.405 444.743 216.124L445.119 214.371C445.404 213.041 445.895 212.09 446.592 211.519C447.293 210.949 448.163 210.775 449.201 210.997C450.239 211.22 450.959 211.732 451.362 212.535C451.766 213.333 451.837 214.372 451.577 215.653L451.201 217.406ZM449.723 215.078C449.892 214.288 449.906 213.691 449.764 213.287C449.628 212.879 449.331 212.626 448.873 212.528C448.428 212.433 448.062 212.534 447.775 212.833C447.492 213.128 447.267 213.639 447.098 214.364L446.601 216.68C446.435 217.456 446.416 218.057 446.544 218.481C446.677 218.902 446.977 219.162 447.444 219.262C447.906 219.361 448.279 219.252 448.561 218.934C448.844 218.616 449.069 218.085 449.238 217.341L449.723 215.078Z" fill="white"/>
<path d="M444.763 174.942C444.875 174.418 445.028 174.015 445.221 173.732C445.415 173.449 445.712 173.194 446.112 172.967C446.517 172.737 446.796 172.541 446.948 172.378C447.101 172.211 447.2 172.023 447.245 171.814C447.38 171.182 447.156 170.804 446.573 170.679C446.297 170.62 446.056 170.658 445.851 170.794C445.65 170.927 445.514 171.142 445.443 171.44L443.817 171.091C443.977 170.379 444.327 169.869 444.865 169.562C445.408 169.256 446.072 169.187 446.857 169.356C447.649 169.526 448.223 169.85 448.578 170.329C448.933 170.804 449.036 171.391 448.887 172.09C448.818 172.407 448.683 172.693 448.48 172.947C448.278 173.197 447.963 173.456 447.534 173.723L446.987 174.058C446.644 174.27 446.413 174.555 446.294 174.912L446.198 175.249L444.763 174.942ZM444.231 176.628C444.285 176.378 444.413 176.19 444.616 176.066C444.823 175.938 445.059 175.903 445.325 175.959C445.59 176.016 445.789 176.145 445.922 176.346C446.06 176.543 446.102 176.767 446.048 177.018C445.995 177.264 445.867 177.45 445.665 177.575C445.466 177.7 445.23 177.734 444.957 177.675C444.684 177.617 444.481 177.489 444.347 177.292C444.217 177.096 444.178 176.875 444.231 176.628Z" fill="white"/>
<path d="M428.912 156.941L215.521 110.796C211.908 110.014 208.347 112.308 207.566 115.919C206.785 119.53 209.082 123.091 212.695 123.872L426.085 170.018C429.698 170.799 433.26 168.505 434.041 164.894C434.821 161.283 432.525 157.722 428.912 156.941Z" fill="#4D4D4D"/>
<path d="M445.32 268.538L433.444 265.975L437.185 248.649L449.062 251.222L445.32 268.538ZM435.753 264.474L443.83 266.219L446.753 252.713L438.686 250.969L435.753 264.474Z" fill="white"/>
<path d="M431.126 265.332L417.584 262.408C417.177 262.342 416.787 262.196 416.438 261.978C416.088 261.759 415.786 261.474 415.548 261.137C415.31 260.8 415.142 260.42 415.054 260.017C414.965 259.615 414.957 259.198 415.031 258.793C415.137 258.291 415.365 257.823 415.694 257.429C415.34 257.179 415.043 256.858 414.823 256.485C414.603 256.113 414.465 255.698 414.417 255.267C414.369 254.837 414.413 254.402 414.546 253.99C414.678 253.578 414.897 253.199 415.187 252.878C414.865 252.629 414.597 252.318 414.397 251.963C414.198 251.609 414.072 251.217 414.026 250.813C413.981 250.409 414.017 249.999 414.133 249.609C414.249 249.219 414.441 248.856 414.7 248.542C414.341 248.315 414.033 248.016 413.794 247.665C413.559 247.319 413.397 246.929 413.318 246.518C413.24 246.107 413.247 245.684 413.338 245.276C413.429 244.868 413.603 244.483 413.849 244.144C414.095 243.806 414.408 243.522 414.768 243.309C415.489 242.891 416.341 242.758 417.155 242.939L426.254 244.888L426.147 242.539V242.413C426.572 240.669 427.312 239.018 428.33 237.54L428.651 237.004C428.972 236.343 429.531 235.826 430.216 235.558C430.9 235.29 431.661 235.29 432.346 235.558C433.031 235.827 433.589 236.343 433.91 237.005C434.231 237.666 434.291 238.425 434.078 239.129L433.445 242.052C434.068 245.531 435.705 250.462 437.527 250.822L437.117 252.722C433.328 251.904 431.769 243.787 431.496 242.169V241.984L432.197 238.72C432.225 238.593 432.227 238.463 432.204 238.336C432.18 238.208 432.132 238.087 432.061 237.979C431.991 237.869 431.9 237.775 431.793 237.702C431.686 237.628 431.565 237.576 431.438 237.55C431.233 237.498 431.017 237.513 430.822 237.594C430.627 237.675 430.463 237.817 430.356 237.998L430.044 238.525C429.164 239.788 428.505 241.192 428.096 242.676L428.3 247.295L416.736 244.79C416.404 244.718 416.058 244.77 415.762 244.936C415.631 245.013 415.518 245.115 415.43 245.238C415.341 245.36 415.279 245.5 415.248 245.647C415.217 245.795 415.217 245.948 415.249 246.096C415.28 246.243 415.342 246.383 415.431 246.505C415.625 246.784 415.917 246.979 416.249 247.051L417.915 247.412L417.506 249.312C417.35 249.259 417.185 249.24 417.021 249.255C416.857 249.27 416.699 249.32 416.555 249.401C416.412 249.482 416.288 249.592 416.19 249.725C416.092 249.857 416.024 250.008 415.988 250.169C415.953 250.33 415.952 250.496 415.986 250.657C416.019 250.818 416.086 250.971 416.183 251.104C416.279 251.237 416.402 251.349 416.545 251.431C416.687 251.514 416.845 251.565 417.009 251.582L418.285 251.865L417.876 253.765C417.721 253.719 417.559 253.706 417.399 253.726C417.239 253.746 417.085 253.799 416.947 253.881C416.808 253.963 416.688 254.073 416.594 254.204C416.5 254.335 416.434 254.484 416.401 254.642C416.367 254.799 416.366 254.962 416.399 255.12C416.431 255.278 416.495 255.428 416.588 255.559C416.681 255.691 416.8 255.802 416.938 255.886C417.075 255.97 417.229 256.024 417.389 256.045L418.909 256.367L418.519 258.316C418.187 258.241 417.84 258.293 417.545 258.462C417.416 258.535 417.304 258.634 417.217 258.753C417.13 258.872 417.069 259.009 417.038 259.154C417.018 259.311 417.029 259.471 417.071 259.624C417.113 259.778 417.185 259.921 417.283 260.046C417.381 260.171 417.502 260.276 417.641 260.353C417.78 260.431 417.932 260.48 418.09 260.498L431.194 263.334L434.653 262.525L435.101 264.474L431.126 265.332Z" fill="white"/>
<path d="M207.144 205.237L195.268 202.674L199.009 185.349L210.885 187.921L207.144 205.237ZM197.577 201.183L205.654 202.928L208.576 189.412L200.509 187.668L197.577 201.183Z" fill="white"/>
<path d="M213.136 218.285C212.926 218.285 212.717 218.263 212.512 218.216C212.131 218.14 211.769 217.988 211.447 217.77C211.125 217.552 210.85 217.272 210.638 216.946C210.426 216.621 210.28 216.256 210.211 215.873C210.141 215.49 210.149 215.098 210.233 214.718L210.856 211.795C210.242 208.316 208.606 203.395 206.784 203.025L207.193 201.076C210.983 201.894 212.542 210.021 212.814 211.639V211.824L212.113 215.088C212.066 215.209 212.044 215.338 212.047 215.468C212.05 215.597 212.079 215.725 212.131 215.844C212.184 215.962 212.259 216.069 212.353 216.159C212.447 216.248 212.557 216.318 212.678 216.365C212.799 216.412 212.928 216.434 213.057 216.431C213.187 216.428 213.315 216.399 213.433 216.347C213.552 216.294 213.659 216.219 213.748 216.125C213.838 216.031 213.908 215.921 213.954 215.8L214.266 215.274C215.153 214.018 215.812 212.616 216.215 211.132L216.01 206.513L227.584 209.008C227.916 209.089 228.266 209.037 228.558 208.862C228.685 208.789 228.794 208.691 228.88 208.574C228.965 208.456 229.025 208.322 229.055 208.18C229.086 208.022 229.086 207.86 229.053 207.703C229.021 207.546 228.957 207.396 228.867 207.264C228.776 207.131 228.66 207.018 228.525 206.931C228.39 206.844 228.239 206.785 228.081 206.757L226.415 206.396L226.824 204.448C226.977 204.492 227.137 204.505 227.295 204.486C227.453 204.467 227.606 204.416 227.744 204.337C227.882 204.258 228.003 204.152 228.099 204.025C228.196 203.899 228.266 203.754 228.305 203.6C228.34 203.45 228.344 203.295 228.315 203.144C228.287 202.993 228.227 202.849 228.139 202.723C227.946 202.443 227.653 202.248 227.321 202.177L226.035 201.904L226.444 199.955C226.601 200.009 226.767 200.029 226.931 200.014C227.096 199.998 227.255 199.948 227.399 199.867C227.543 199.786 227.668 199.675 227.766 199.542C227.863 199.409 227.932 199.256 227.967 199.095C228.001 198.933 228.001 198.766 227.967 198.604C227.932 198.443 227.864 198.29 227.766 198.157C227.668 198.024 227.543 197.913 227.399 197.832C227.255 197.75 227.096 197.7 226.931 197.685L225.49 197.373H225.412L225.831 195.424C226.162 195.501 226.51 195.448 226.805 195.278C226.933 195.204 227.044 195.105 227.131 194.986C227.218 194.866 227.28 194.73 227.311 194.586C227.333 194.428 227.323 194.268 227.282 194.114C227.24 193.96 227.168 193.816 227.07 193.691C226.972 193.566 226.85 193.461 226.71 193.384C226.571 193.307 226.418 193.258 226.259 193.241L213.146 190.406L209.687 191.215L209.249 189.314L213.146 188.408L226.678 191.332C227.086 191.397 227.476 191.544 227.827 191.763C228.177 191.982 228.48 192.269 228.718 192.606C228.955 192.944 229.123 193.326 229.211 193.73C229.3 194.133 229.306 194.55 229.231 194.956C229.127 195.456 228.899 195.922 228.568 196.311C228.924 196.559 229.222 196.879 229.444 197.252C229.666 197.624 229.806 198.039 229.855 198.47C229.904 198.9 229.86 199.336 229.728 199.749C229.595 200.161 229.375 200.54 229.085 200.862C229.325 201.06 229.538 201.289 229.718 201.544C229.954 201.883 230.118 202.268 230.198 202.674C230.278 203.08 230.274 203.498 230.185 203.902C230.092 204.378 229.881 204.824 229.572 205.198C230.102 205.537 230.518 206.028 230.764 206.607C231.011 207.186 231.078 207.825 230.955 208.443C230.865 208.848 230.692 209.23 230.447 209.565C230.202 209.901 229.891 210.182 229.533 210.392C228.816 210.813 227.967 210.949 227.156 210.772L218.056 208.823L218.153 211.171V211.288C217.72 213.03 216.977 214.68 215.961 216.16L215.65 216.687C215.412 217.154 215.054 217.549 214.612 217.83C214.169 218.111 213.66 218.268 213.136 218.285Z" fill="white"/>
<path d="M378.584 29.4965L364.847 29.974L364.457 17.9299C364.431 17.1458 364.25 16.3745 363.925 15.6604C363.6 14.9463 363.138 14.3033 362.564 13.7684C361.99 13.2334 361.316 12.8169 360.581 12.5428C359.846 12.2687 359.064 12.1423 358.28 12.171L331.274 13.1454C329.693 13.1938 328.196 13.8673 327.112 15.0182C326.027 16.169 325.442 17.7033 325.487 19.2844L325.906 31.3285L98.4852 39.2312C96.8347 39.2897 95.2747 40.0007 94.1477 41.2083C93.0208 42.4159 92.4188 44.0213 92.4741 45.6723L98.758 226.431C98.802 227.71 99.0975 228.968 99.6277 230.133C100.158 231.298 100.912 232.347 101.848 233.22C102.783 234.093 103.881 234.774 105.08 235.222C106.278 235.671 107.553 235.879 108.832 235.835L381.945 226.344C383.224 226.3 384.482 226.004 385.646 225.474C386.811 224.944 387.86 224.189 388.733 223.253C389.606 222.318 390.286 221.219 390.734 220.021C391.183 218.822 391.391 217.547 391.347 216.268L385.063 35.5089C385.035 34.6876 384.845 33.8799 384.504 33.1324C384.163 32.3849 383.677 31.7122 383.075 31.1534C382.473 30.5945 381.766 30.1603 380.995 29.876C380.224 29.5916 379.405 29.4627 378.584 29.4965Z" fill="black"/>
<path d="M370.595 18.2686L356.868 18.7461L356.449 6.70202C356.393 5.11661 355.71 3.61829 354.55 2.53652C353.39 1.45474 351.847 0.878078 350.262 0.93332L323.266 1.90776C322.481 1.93291 321.709 2.11286 320.994 2.43728C320.279 2.7617 319.635 3.22421 319.099 3.79825C318.563 4.37228 318.145 5.04654 317.871 5.78231C317.596 6.51808 317.469 7.30086 317.498 8.08572L317.917 20.1298L90.4574 27.9643C89.6401 27.992 88.8363 28.1807 88.0921 28.5196C87.3478 28.8584 86.6778 29.3409 86.1203 29.9392C85.5628 30.5376 85.1288 31.2401 84.8432 32.0065C84.5576 32.7728 84.426 33.5881 84.456 34.4054L90.6912 215.203C90.7826 217.785 91.8951 220.224 93.784 221.986C95.673 223.747 98.184 224.686 100.765 224.597L373.878 215.106C375.157 215.062 376.415 214.766 377.579 214.236C378.744 213.706 379.793 212.951 380.666 212.016C381.539 211.08 382.219 209.982 382.668 208.783C383.116 207.585 383.324 206.309 383.28 205.03L377.035 24.281C377.007 23.4631 376.819 22.6587 376.48 21.9138C376.141 21.1689 375.659 20.4981 375.061 19.9397C374.463 19.3813 373.761 18.9463 372.994 18.6596C372.228 18.3728 371.413 18.24 370.595 18.2686Z" fill="#333333"/>
<path d="M365.728 174.932L297.532 177.302C295.123 177.385 293.238 179.406 293.321 181.816L294.033 202.306C294.117 204.715 296.138 206.601 298.547 206.517L366.743 204.147C369.152 204.063 371.037 202.042 370.953 199.633L370.241 179.143C370.157 176.733 368.137 174.848 365.728 174.932Z" fill="#FD3A5C" stroke="#4D4D4D" stroke-width="0.976484" stroke-miterlimit="10"/>
<path d="M309.195 192.898C309.184 192.547 309.052 192.282 308.799 192.104C308.545 191.921 308.093 191.736 307.442 191.549C306.791 191.357 306.274 191.166 305.892 190.975C304.851 190.452 304.316 189.721 304.288 188.783C304.273 188.296 304.397 187.858 304.658 187.469C304.923 187.077 305.309 186.765 305.815 186.535C306.325 186.305 306.9 186.18 307.541 186.161C308.185 186.141 308.763 186.242 309.275 186.462C309.786 186.679 310.186 186.995 310.476 187.413C310.769 187.83 310.924 188.309 310.941 188.851L309.081 188.906C309.069 188.493 308.929 188.177 308.662 187.957C308.395 187.734 308.025 187.629 307.554 187.643C307.1 187.657 306.749 187.764 306.503 187.966C306.257 188.164 306.138 188.42 306.148 188.734C306.156 189.027 306.311 189.269 306.61 189.458C306.913 189.648 307.355 189.82 307.934 189.977C309.002 190.263 309.784 190.635 310.282 191.091C310.78 191.548 311.039 192.127 311.06 192.83C311.083 193.611 310.806 194.233 310.229 194.697C309.651 195.157 308.862 195.402 307.862 195.432C307.168 195.453 306.532 195.346 305.954 195.111C305.376 194.872 304.93 194.536 304.615 194.103C304.304 193.67 304.14 193.162 304.123 192.579L305.988 192.523C306.018 193.519 306.628 193.999 307.818 193.963C308.26 193.95 308.603 193.851 308.845 193.666C309.088 193.476 309.204 193.221 309.195 192.898ZM315.369 195.207C314.385 195.237 313.574 194.959 312.936 194.374C312.303 193.789 311.971 192.995 311.941 191.991L311.935 191.817C311.915 191.144 312.027 190.538 312.272 190.002C312.516 189.461 312.872 189.041 313.338 188.741C313.809 188.438 314.35 188.277 314.962 188.258C315.879 188.231 316.609 188.498 317.151 189.061C317.697 189.624 317.986 190.436 318.018 191.498L318.04 192.23L313.769 192.358C313.84 192.794 314.024 193.14 314.322 193.396C314.623 193.652 314.997 193.773 315.443 193.759C316.133 193.739 316.665 193.472 317.038 192.961L317.948 193.92C317.691 194.308 317.336 194.617 316.884 194.845C316.432 195.07 315.926 195.19 315.369 195.207ZM314.999 189.709C314.644 189.72 314.358 189.848 314.142 190.095C313.93 190.341 313.8 190.688 313.751 191.136L316.243 191.061L316.239 190.919C316.219 190.522 316.102 190.22 315.889 190.011C315.676 189.798 315.379 189.698 314.999 189.709ZM320.594 188.213L320.673 188.987C321.134 188.373 321.767 188.054 322.573 188.03C323.284 188.009 323.819 188.201 324.179 188.608C324.538 189.015 324.735 189.634 324.768 190.464L324.898 194.797L323.107 194.851L322.978 190.561C322.967 190.181 322.876 189.909 322.705 189.745C322.535 189.576 322.257 189.497 321.873 189.509C321.369 189.524 320.997 189.75 320.758 190.188L320.9 194.917L319.109 194.971L318.908 188.264L320.594 188.213ZM325.881 191.362C325.849 190.316 326.058 189.476 326.506 188.843C326.959 188.209 327.592 187.879 328.406 187.855C329.059 187.835 329.605 188.063 330.046 188.538L329.943 185.116L331.741 185.062L332.026 194.583L330.408 194.632L330.3 193.921C329.871 194.493 329.305 194.789 328.602 194.81C327.813 194.834 327.169 194.543 326.671 193.937C326.177 193.328 325.914 192.469 325.881 191.362ZM327.676 191.438C327.695 192.066 327.819 192.544 328.048 192.872C328.277 193.2 328.6 193.358 329.017 193.346C329.571 193.329 329.955 193.084 330.168 192.61L330.088 189.963C329.851 189.503 329.458 189.281 328.908 189.298C328.045 189.324 327.634 190.037 327.676 191.438Z" fill="black"/>
<path d="M350.009 186.208L354.033 189.969L350.272 193.994" stroke="white" stroke-width="1.95297" stroke-miterlimit="10" stroke-linecap="round"/>
<path d="M340.997 11.0117L337.236 15.0459L333.203 11.2846" stroke="white" stroke-width="1.95297" stroke-miterlimit="10" stroke-linecap="round"/>
<path d="M101.661 171.919L369.416 162.613" stroke="black" stroke-width="0.732363" stroke-miterlimit="10"/>
<path d="M101.622 170.947L369.377 161.641" stroke="#232220" stroke-width="0.732363" stroke-miterlimit="10"/>
<path d="M122.308 92.932L103.564 93.5833C103.027 93.602 102.606 94.0532 102.625 94.591L103.377 116.259C103.396 116.797 103.847 117.218 104.385 117.199L123.128 116.548C123.666 116.529 124.087 116.078 124.068 115.54L123.315 93.872C123.296 93.3341 122.845 92.9133 122.308 92.932Z" fill="#4D4D4D"/>
<path d="M146.173 92.1029L127.43 92.7542C126.892 92.7729 126.471 93.2241 126.49 93.7619L127.243 115.43C127.261 115.968 127.712 116.389 128.25 116.37L146.993 115.719C147.531 115.7 147.952 115.249 147.933 114.711L147.18 93.0429C147.162 92.505 146.71 92.0842 146.173 92.1029Z" fill="#4D4D4D"/>
<path d="M170.019 91.2767L151.275 91.9281C150.738 91.9468 150.317 92.3979 150.336 92.9358L151.088 114.604C151.107 115.142 151.558 115.563 152.096 115.544L170.839 114.893C171.377 114.874 171.797 114.423 171.779 113.885L171.026 92.2167C171.007 91.6789 170.556 91.258 170.019 91.2767Z" fill="#4D4D4D"/>
<path d="M193.874 90.4476L175.131 91.099C174.593 91.1177 174.172 91.5688 174.191 92.1067L174.943 113.775C174.962 114.313 175.413 114.734 175.951 114.715L194.694 114.064C195.232 114.045 195.653 113.594 195.634 113.056L194.881 91.3876C194.862 90.8498 194.411 90.4289 193.874 90.4476Z" fill="#4D4D4D"/>
<path d="M217.739 89.6214L198.996 90.2728C198.458 90.2915 198.037 90.7427 198.056 91.2805L198.809 112.949C198.827 113.487 199.278 113.907 199.816 113.889L218.559 113.237C219.097 113.219 219.518 112.768 219.499 112.23L218.746 90.5614C218.728 90.0236 218.277 89.6027 217.739 89.6214Z" fill="#4D4D4D"/>
<path d="M241.585 88.7923L222.842 89.4437C222.304 89.4624 221.883 89.9135 221.902 90.4514L222.654 112.12C222.673 112.657 223.124 113.078 223.662 113.06L242.405 112.408C242.943 112.39 243.364 111.938 243.345 111.401L242.592 89.7323C242.574 89.1945 242.122 88.7736 241.585 88.7923Z" fill="#4D4D4D"/>
<path d="M265.45 87.9623L246.707 88.6136C246.169 88.6323 245.748 89.0835 245.767 89.6213L246.519 111.29C246.538 111.827 246.989 112.248 247.527 112.23L266.27 111.578C266.808 111.56 267.229 111.108 267.21 110.571L266.457 88.9023C266.439 88.3644 265.987 87.9436 265.45 87.9623Z" fill="#4D4D4D"/>
<path d="M289.295 87.1361L270.552 87.7875C270.014 87.8061 269.594 88.2573 269.612 88.7951L270.365 110.463C270.384 111.001 270.835 111.422 271.372 111.403L290.116 110.752C290.653 110.733 291.074 110.282 291.055 109.744L290.303 88.0761C290.284 87.5383 289.833 87.1174 289.295 87.1361Z" fill="#4D4D4D"/>
<path d="M313.16 86.308L294.417 86.9593C293.879 86.978 293.459 87.4292 293.477 87.967L294.23 109.635C294.249 110.173 294.7 110.594 295.237 110.575L313.981 109.924C314.518 109.905 314.939 109.454 314.92 108.916L314.168 87.248C314.149 86.7101 313.698 86.2893 313.16 86.308Z" fill="#4D4D4D"/>
<path d="M336.73 87.4393L317.976 88.002C317.438 88.0182 317.015 88.4675 317.031 89.0057L317.681 110.687C317.697 111.225 318.147 111.648 318.685 111.632L337.439 111.07C337.977 111.053 338.4 110.604 338.384 110.066L337.734 88.3845C337.718 87.8463 337.268 87.4231 336.73 87.4393Z" fill="#4D4D4D"/>
<path d="M360.861 84.6419L342.118 85.2933C341.58 85.312 341.159 85.7632 341.178 86.301L341.931 107.969C341.949 108.507 342.4 108.928 342.938 108.909L361.681 108.258C362.219 108.239 362.64 107.788 362.621 107.25L361.868 85.582C361.85 85.0441 361.399 84.6232 360.861 84.6419Z" fill="#4D4D4D"/>
<path d="M122.376 94.888L103.632 95.5394C103.095 95.5581 102.674 96.0093 102.693 96.5471L103.445 118.215C103.464 118.753 103.915 119.174 104.453 119.155L123.196 118.504C123.734 118.485 124.155 118.034 124.136 117.496L123.383 95.828C123.364 95.2902 122.913 94.8693 122.376 94.888Z" fill="#464646"/>
<path d="M146.241 94.0589L127.497 94.7103C126.96 94.729 126.539 95.1802 126.558 95.718L127.31 117.386C127.329 117.924 127.78 118.345 128.318 118.326L147.061 117.675C147.599 117.656 148.02 117.205 148.001 116.667L147.248 94.9989C147.229 94.4611 146.778 94.0402 146.241 94.0589Z" fill="#464646"/>
<path d="M169.673 94.407L150.919 94.9698C150.381 94.9859 149.957 95.4353 149.974 95.9735L150.624 117.655C150.64 118.193 151.089 118.616 151.627 118.6L170.382 118.037C170.92 118.021 171.343 117.572 171.327 117.034L170.677 95.3523C170.66 94.8141 170.211 94.3909 169.673 94.407Z" fill="#464646"/>
<path d="M193.557 93.6893L174.802 94.252C174.264 94.2682 173.841 94.7175 173.857 95.2557L174.507 116.937C174.524 117.475 174.973 117.898 175.511 117.882L194.265 117.319C194.803 117.303 195.227 116.854 195.21 116.316L194.56 94.6345C194.544 94.0963 194.095 93.6731 193.557 93.6893Z" fill="#464646"/>
<path d="M217.797 91.5736L199.054 92.225C198.516 92.2436 198.095 92.6948 198.114 93.2326L198.867 114.901C198.885 115.439 199.336 115.86 199.874 115.841L218.617 115.19C219.155 115.171 219.576 114.72 219.557 114.182L218.804 92.5136C218.786 91.9758 218.334 91.5549 217.797 91.5736Z" fill="#464646"/>
<path d="M241.652 90.7376L222.909 91.389C222.371 91.4077 221.951 91.8589 221.969 92.3967L222.722 114.065C222.741 114.603 223.192 115.024 223.729 115.005L242.473 114.354C243.01 114.335 243.431 113.884 243.412 113.346L242.66 91.6777C242.641 91.1398 242.19 90.719 241.652 90.7376Z" fill="#464646"/>
<path d="M265.517 89.9115L246.774 90.5628C246.236 90.5815 245.816 91.0327 245.834 91.5705L246.587 113.239C246.606 113.777 247.057 114.197 247.594 114.179L266.338 113.527C266.875 113.509 267.296 113.058 267.277 112.52L266.525 90.8515C266.506 90.3136 266.055 89.8928 265.517 89.9115Z" fill="#464646"/>
<path d="M289.042 90.8192L270.287 91.3819C269.749 91.398 269.326 91.8474 269.342 92.3856L269.993 114.067C270.009 114.605 270.458 115.028 270.996 115.012L289.75 114.449C290.289 114.433 290.712 113.984 290.695 113.446L290.045 91.7644C290.029 91.2262 289.58 90.803 289.042 90.8192Z" fill="#464646"/>
<path d="M312.925 90.0936L294.17 90.6563C293.632 90.6725 293.209 91.1218 293.225 91.66L293.876 113.341C293.892 113.879 294.341 114.303 294.879 114.287L313.634 113.724C314.172 113.708 314.595 113.258 314.579 112.72L313.928 91.0388C313.912 90.5006 313.463 90.0774 312.925 90.0936Z" fill="#464646"/>
<path d="M337.073 87.4144L318.33 88.0658C317.792 88.0845 317.372 88.5356 317.39 89.0735L318.143 110.742C318.162 111.28 318.613 111.7 319.151 111.682L337.894 111.03C338.432 111.012 338.852 110.561 338.834 110.023L338.081 88.3544C338.062 87.8166 337.611 87.3957 337.073 87.4144Z" fill="#464646"/>
<path d="M360.938 86.5882L342.195 87.2396C341.658 87.2583 341.237 87.7094 341.256 88.2473L342.008 109.916C342.027 110.453 342.478 110.874 343.016 110.856L361.759 110.204C362.297 110.186 362.717 109.734 362.699 109.197L361.946 87.5282C361.927 86.9904 361.476 86.5695 360.938 86.5882Z" fill="#464646"/>
<path d="M116.479 107.438C116.52 108.782 116.272 109.819 115.738 110.547C115.203 111.276 114.399 111.656 113.327 111.689C112.267 111.72 111.447 111.395 110.865 110.713C110.284 110.032 109.967 109.039 109.914 107.735L109.86 105.947C109.82 104.589 110.069 103.551 110.609 102.831C111.153 102.111 111.955 101.735 113.014 101.703C114.073 101.671 114.893 101.996 115.475 102.678C116.056 103.355 116.373 104.346 116.426 105.649L116.479 107.438ZM114.491 105.534C114.467 104.728 114.339 104.146 114.105 103.788C113.876 103.425 113.528 103.251 113.06 103.265C112.607 103.279 112.276 103.464 112.068 103.822C111.865 104.176 111.768 104.725 111.777 105.468L111.848 107.831C111.872 108.623 111.996 109.21 112.221 109.59C112.451 109.967 112.804 110.148 113.28 110.133C113.752 110.119 114.086 109.924 114.285 109.549C114.483 109.173 114.575 108.605 114.561 107.843L114.491 105.534Z" fill="white"/>
<path d="M139.091 110.666L137.162 110.724L136.939 103.287L134.657 104.071L134.61 102.502L138.592 100.94L138.799 100.933L139.091 110.666Z" fill="white"/>
<path d="M164.429 109.796L157.767 109.996L157.728 108.674L160.771 105.229C161.189 104.744 161.495 104.323 161.689 103.965C161.887 103.607 161.982 103.271 161.973 102.955C161.96 102.523 161.84 102.188 161.615 101.95C161.389 101.707 161.074 101.592 160.669 101.604C160.233 101.617 159.893 101.779 159.648 102.089C159.408 102.395 159.295 102.792 159.31 103.282L157.374 103.34C157.356 102.748 157.48 102.203 157.746 101.705C158.016 101.207 158.405 100.812 158.913 100.521C159.421 100.225 160.002 100.067 160.656 100.048C161.657 100.018 162.441 100.235 163.007 100.699C163.578 101.163 163.876 101.833 163.903 102.71C163.917 103.19 163.807 103.683 163.573 104.189C163.339 104.695 162.929 105.289 162.344 105.97L160.204 108.366L164.383 108.241L164.429 109.796Z" fill="white"/>
<path d="M183.905 103.375L184.933 103.344C185.423 103.33 185.782 103.196 186.01 102.945C186.239 102.693 186.347 102.364 186.335 101.959C186.323 101.568 186.196 101.267 185.953 101.056C185.716 100.844 185.392 100.745 184.982 100.757C184.613 100.768 184.307 100.88 184.064 101.092C183.821 101.3 183.704 101.566 183.714 101.891L181.784 101.949C181.769 101.442 181.891 100.984 182.151 100.575C182.415 100.162 182.788 99.8344 183.271 99.5927C183.758 99.351 184.297 99.2212 184.889 99.2034C185.917 99.1726 186.73 99.3954 187.328 99.8719C187.925 100.344 188.237 101.012 188.263 101.875C188.276 102.32 188.153 102.733 187.893 103.115C187.632 103.497 187.285 103.795 186.85 104.008C187.404 104.188 187.82 104.469 188.098 104.853C188.382 105.236 188.531 105.695 188.547 106.229C188.573 107.093 188.278 107.794 187.662 108.334C187.05 108.873 186.225 109.158 185.189 109.19C184.218 109.219 183.416 108.987 182.783 108.493C182.153 108 181.826 107.333 181.8 106.492L183.73 106.434C183.741 106.799 183.885 107.093 184.164 107.316C184.446 107.539 184.788 107.645 185.189 107.633C185.647 107.619 186.002 107.488 186.253 107.24C186.508 106.987 186.629 106.661 186.617 106.26C186.588 105.29 186.04 104.821 184.972 104.853L183.95 104.884L183.905 103.375Z" fill="white"/>
<path d="M211.074 104.511L212.175 104.478L212.222 106.034L211.121 106.067L211.184 108.169L209.255 108.227L209.192 106.124L205.206 106.244L205.083 105.032L208.943 98.5087L210.892 98.4502L211.074 104.511ZM206.995 104.634L209.145 104.569L209.042 101.138L208.922 101.362L206.995 104.634Z" fill="white"/>
<path d="M228.993 102.743L229.405 97.7864L234.852 97.623L234.9 99.2317L231.035 99.3477L230.858 101.444C231.309 101.186 231.792 101.049 232.309 101.033C233.234 101.005 233.968 101.271 234.511 101.829C235.053 102.387 235.34 103.183 235.37 104.215C235.389 104.843 235.273 105.41 235.021 105.916C234.773 106.418 234.406 106.814 233.92 107.105C233.435 107.391 232.856 107.544 232.184 107.565C231.596 107.582 231.048 107.481 230.538 107.26C230.028 107.035 229.619 106.711 229.313 106.288C229.01 105.865 228.842 105.378 228.808 104.826L230.717 104.769C230.769 105.173 230.919 105.485 231.166 105.704C231.417 105.919 231.739 106.021 232.13 106.009C232.567 105.996 232.898 105.83 233.124 105.512C233.351 105.189 233.455 104.74 233.438 104.166C233.422 103.614 233.273 103.196 232.993 102.91C232.713 102.625 232.323 102.489 231.825 102.504C231.367 102.518 230.999 102.649 230.721 102.898L230.539 103.077L228.993 102.743Z" fill="white"/>
<path d="M258.125 96.7061L258.172 98.2948L257.986 98.3004C257.114 98.3399 256.417 98.588 255.897 99.0446C255.38 99.501 255.08 100.122 254.997 100.909C255.498 100.368 256.142 100.086 256.929 100.063C257.775 100.037 258.456 100.32 258.973 100.91C259.489 101.5 259.762 102.289 259.792 103.277C259.811 103.909 259.69 104.485 259.429 105.005C259.173 105.525 258.798 105.935 258.304 106.235C257.814 106.535 257.253 106.694 256.621 106.713C255.598 106.744 254.759 106.412 254.106 105.719C253.457 105.026 253.115 104.085 253.079 102.897L253.058 102.203C253.027 101.148 253.197 100.212 253.569 99.395C253.945 98.5731 254.498 97.9307 255.228 97.4678C255.962 97.0004 256.821 96.7497 257.804 96.7157L258.125 96.7061ZM256.388 101.629C256.077 101.638 255.797 101.729 255.548 101.901C255.299 102.069 255.119 102.288 255.007 102.559L255.024 103.146C255.044 103.792 255.186 104.293 255.45 104.65C255.715 105.003 256.076 105.173 256.534 105.159C256.948 105.146 257.277 104.974 257.521 104.641C257.769 104.304 257.886 103.876 257.87 103.355C257.854 102.825 257.712 102.402 257.444 102.085C257.176 101.768 256.825 101.616 256.388 101.629Z" fill="white"/>
<path d="M283.882 96.9997L280.383 105.75L278.347 105.811L281.867 97.5412L277.034 97.6862L276.987 96.1242L283.849 95.9183L283.882 96.9997Z" fill="white"/>
<path d="M307.99 97.6621C308.004 98.1338 307.899 98.5557 307.674 98.9277C307.449 99.2997 307.133 99.6009 306.726 99.8314C307.204 100.044 307.587 100.347 307.875 100.739C308.163 101.127 308.315 101.59 308.331 102.128C308.357 102.992 308.084 103.684 307.512 104.204C306.939 104.72 306.148 104.993 305.138 105.024C304.127 105.054 303.319 104.826 302.712 104.341C302.105 103.856 301.789 103.184 301.763 102.325C301.747 101.787 301.871 101.313 302.135 100.905C302.398 100.496 302.761 100.173 303.221 99.9365C302.801 99.7309 302.467 99.4492 302.22 99.0913C301.978 98.7334 301.85 98.3185 301.836 97.8468C301.811 97.0191 302.067 96.3522 302.604 95.8461C303.141 95.3356 303.884 95.0661 304.831 95.0377C305.775 95.0094 306.53 95.2317 307.096 95.7046C307.667 96.173 307.965 96.8255 307.99 97.6621ZM306.391 102.046C306.379 101.623 306.246 101.289 305.994 101.043C305.741 100.796 305.408 100.679 304.994 100.692C304.585 100.704 304.262 100.841 304.025 101.102C303.787 101.358 303.675 101.7 303.688 102.127C303.7 102.541 303.83 102.871 304.078 103.118C304.326 103.364 304.664 103.481 305.091 103.468C305.509 103.456 305.833 103.323 306.061 103.072C306.294 102.82 306.404 102.478 306.391 102.046ZM306.064 97.8135C306.053 97.4352 305.943 97.1356 305.736 96.9147C305.529 96.6893 305.243 96.582 304.878 96.593C304.518 96.6038 304.241 96.7235 304.047 96.952C303.853 97.1805 303.763 97.4906 303.774 97.8822C303.786 98.2693 303.895 98.5778 304.103 98.8077C304.31 99.0375 304.596 99.147 304.961 99.136C305.326 99.1251 305.603 98.9987 305.792 98.757C305.985 98.5151 306.075 98.2006 306.064 97.8135Z" fill="white"/>
<path d="M329.638 100.158C329.15 100.667 328.57 100.932 327.898 100.952C327.039 100.978 326.343 100.705 325.809 100.133C325.275 99.5563 324.993 98.7674 324.963 97.7662C324.944 97.1298 325.064 96.5427 325.324 96.0048C325.588 95.4624 325.965 95.0369 326.455 94.7282C326.945 94.4151 327.501 94.2492 328.124 94.2305C328.765 94.2113 329.339 94.3544 329.847 94.6598C330.355 94.9653 330.756 95.4143 331.05 96.0067C331.344 96.5992 331.505 97.2826 331.532 98.0568L331.554 98.771C331.602 100.391 331.238 101.676 330.46 102.625C329.682 103.575 328.556 104.103 327.08 104.21L326.606 104.231L326.558 102.622L326.985 102.603C328.661 102.477 329.545 101.662 329.638 100.158ZM328.327 99.4624C328.639 99.4531 328.904 99.365 329.121 99.1981C329.343 99.0311 329.509 98.8324 329.618 98.6019L329.594 97.8076C329.574 97.1534 329.435 96.6498 329.175 96.2969C328.915 95.9439 328.575 95.7737 328.157 95.7862C327.77 95.7978 327.457 95.9854 327.219 96.3489C326.98 96.7079 326.869 97.1544 326.885 97.6885C326.9 98.218 327.034 98.6505 327.284 98.986C327.539 99.3168 327.887 99.4757 328.327 99.4624Z" fill="white"/>
<path d="M349.403 103.356L347.474 103.414L347.251 95.9779L344.97 96.7612L344.923 95.1926L348.905 93.63L349.112 93.6237L349.403 103.356ZM358.989 99.0465C359.029 100.39 358.782 101.427 358.247 102.155C357.712 102.884 356.908 103.265 355.836 103.297C354.777 103.329 353.956 103.004 353.375 102.322C352.793 101.64 352.476 100.647 352.423 99.3437L352.37 97.5547C352.329 96.1975 352.578 95.1588 353.118 94.4389C353.662 93.7188 354.464 93.3429 355.523 93.3111C356.582 93.2793 357.402 93.6044 357.984 94.2862C358.566 94.9636 358.883 95.954 358.935 97.2575L358.989 99.0465ZM357.001 97.1419C356.977 96.3364 356.848 95.7545 356.614 95.3963C356.385 95.0335 356.037 94.8591 355.57 94.8731C355.116 94.8867 354.785 95.0726 354.578 95.4307C354.374 95.7842 354.277 96.3328 354.286 97.0763L354.357 99.4393C354.381 100.231 354.505 100.818 354.731 101.199C354.96 101.575 355.313 101.756 355.789 101.741C356.261 101.727 356.596 101.532 356.794 101.157C356.992 100.781 357.084 100.213 357.07 99.4515L357.001 97.1419Z" fill="white"/>
<path d="M342.349 59.3663C342.333 58.8323 342.385 58.405 342.505 58.0845C342.626 57.764 342.853 57.4461 343.187 57.1306C343.525 56.8112 343.748 56.5545 343.857 56.3603C343.965 56.1623 344.016 55.9566 344.01 55.743C343.991 55.0983 343.683 54.7849 343.088 54.8028C342.806 54.8113 342.582 54.9058 342.415 55.0864C342.253 55.2631 342.172 55.5041 342.174 55.8095L340.514 55.8593C340.5 55.1305 340.718 54.5532 341.167 54.1274C341.62 53.7015 342.247 53.4765 343.048 53.4525C343.857 53.4282 344.49 53.6058 344.948 53.9853C345.406 54.361 345.646 54.9055 345.667 55.6188C345.677 55.943 345.613 56.2522 345.477 56.5465C345.341 56.8369 345.097 57.163 344.745 57.5248L344.295 57.9793C344.013 58.2664 343.857 58.5976 343.826 58.9726L343.814 59.3223L342.349 59.3663ZM342.236 61.1278C342.228 60.8722 342.308 60.6599 342.474 60.4907C342.645 60.3176 342.865 60.227 343.136 60.2188C343.407 60.2107 343.631 60.288 343.808 60.4507C343.988 60.6094 344.082 60.8166 344.09 61.0722C344.097 61.3239 344.018 61.5344 343.851 61.7035C343.688 61.8726 343.467 61.9613 343.189 61.9697C342.91 61.978 342.683 61.9028 342.506 61.7439C342.334 61.5849 342.243 61.3795 342.236 61.1278Z" fill="white"/>
<path d="M322.555 45.7532L104.365 53.3359C100.671 53.4643 97.7803 56.5616 97.9085 60.2539C98.0368 63.9462 101.136 66.8353 104.83 66.7069L323.019 59.1243C326.714 58.9959 329.604 55.8986 329.476 52.2063C329.348 48.514 326.249 45.6248 322.555 45.7532Z" fill="#4D4D4D"/>
<path d="M353.633 150.385L353.01 132.68L365.159 132.251L365.772 149.966L353.633 150.385ZM355.026 134.56L355.513 148.368L363.756 148.086L363.278 134.268L355.026 134.56Z" fill="white"/>
<path d="M337.285 150.815C336.469 150.855 335.671 150.57 335.064 150.022C334.458 149.474 334.094 148.708 334.051 147.892C334.031 147.382 334.141 146.875 334.372 146.42C333.966 146.266 333.598 146.027 333.291 145.72C332.984 145.413 332.746 145.044 332.592 144.638C332.438 144.232 332.372 143.798 332.399 143.364C332.425 142.93 332.543 142.507 332.745 142.123C332.46 141.997 332.197 141.826 331.966 141.616C331.654 141.346 331.401 141.015 331.223 140.643C331.046 140.27 330.947 139.865 330.933 139.453C330.912 138.967 331.006 138.483 331.206 138.04C330.804 137.903 330.433 137.687 330.115 137.407C329.798 137.139 329.543 136.806 329.365 136.431C329.186 136.057 329.09 135.648 329.082 135.234C329.072 134.818 329.144 134.404 329.294 134.017C329.445 133.629 329.671 133.275 329.959 132.975C330.247 132.675 330.591 132.435 330.973 132.269C331.354 132.103 331.764 132.015 332.18 132.008L341.484 131.687L340.802 129.309C340.81 127.52 341.14 125.748 341.777 124.076L341.952 123.482C342.098 122.998 342.364 122.56 342.727 122.208C343.089 121.856 343.535 121.603 344.022 121.471C344.51 121.339 345.023 121.334 345.513 121.456C346.003 121.577 346.454 121.822 346.823 122.166C347.114 122.426 347.349 122.74 347.517 123.091C347.684 123.443 347.779 123.824 347.797 124.213L347.905 127.136C349.347 130.332 352.113 134.669 353.965 134.669H354.013L354.081 136.617H353.974C350.145 136.617 346.706 129.241 346.044 127.75L345.966 127.584L345.849 124.242C345.849 123.984 345.746 123.736 345.564 123.553C345.381 123.37 345.133 123.268 344.875 123.268C344.656 123.259 344.441 123.325 344.264 123.454C344.088 123.583 343.959 123.768 343.9 123.979L343.725 124.564C343.185 126.005 342.895 127.527 342.868 129.066L344.202 133.489L332.365 133.899C332.048 133.893 331.742 134.013 331.512 134.232C331.282 134.451 331.148 134.751 331.138 135.068C331.139 135.224 331.174 135.377 331.239 135.518C331.305 135.66 331.4 135.785 331.518 135.887C331.651 136.002 331.805 136.09 331.973 136.145C332.14 136.2 332.316 136.221 332.492 136.208L334.187 136.15L334.255 138.099C333.916 138.104 333.591 138.24 333.349 138.479C333.245 138.583 333.162 138.708 333.107 138.845C333.052 138.983 333.025 139.13 333.028 139.278C333.029 139.433 333.064 139.587 333.129 139.728C333.195 139.869 333.29 139.995 333.408 140.096C333.663 140.319 333.995 140.434 334.333 140.418L335.649 140.369L335.717 142.318C335.555 142.311 335.394 142.337 335.243 142.395C335.092 142.453 334.955 142.542 334.84 142.656C334.725 142.77 334.635 142.906 334.576 143.057C334.517 143.207 334.489 143.368 334.495 143.53C334.501 143.692 334.541 143.85 334.611 143.996C334.682 144.141 334.782 144.271 334.905 144.376C335.028 144.481 335.171 144.559 335.326 144.606C335.481 144.652 335.644 144.666 335.804 144.647L337.285 144.598H337.178L337.246 146.547C337.085 146.54 336.924 146.566 336.772 146.623C336.621 146.679 336.482 146.765 336.364 146.876C336.246 146.987 336.151 147.12 336.085 147.267C336.019 147.415 335.984 147.574 335.98 147.736C335.994 147.895 336.04 148.05 336.117 148.19C336.193 148.33 336.298 148.453 336.424 148.551C336.551 148.649 336.696 148.72 336.85 148.759C337.005 148.798 337.167 148.805 337.324 148.778L350.73 148.32L353.887 146.683L354.783 148.418L351.237 150.25L337.392 150.727L337.285 150.815Z" fill="white"/>
<path d="M107.254 147.394L106.64 129.679L118.779 129.26L119.393 146.975L107.254 147.394ZM108.656 131.559L109.134 145.377L117.386 145.094L116.899 131.277L108.656 131.559Z" fill="white"/>
<path d="M127.654 158.239C126.902 158.247 126.177 157.964 125.628 157.45C125.335 157.193 125.097 156.879 124.93 156.527C124.762 156.176 124.668 155.793 124.654 155.404L124.546 152.48C123.105 149.284 120.338 144.958 118.477 144.958L118.409 143.009H118.516C122.345 143.009 125.784 150.376 126.446 151.867L126.514 152.042L126.631 155.375C126.636 155.506 126.666 155.634 126.722 155.753C126.777 155.872 126.855 155.979 126.953 156.066C127.047 156.154 127.157 156.223 127.277 156.268C127.398 156.313 127.526 156.334 127.654 156.33C127.873 156.338 128.088 156.272 128.265 156.143C128.441 156.014 128.57 155.829 128.629 155.618L128.804 155.034C129.339 153.595 129.629 152.076 129.661 150.541L128.327 146.108L140.154 145.698C140.318 145.713 140.483 145.693 140.638 145.64C140.794 145.586 140.936 145.5 141.056 145.387C141.175 145.274 141.269 145.137 141.332 144.985C141.395 144.832 141.424 144.669 141.418 144.504C141.413 144.34 141.372 144.179 141.3 144.031C141.227 143.883 141.124 143.753 140.997 143.648C140.87 143.544 140.722 143.468 140.563 143.424C140.405 143.381 140.238 143.373 140.076 143.399L138.371 143.457L138.313 141.508C138.65 141.494 138.969 141.355 139.209 141.118C139.317 141.016 139.402 140.891 139.459 140.754C139.516 140.616 139.544 140.468 139.54 140.319C139.536 140.164 139.5 140.012 139.435 139.871C139.369 139.73 139.276 139.604 139.16 139.501C138.888 139.275 138.54 139.16 138.186 139.179H136.871L136.803 137.23C136.968 137.245 137.134 137.224 137.29 137.169C137.447 137.114 137.589 137.026 137.709 136.912C137.829 136.798 137.924 136.659 137.986 136.505C138.048 136.352 138.077 136.187 138.071 136.021C138.065 135.856 138.023 135.693 137.95 135.545C137.876 135.396 137.771 135.265 137.643 135.16C137.515 135.056 137.366 134.979 137.206 134.936C137.046 134.893 136.878 134.885 136.715 134.911L135.224 134.96H135.166L135.098 133.011C135.277 133.016 135.456 132.985 135.623 132.92C135.791 132.854 135.943 132.756 136.072 132.631C136.176 132.526 136.259 132.402 136.314 132.264C136.369 132.127 136.396 131.98 136.393 131.832C136.378 131.673 136.33 131.519 136.254 131.379C136.177 131.239 136.072 131.116 135.947 131.018C135.821 130.919 135.676 130.847 135.522 130.807C135.368 130.766 135.207 130.756 135.049 130.78L121.643 131.247L118.487 132.875L117.59 131.15L121.137 129.308L134.981 128.831C135.395 128.794 135.813 128.84 136.208 128.968C136.604 129.097 136.97 129.303 137.284 129.576C137.598 129.849 137.853 130.183 138.035 130.557C138.217 130.931 138.321 131.339 138.342 131.754C138.365 132.266 138.258 132.776 138.03 133.235C138.435 133.389 138.802 133.628 139.108 133.934C139.414 134.241 139.651 134.609 139.804 135.015C139.957 135.42 140.022 135.853 139.995 136.286C139.968 136.718 139.85 137.14 139.647 137.523C139.93 137.655 140.192 137.825 140.427 138.03C140.739 138.301 140.993 138.634 141.17 139.008C141.348 139.382 141.447 139.789 141.459 140.203C141.48 140.688 141.387 141.172 141.187 141.615C141.783 141.811 142.305 142.183 142.685 142.683C143.064 143.182 143.282 143.785 143.311 144.412C143.32 144.828 143.247 145.241 143.096 145.628C142.945 146.015 142.719 146.369 142.431 146.668C142.143 146.968 141.799 147.208 141.418 147.374C141.038 147.54 140.628 147.63 140.212 147.638L130.908 147.959L131.581 150.337C131.593 152.126 131.279 153.902 130.655 155.579L130.48 156.164C130.307 156.755 129.953 157.277 129.467 157.655C128.98 158.033 128.387 158.248 127.771 158.269L127.654 158.239Z" fill="white"/>
<path d="M507.089 109.371L541.11 81.1709" stroke="#FD3A5C" stroke-width="4.88242" stroke-miterlimit="10" stroke-linecap="round"/>
<path d="M516.675 124.827L561.861 108.397" stroke="#FD3A5C" stroke-width="4.88242" stroke-miterlimit="10" stroke-linecap="round"/>
<path d="M148.357 308.936C140.363 308.637 132.814 305.177 127.367 299.316C121.92 293.456 119.021 285.673 119.305 277.676" stroke="#FFE700" stroke-width="2.92945" stroke-miterlimit="10" stroke-linecap="round"/>
<path d="M150.199 330.619C143.284 330.375 136.484 328.77 130.19 325.894C123.896 323.018 118.231 318.928 113.52 313.859C108.809 308.79 105.143 302.842 102.734 296.354C100.325 289.866 99.2185 282.966 99.4791 276.05" stroke="#FFE700" stroke-width="2.92945" stroke-miterlimit="10" stroke-linecap="round"/>
</svg>
