<svg width="84" height="105" viewBox="0 0 84 105" fill="none" xmlns="http://www.w3.org/2000/svg">
<path d="M70.3 32.3112L42 3L13.7 32.3112C-1.9 48.4687 -1.9 74.7245 13.7 90.8819C21.5 98.9606 31.75 103 42 103C52.25 103 62.5 98.9606 70.3 90.8819C85.9 74.7245 85.9 48.4687 70.3 32.3112Z" fill="#000405" fill-opacity="0.65"/>
<path d="M42.7194 2.30541L42 1.5603L41.2806 2.30541L12.9806 31.6167C-2.99353 48.1616 -2.99353 75.0316 12.9806 91.5765C20.9736 99.8552 31.4854 104 42 104C52.5146 104 63.0264 99.8552 71.0194 91.5765C86.9935 75.0316 86.9935 48.1616 71.0194 31.6167L42.7194 2.30541Z" stroke="#007AFF" stroke-opacity="0.75" stroke-width="2"/>
<path d="M42 92.6943C34 92.6943 26.45 89.4835 20.8 83.5798C15.1 77.6762 12 69.9081 12 61.6223C12 53.3364 15.1 45.5166 20.8 39.6647L42 17.6553V92.6943Z" fill="#007AFF" fill-opacity="0.75"/>
</svg>
