<svg width="688" height="690" viewBox="0 0 688 690" fill="none" xmlns="http://www.w3.org/2000/svg">
<rect x="486.241" y="486.63" width="201.76" height="202.765" fill="#F2F2F2"/>
<path d="M556.028 587.169L555.328 590.776H558.33V592.144H555.073L554.182 596.706H552.728L553.62 592.144H550.405L549.535 596.706H548.092L548.941 592.144H546.162V590.776H549.206L549.928 587.169H546.989V585.822H550.161L551.031 581.196H552.506L551.636 585.822H554.871L555.762 581.196H557.184L556.293 585.822H559.094V587.169H556.028ZM550.66 590.776H553.874L554.574 587.169H551.36L550.66 590.776ZM563.602 596.706H561.799V581.196H570.445V582.798H563.602V588.474H570.031V590.076H563.602V596.706ZM582.146 596.706H571.951V595.189L576.035 591.084C577.28 589.825 578.101 588.926 578.497 588.389C578.893 587.851 579.19 587.328 579.388 586.819C579.586 586.31 579.685 585.762 579.685 585.175C579.685 584.347 579.434 583.693 578.932 583.212C578.429 582.724 577.733 582.48 576.842 582.48C576.198 582.48 575.586 582.586 575.006 582.798C574.434 583.01 573.794 583.396 573.086 583.955L572.153 582.756C573.581 581.568 575.137 580.974 576.821 580.974C578.277 580.974 579.42 581.348 580.247 582.098C581.075 582.841 581.488 583.841 581.488 585.1C581.488 586.083 581.212 587.056 580.661 588.018C580.109 588.979 579.077 590.196 577.563 591.667L574.168 594.987V595.072H582.146V596.706ZM587.259 596.706H585.456V581.196H594.102V582.798H587.259V588.474H593.688V590.076H587.259V596.706ZM605.803 596.706H595.608V595.189L599.693 591.084C600.937 589.825 601.758 588.926 602.154 588.389C602.55 587.851 602.847 587.328 603.045 586.819C603.243 586.31 603.342 585.762 603.342 585.175C603.342 584.347 603.091 583.693 602.589 583.212C602.087 582.724 601.39 582.48 600.499 582.48C599.855 582.48 599.244 582.586 598.664 582.798C598.091 583.01 597.451 583.396 596.743 583.955L595.81 582.756C597.239 581.568 598.794 580.974 600.478 580.974C601.935 580.974 603.077 581.348 603.904 582.098C604.732 582.841 605.145 583.841 605.145 585.1C605.145 586.083 604.87 587.056 604.318 588.018C603.766 588.979 602.734 590.196 601.22 591.667L597.826 594.987V595.072H605.803V596.706ZM610.917 596.706H609.113V581.196H617.759V582.798H610.917V588.474H617.345V590.076H610.917V596.706ZM629.46 596.706H619.265V595.189L623.35 591.084C624.595 589.825 625.415 588.926 625.811 588.389C626.207 587.851 626.504 587.328 626.702 586.819C626.9 586.31 626.999 585.762 626.999 585.175C626.999 584.347 626.748 583.693 626.246 583.212C625.744 582.724 625.047 582.48 624.156 582.48C623.512 582.48 622.901 582.586 622.321 582.798C621.748 583.01 621.108 583.396 620.401 583.955L619.467 582.756C620.896 581.568 622.452 580.974 624.135 580.974C625.592 580.974 626.734 581.348 627.561 582.098C628.389 582.841 628.803 583.841 628.803 585.1C628.803 586.083 628.527 587.056 627.975 588.018C627.423 588.979 626.391 590.196 624.877 591.667L621.483 594.987V595.072H629.46V596.706Z" fill="black"/>
<rect x="244.129" y="486.63" width="201.76" height="202.765" fill="#D9D9D9"/>
<path d="M306.978 587.169L306.278 590.776H309.28V592.144H306.023L305.132 596.706H303.679L304.57 592.144H301.356L300.486 596.706H299.043L299.892 592.144H297.112V590.776H300.157L300.878 587.169H297.94V585.822H301.112L301.981 581.196H303.456L302.586 585.822H305.822L306.713 581.196H308.134L307.243 585.822H310.044V587.169H306.978ZM301.61 590.776H304.825L305.525 587.169H302.31L301.61 590.776ZM325.129 588.803C325.129 591.363 324.433 593.322 323.039 594.68C321.653 596.031 319.655 596.706 317.046 596.706H312.749V581.196H317.502C319.913 581.196 321.788 581.865 323.124 583.201C324.461 584.538 325.129 586.405 325.129 588.803ZM323.22 588.866C323.22 586.844 322.711 585.32 321.692 584.294C320.681 583.269 319.174 582.756 317.173 582.756H314.553V595.147H316.749C318.899 595.147 320.515 594.62 321.597 593.566C322.679 592.505 323.22 590.939 323.22 588.866ZM337.722 587.816C337.722 593.884 335.374 596.918 330.678 596.918C329.857 596.918 329.207 596.848 328.726 596.706V595.189C329.291 595.373 329.935 595.465 330.656 595.465C332.354 595.465 333.634 594.941 334.497 593.895C335.367 592.841 335.84 591.228 335.918 589.057H335.791C335.402 589.644 334.886 590.093 334.242 590.405C333.599 590.709 332.874 590.861 332.067 590.861C330.695 590.861 329.606 590.451 328.8 589.63C327.994 588.81 327.591 587.664 327.591 586.193C327.591 584.58 328.04 583.307 328.938 582.374C329.843 581.44 331.031 580.974 332.502 580.974C333.556 580.974 334.475 581.246 335.261 581.79C336.053 582.328 336.661 583.116 337.085 584.156C337.51 585.189 337.722 586.409 337.722 587.816ZM332.502 582.48C331.491 582.48 330.709 582.805 330.158 583.456C329.606 584.107 329.33 585.012 329.33 586.172C329.33 587.19 329.585 587.993 330.094 588.58C330.603 589.16 331.378 589.45 332.417 589.45C333.061 589.45 333.652 589.319 334.189 589.057C334.734 588.796 335.162 588.438 335.473 587.986C335.784 587.533 335.939 587.059 335.939 586.564C335.939 585.822 335.794 585.136 335.505 584.506C335.215 583.877 334.808 583.382 334.285 583.021C333.768 582.66 333.174 582.48 332.502 582.48ZM353.412 588.803C353.412 591.363 352.715 593.322 351.322 594.68C349.936 596.031 347.938 596.706 345.328 596.706H341.032V581.196H345.784C348.196 581.196 350.07 581.865 351.407 583.201C352.743 584.538 353.412 586.405 353.412 588.803ZM351.502 588.866C351.502 586.844 350.993 585.32 349.975 584.294C348.963 583.269 347.457 582.756 345.455 582.756H342.835V595.147H345.031C347.181 595.147 348.797 594.62 349.879 593.566C350.961 592.505 351.502 590.939 351.502 588.866ZM366.004 587.816C366.004 593.884 363.656 596.918 358.96 596.918C358.14 596.918 357.489 596.848 357.008 596.706V595.189C357.574 595.373 358.217 595.465 358.939 595.465C360.636 595.465 361.916 594.941 362.779 593.895C363.649 592.841 364.123 591.228 364.201 589.057H364.073C363.684 589.644 363.168 590.093 362.525 590.405C361.881 590.709 361.156 590.861 360.35 590.861C358.978 590.861 357.889 590.451 357.082 589.63C356.276 588.81 355.873 587.664 355.873 586.193C355.873 584.58 356.322 583.307 357.22 582.374C358.126 581.44 359.314 580.974 360.785 580.974C361.839 580.974 362.758 581.246 363.543 581.79C364.335 582.328 364.943 583.116 365.368 584.156C365.792 585.189 366.004 586.409 366.004 587.816ZM360.785 582.48C359.773 582.48 358.992 582.805 358.44 583.456C357.889 584.107 357.613 585.012 357.613 586.172C357.613 587.19 357.867 587.993 358.377 588.58C358.886 589.16 359.66 589.45 360.7 589.45C361.343 589.45 361.934 589.319 362.472 589.057C363.016 588.796 363.444 588.438 363.755 587.986C364.066 587.533 364.222 587.059 364.222 586.564C364.222 585.822 364.077 585.136 363.787 584.506C363.497 583.877 363.09 583.382 362.567 583.021C362.051 582.66 361.457 582.48 360.785 582.48ZM381.694 588.803C381.694 591.363 380.998 593.322 379.604 594.68C378.218 596.031 376.22 596.706 373.611 596.706H369.314V581.196H374.067C376.478 581.196 378.353 581.865 379.689 583.201C381.026 584.538 381.694 586.405 381.694 588.803ZM379.785 588.866C379.785 586.844 379.276 585.32 378.257 584.294C377.246 583.269 375.739 582.756 373.738 582.756H371.118V595.147H373.314C375.464 595.147 377.08 594.62 378.162 593.566C379.244 592.505 379.785 590.939 379.785 588.866ZM394.287 587.816C394.287 593.884 391.939 596.918 387.243 596.918C386.422 596.918 385.772 596.848 385.291 596.706V595.189C385.856 595.373 386.5 595.465 387.221 595.465C388.919 595.465 390.199 594.941 391.062 593.895C391.932 592.841 392.405 591.228 392.483 589.057H392.356C391.967 589.644 391.451 590.093 390.807 590.405C390.163 590.709 389.439 590.861 388.632 590.861C387.26 590.861 386.171 590.451 385.365 589.63C384.559 588.81 384.155 587.664 384.155 586.193C384.155 584.58 384.605 583.307 385.503 582.374C386.408 581.44 387.596 580.974 389.067 580.974C390.121 580.974 391.04 581.246 391.825 581.79C392.618 582.328 393.226 583.116 393.65 584.156C394.074 585.189 394.287 586.409 394.287 587.816ZM389.067 582.48C388.056 582.48 387.274 582.805 386.723 583.456C386.171 584.107 385.895 585.012 385.895 586.172C385.895 587.19 386.15 587.993 386.659 588.58C387.168 589.16 387.943 589.45 388.982 589.45C389.626 589.45 390.217 589.319 390.754 589.057C391.299 588.796 391.726 588.438 392.038 587.986C392.349 587.533 392.504 587.059 392.504 586.564C392.504 585.822 392.359 585.136 392.069 584.506C391.78 583.877 391.373 583.382 390.849 583.021C390.333 582.66 389.739 582.48 389.067 582.48Z" fill="black"/>
<rect y="486.63" width="201.76" height="202.764" fill="#4F4F4F"/>
<path d="M69.787 587.169L69.0868 590.776H72.089V592.144H68.8322L67.9411 596.706H66.4877L67.3788 592.144H64.1644L63.2945 596.706H61.8518L62.7005 592.144H59.921V590.776H62.9657L63.6871 587.169H60.7485V585.822H63.9204L64.7903 581.196H66.2649L65.395 585.822H68.6306L69.5218 581.196H70.9433L70.0522 585.822H72.8529V587.169H69.787ZM64.419 590.776H67.6334L68.3336 587.169H65.1192L64.419 590.776ZM85.4134 593.142H83.1114V596.706H81.4246V593.142H73.8819V591.603L81.2443 581.111H83.1114V591.54H85.4134V593.142ZM81.4246 591.54V586.384C81.4246 585.373 81.46 584.23 81.5307 582.957H81.4458C81.1063 583.636 80.7881 584.199 80.491 584.644L75.6429 591.54H81.4246ZM89.7948 596.706H87.9913V581.196H96.6373V582.798H89.7948V588.474H96.2236V590.076H89.7948V596.706ZM109.071 593.142H106.768V596.706H105.082V593.142H97.539V591.603L104.901 581.111H106.768V591.54H109.071V593.142ZM105.082 591.54V586.384C105.082 585.373 105.117 584.23 105.188 582.957H105.103C104.763 583.636 104.445 584.199 104.148 584.644L99.3001 591.54H105.082ZM113.452 596.706H111.648V581.196H120.294V582.798H113.452V588.474H119.881V590.076H113.452V596.706ZM132.728 593.142H130.426V596.706H128.739V593.142H121.196V591.603L128.559 581.111H130.426V591.54H132.728V593.142ZM128.739 591.54V586.384C128.739 585.373 128.774 584.23 128.845 582.957H128.76C128.421 583.636 128.102 584.199 127.805 584.644L122.957 591.54H128.739ZM137.109 596.706H135.306V581.196H143.952V582.798H137.109V588.474H143.538V590.076H137.109V596.706Z" fill="white"/>
<rect x="486.241" y="243.315" width="201.76" height="202.763" fill="#EE8A0A"/>
<path d="M553.238 343.856L552.537 347.463H555.54V348.832H552.283L551.392 353.394H549.938L550.829 348.832H547.615L546.745 353.394H545.302L546.151 348.832H543.372V347.463H546.416L547.138 343.856H544.199V342.509H547.371L548.241 337.884H549.716L548.846 342.509H552.081L552.972 337.884H554.394L553.503 342.509H556.303V343.856H553.238ZM547.87 347.463H551.084L551.784 343.856H548.57L547.87 347.463ZM567.655 353.394H559.009V337.884H567.655V339.486H560.812V344.482H567.241V346.074H560.812V351.781H567.655V353.394ZM579.748 353.394H571.102V337.884H579.748V339.486H572.906V344.482H579.335V346.074H572.906V351.781H579.748V353.394ZM587.259 337.661C588.674 337.661 589.795 337.99 590.622 338.648C591.45 339.305 591.863 340.214 591.863 341.374C591.863 342.138 591.626 342.834 591.153 343.464C590.679 344.093 589.922 344.666 588.882 345.183C590.141 345.784 591.036 346.417 591.566 347.081C592.097 347.739 592.362 348.503 592.362 349.373C592.362 350.66 591.913 351.689 591.015 352.46C590.117 353.224 588.886 353.606 587.323 353.606C585.668 353.606 584.395 353.245 583.504 352.524C582.613 351.795 582.167 350.766 582.167 349.437C582.167 347.661 583.249 346.279 585.413 345.289C584.437 344.737 583.737 344.143 583.313 343.506C582.889 342.863 582.676 342.145 582.676 341.353C582.676 340.228 583.09 339.334 583.918 338.669C584.752 337.997 585.866 337.661 587.259 337.661ZM583.907 349.479C583.907 350.328 584.2 350.989 584.787 351.463C585.382 351.937 586.213 352.174 587.28 352.174C588.334 352.174 589.155 351.926 589.742 351.431C590.329 350.936 590.622 350.257 590.622 349.394C590.622 348.708 590.346 348.1 589.795 347.569C589.243 347.032 588.281 346.512 586.909 346.01C585.855 346.463 585.092 346.965 584.618 347.516C584.144 348.061 583.907 348.715 583.907 349.479ZM587.238 339.093C586.354 339.093 585.661 339.305 585.159 339.73C584.657 340.154 584.406 340.72 584.406 341.427C584.406 342.078 584.614 342.636 585.031 343.103C585.449 343.57 586.22 344.037 587.344 344.504C588.355 344.079 589.07 343.623 589.487 343.135C589.911 342.647 590.124 342.078 590.124 341.427C590.124 340.713 589.865 340.147 589.349 339.73C588.84 339.305 588.136 339.093 587.238 339.093ZM605.379 353.394L603.448 348.461H597.231L595.322 353.394H593.497L599.629 337.82H601.146L607.246 353.394H605.379ZM602.886 346.837L601.082 342.032C600.849 341.424 600.608 340.677 600.361 339.793C600.205 340.472 599.983 341.218 599.693 342.032L597.868 346.837H602.886ZM618.586 345.617C618.586 348.298 618.162 350.299 617.313 351.622C616.472 352.944 615.181 353.606 613.441 353.606C611.772 353.606 610.503 352.93 609.633 351.579C608.763 350.222 608.328 348.234 608.328 345.617C608.328 342.916 608.749 340.911 609.59 339.602C610.432 338.294 611.716 337.64 613.441 337.64C615.124 337.64 616.401 338.322 617.271 339.687C618.148 341.052 618.586 343.029 618.586 345.617ZM610.11 345.617C610.11 347.874 610.375 349.518 610.906 350.55C611.436 351.576 612.281 352.089 613.441 352.089C614.615 352.089 615.464 351.569 615.987 350.529C616.518 349.483 616.783 347.845 616.783 345.617C616.783 343.39 616.518 341.759 615.987 340.727C615.464 339.687 614.615 339.167 613.441 339.167C612.281 339.167 611.436 339.68 610.906 340.706C610.375 341.724 610.11 343.361 610.11 345.617ZM631.561 353.394L629.63 348.461H623.413L621.504 353.394H619.679L625.811 337.82H627.328L633.428 353.394H631.561ZM629.068 346.837L627.264 342.032C627.031 341.424 626.79 340.677 626.543 339.793C626.387 340.472 626.164 341.218 625.875 342.032L624.05 346.837H629.068Z" fill="white"/>
<rect x="244.129" y="243.315" width="201.76" height="202.763" fill="#FFDB58"/>
<path d="M309.767 343.856L309.067 347.463H312.069V348.832H308.812L307.921 353.394H306.468L307.359 348.832H304.145L303.275 353.394H301.832L302.681 348.832H299.901V347.463H302.946L303.667 343.856H300.729V342.509H303.901L304.77 337.884H306.245L305.375 342.509H308.611L309.502 337.884H310.923L310.032 342.509H312.833V343.856H309.767ZM304.399 347.463H307.614L308.314 343.856H305.099L304.399 347.463ZM317.342 353.394H315.538V337.884H324.184V339.486H317.342V345.161H323.77V346.763H317.342V353.394ZM328.565 353.394H326.762V337.884H335.408V339.486H328.565V345.161H334.994V346.763H328.565V353.394ZM350.366 345.49C350.366 348.05 349.669 350.009 348.276 351.367C346.89 352.718 344.892 353.394 342.282 353.394H337.986V337.884H342.739C345.15 337.884 347.024 338.552 348.361 339.889C349.698 341.226 350.366 343.093 350.366 345.49ZM348.457 345.554C348.457 343.531 347.947 342.007 346.929 340.982C345.918 339.956 344.411 339.443 342.41 339.443H339.789V351.834H341.985C344.135 351.834 345.751 351.307 346.833 350.253C347.916 349.193 348.457 347.626 348.457 345.554ZM353.835 337.884H358.216C360.275 337.884 361.763 338.191 362.683 338.807C363.602 339.422 364.062 340.395 364.062 341.724C364.062 342.644 363.804 343.404 363.287 344.005C362.778 344.599 362.032 344.984 361.049 345.161V345.267C363.404 345.671 364.582 346.908 364.582 348.98C364.582 350.367 364.111 351.449 363.171 352.227C362.237 353.005 360.929 353.394 359.246 353.394H353.835V337.884ZM355.639 344.525H358.609C359.882 344.525 360.798 344.327 361.357 343.931C361.915 343.528 362.195 342.852 362.195 341.904C362.195 341.035 361.884 340.409 361.261 340.027C360.639 339.638 359.649 339.443 358.291 339.443H355.639V344.525ZM355.639 346.052V351.855H358.874C360.126 351.855 361.067 351.615 361.696 351.134C362.333 350.646 362.651 349.886 362.651 348.853C362.651 347.891 362.326 347.184 361.675 346.731C361.031 346.279 360.048 346.052 358.726 346.052H355.639ZM371.7 343.92C373.334 343.92 374.617 344.327 375.551 345.14C376.492 345.946 376.962 347.053 376.962 348.461C376.962 350.066 376.449 351.325 375.424 352.237C374.405 353.15 372.998 353.606 371.201 353.606C369.454 353.606 368.121 353.326 367.202 352.768V351.07C367.697 351.389 368.312 351.64 369.048 351.823C369.783 352 370.508 352.089 371.223 352.089C372.467 352.089 373.433 351.795 374.119 351.208C374.812 350.621 375.158 349.772 375.158 348.662C375.158 346.498 373.832 345.416 371.18 345.416C370.508 345.416 369.61 345.518 368.486 345.724L367.573 345.14L368.157 337.884H375.869V339.507H369.663L369.271 344.164C370.084 344.001 370.894 343.92 371.7 343.92ZM384.42 337.661C385.834 337.661 386.955 337.99 387.783 338.648C388.61 339.305 389.024 340.214 389.024 341.374C389.024 342.138 388.787 342.834 388.313 343.464C387.839 344.093 387.082 344.666 386.043 345.183C387.302 345.784 388.196 346.417 388.727 347.081C389.257 347.739 389.522 348.503 389.522 349.373C389.522 350.66 389.073 351.689 388.175 352.46C387.277 353.224 386.046 353.606 384.483 353.606C382.828 353.606 381.555 353.245 380.664 352.524C379.773 351.795 379.328 350.766 379.328 349.437C379.328 347.661 380.41 346.279 382.574 345.289C381.598 344.737 380.898 344.143 380.473 343.506C380.049 342.863 379.837 342.145 379.837 341.353C379.837 340.228 380.25 339.334 381.078 338.669C381.913 337.997 383.026 337.661 384.42 337.661ZM381.067 349.479C381.067 350.328 381.361 350.989 381.948 351.463C382.542 351.937 383.373 352.174 384.441 352.174C385.495 352.174 386.315 351.926 386.902 351.431C387.489 350.936 387.783 350.257 387.783 349.394C387.783 348.708 387.507 348.1 386.955 347.569C386.403 347.032 385.442 346.512 384.07 346.01C383.016 346.463 382.252 346.965 381.778 347.516C381.304 348.061 381.067 348.715 381.067 349.479ZM384.398 339.093C383.514 339.093 382.821 339.305 382.319 339.73C381.817 340.154 381.566 340.72 381.566 341.427C381.566 342.078 381.775 342.636 382.192 343.103C382.609 343.57 383.38 344.037 384.505 344.504C385.516 344.079 386.23 343.623 386.647 343.135C387.072 342.647 387.284 342.078 387.284 341.427C387.284 340.713 387.026 340.147 386.51 339.73C386 339.305 385.297 339.093 384.398 339.093Z" fill="black"/>
<rect y="243.316" width="201.76" height="202.764" fill="#56CCF2"/>
<path d="M67.3046 343.857L66.6044 347.464H69.6066V348.832H66.3498L65.4587 353.394H64.0053L64.8964 348.832H61.682L60.8121 353.394H59.3693L60.218 348.832H57.4386V347.464H60.4832L61.2046 343.857H58.2661V342.51H61.438L62.3079 337.884H63.7825L62.9126 342.51H66.1482L67.0393 337.884H68.4609L67.5698 342.51H70.3704V343.857H67.3046ZM61.9366 347.464H65.151L65.8512 343.857H62.6368L61.9366 347.464ZM76.8523 343.921C78.486 343.921 79.7696 344.327 80.7032 345.141C81.6438 345.947 82.1141 347.054 82.1141 348.461C82.1141 350.066 81.6014 351.325 80.5759 352.238C79.5575 353.15 78.1501 353.606 76.3537 353.606C74.6068 353.606 73.2737 353.327 72.3542 352.768V351.071C72.8493 351.389 73.4646 351.64 74.2001 351.824C74.9357 352.001 75.6606 352.089 76.3749 352.089C77.6196 352.089 78.585 351.796 79.271 351.209C79.9641 350.622 80.3107 349.773 80.3107 348.663C80.3107 346.498 78.9846 345.416 76.3325 345.416C75.6606 345.416 74.7624 345.519 73.6379 345.724L72.7255 345.141L73.309 337.884H81.0215V339.507H74.8154L74.4229 344.165C75.2362 344.002 76.046 343.921 76.8523 343.921ZM84.6178 346.764C84.6178 343.715 85.2083 341.438 86.3894 339.932C87.5776 338.418 89.3315 337.662 91.6513 337.662C92.4504 337.662 93.0799 337.729 93.5396 337.863V339.38C92.995 339.203 92.3726 339.115 91.6725 339.115C90.0105 339.115 88.741 339.635 87.864 340.674C86.987 341.707 86.5061 343.334 86.4212 345.554H86.5485C87.3265 344.338 88.5571 343.73 90.2403 343.73C91.6336 343.73 92.7298 344.15 93.529 344.992C94.3352 345.834 94.7383 346.976 94.7383 348.419C94.7383 350.031 94.2963 351.301 93.4123 352.227C92.5353 353.147 91.3471 353.606 89.8478 353.606C88.2424 353.606 86.9693 353.005 86.0287 351.803C85.0881 350.593 84.6178 348.914 84.6178 346.764ZM89.8266 352.11C90.8309 352.11 91.6088 351.796 92.1605 351.166C92.7192 350.53 92.9985 349.614 92.9985 348.419C92.9985 347.393 92.7404 346.587 92.2241 346C91.7078 345.413 90.9369 345.119 89.9114 345.119C89.2749 345.119 88.6915 345.25 88.161 345.512C87.6306 345.774 87.2063 346.134 86.888 346.594C86.5768 347.054 86.4212 347.531 86.4212 348.026C86.4212 348.755 86.5627 349.434 86.8456 350.063C87.1285 350.692 87.5281 351.191 88.0443 351.559C88.5677 351.927 89.1618 352.11 89.8266 352.11ZM104.583 339.274C102.879 339.274 101.531 339.843 100.541 340.982C99.5582 342.114 99.0667 343.666 99.0667 345.639C99.0667 347.669 99.5405 349.239 100.488 350.349C101.443 351.453 102.801 352.004 104.562 352.004C105.644 352.004 106.878 351.81 108.264 351.421V353.002C107.189 353.405 105.863 353.606 104.286 353.606C102.002 353.606 100.237 352.913 98.9924 351.527C97.7547 350.141 97.1359 348.171 97.1359 345.618C97.1359 344.02 97.4329 342.619 98.027 341.417C98.6282 340.215 99.491 339.288 100.616 338.638C101.747 337.987 103.077 337.662 104.604 337.662C106.231 337.662 107.653 337.959 108.869 338.553L108.105 340.101C106.931 339.55 105.757 339.274 104.583 339.274ZM118.289 339.274C116.585 339.274 115.238 339.843 114.248 340.982C113.264 342.114 112.773 343.666 112.773 345.639C112.773 347.669 113.247 349.239 114.194 350.349C115.149 351.453 116.507 352.004 118.268 352.004C119.35 352.004 120.584 351.81 121.971 351.421V353.002C120.896 353.405 119.569 353.606 117.992 353.606C115.708 353.606 113.943 352.913 112.699 351.527C111.461 350.141 110.842 348.171 110.842 345.618C110.842 344.02 111.139 342.619 111.733 341.417C112.334 340.215 113.197 339.288 114.322 338.638C115.453 337.987 116.783 337.662 118.311 337.662C119.937 337.662 121.359 337.959 122.575 338.553L121.811 340.101C120.637 339.55 119.463 339.274 118.289 339.274ZM127.158 353.394H125.355V337.884H134.001V339.486H127.158V345.162H133.587V346.764H127.158V353.394ZM145.702 353.394H135.507V351.877L139.591 347.771C140.836 346.513 141.657 345.614 142.053 345.077C142.449 344.539 142.746 344.016 142.944 343.507C143.142 342.998 143.241 342.45 143.241 341.863C143.241 341.035 142.99 340.381 142.488 339.9C141.985 339.412 141.289 339.168 140.398 339.168C139.754 339.168 139.142 339.274 138.562 339.486C137.99 339.698 137.349 340.084 136.642 340.643L135.709 339.444C137.137 338.256 138.693 337.662 140.376 337.662C141.833 337.662 142.976 338.036 143.803 338.786C144.631 339.529 145.044 340.529 145.044 341.788C145.044 342.771 144.768 343.744 144.217 344.706C143.665 345.667 142.633 346.884 141.119 348.355L137.724 351.675V351.76H145.702V353.394Z" fill="white"/>
<rect x="486.241" width="201.76" height="202.762" fill="#DA5C26"/>
<path d="M550.203 100.54L549.502 104.147H552.505V105.515H549.248L548.357 110.077H546.903L547.794 105.515H544.58L543.71 110.077H542.267L543.116 105.515H540.337V104.147H543.381L544.103 100.54H541.164V99.1927H544.336L545.206 94.5674H546.681L545.811 99.1927H549.046L549.937 94.5674H551.359L550.468 99.1927H553.268V100.54H550.203ZM544.835 104.147H548.049L548.749 100.54H545.535L544.835 104.147ZM568.354 102.174C568.354 104.734 567.657 106.693 566.264 108.051C564.878 109.402 562.88 110.077 560.27 110.077H555.974V94.5674H560.726C563.138 94.5674 565.012 95.2357 566.349 96.5724C567.686 97.9091 568.354 99.7762 568.354 102.174ZM566.444 102.237C566.444 100.215 565.935 98.6906 564.917 97.6651C563.905 96.6396 562.399 96.1269 560.397 96.1269H557.777V108.518H559.973C562.123 108.518 563.739 107.991 564.821 106.937C565.903 105.876 566.444 104.31 566.444 102.237ZM581.572 110.077L579.641 105.144H573.425L571.515 110.077H569.691L575.822 94.5038H577.339L583.439 110.077H581.572ZM579.079 103.521L577.276 98.7154C577.042 98.1071 576.802 97.361 576.554 96.4769C576.399 97.1559 576.176 97.902 575.886 98.7154L574.061 103.521H579.079ZM589.348 100.604C590.982 100.604 592.266 101.01 593.199 101.824C594.14 102.63 594.61 103.737 594.61 105.144C594.61 106.75 594.097 108.008 593.072 108.921C592.053 109.833 590.646 110.289 588.85 110.289C587.103 110.289 585.77 110.01 584.85 109.451V107.754C585.345 108.072 585.961 108.323 586.696 108.507C587.432 108.684 588.157 108.772 588.871 108.772C590.116 108.772 591.081 108.479 591.767 107.892C592.46 107.305 592.807 106.456 592.807 105.346C592.807 103.182 591.481 102.099 588.828 102.099C588.157 102.099 587.258 102.202 586.134 102.407L585.222 101.824L585.805 94.5674H593.517V96.1905H587.311L586.919 100.848C587.732 100.685 588.542 100.604 589.348 100.604ZM604.646 95.9571C602.941 95.9571 601.594 96.5265 600.604 97.6651C599.621 98.7967 599.129 100.349 599.129 102.322C599.129 104.352 599.603 105.922 600.551 107.032C601.506 108.136 602.864 108.687 604.625 108.687C605.707 108.687 606.941 108.493 608.327 108.104V109.685C607.252 110.088 605.926 110.289 604.349 110.289C602.064 110.289 600.3 109.596 599.055 108.21C597.817 106.824 597.199 104.854 597.199 102.301C597.199 100.703 597.496 99.3024 598.09 98.1001C598.691 96.8978 599.554 95.9713 600.678 95.3206C601.81 94.67 603.139 94.3446 604.667 94.3446C606.294 94.3446 607.715 94.6417 608.932 95.2357L608.168 96.7846C606.994 96.233 605.82 95.9571 604.646 95.9571ZM620.835 110.077H610.64V108.56L614.724 104.455C615.969 103.196 616.789 102.298 617.185 101.76C617.581 101.223 617.878 100.699 618.076 100.19C618.274 99.6807 618.373 99.1326 618.373 98.5456C618.373 97.7182 618.122 97.064 617.62 96.583C617.118 96.095 616.421 95.851 615.53 95.851C614.887 95.851 614.275 95.9571 613.695 96.1693C613.122 96.3815 612.482 96.7669 611.775 97.3256L610.841 96.1269C612.27 94.9387 613.826 94.3446 615.509 94.3446C616.966 94.3446 618.108 94.7195 618.936 95.4691C619.763 96.2117 620.177 97.2125 620.177 98.4714C620.177 99.4544 619.901 100.427 619.349 101.389C618.798 102.351 617.765 103.567 616.252 105.038L612.857 108.359V108.443H620.835V110.077ZM623.253 103.447C623.253 100.399 623.844 98.1213 625.025 96.6149C626.213 95.1014 627.967 94.3446 630.287 94.3446C631.086 94.3446 631.715 94.4118 632.175 94.5462V96.0632C631.631 95.8864 631.008 95.798 630.308 95.798C628.646 95.798 627.376 96.3178 626.499 97.3575C625.623 98.39 625.142 100.017 625.057 102.237H625.184C625.962 101.021 627.193 100.413 628.876 100.413C630.269 100.413 631.365 100.834 632.164 101.675C632.971 102.517 633.374 103.659 633.374 105.102C633.374 106.714 632.932 107.984 632.048 108.91C631.171 109.83 629.983 110.289 628.483 110.289C626.878 110.289 625.605 109.688 624.664 108.486C623.724 107.276 623.253 105.597 623.253 103.447ZM628.462 108.794C629.466 108.794 630.244 108.479 630.796 107.849C631.355 107.213 631.634 106.297 631.634 105.102C631.634 104.076 631.376 103.27 630.86 102.683C630.343 102.096 629.572 101.802 628.547 101.802C627.91 101.802 627.327 101.933 626.797 102.195C626.266 102.457 625.842 102.817 625.523 103.277C625.212 103.737 625.057 104.214 625.057 104.709C625.057 105.438 625.198 106.117 625.481 106.746C625.764 107.375 626.164 107.874 626.68 108.242C627.203 108.61 627.797 108.794 628.462 108.794Z" fill="white"/>
<rect x="244.129" width="201.76" height="202.762" fill="#333333"/>
<path d="M311.093 100.54L310.393 104.147H313.395V105.515H310.138L309.247 110.077H307.794L308.685 105.515H305.471L304.601 110.077H303.158L304.007 105.515H301.227V104.147H304.272L304.993 100.54H302.055V99.1927H305.227L306.097 94.5674H307.571L306.701 99.1927H309.937L310.828 94.5674H312.25L311.358 99.1927H314.159V100.54H311.093ZM305.725 104.147H308.94L309.64 100.54H306.425L305.725 104.147ZM325.404 98.2168C325.404 99.2069 325.125 100.017 324.566 100.646C324.014 101.276 323.229 101.696 322.211 101.909V101.993C323.456 102.149 324.379 102.545 324.98 103.182C325.581 103.818 325.882 104.653 325.882 105.685C325.882 107.163 325.369 108.302 324.343 109.101C323.318 109.893 321.861 110.289 319.973 110.289C319.152 110.289 318.399 110.226 317.713 110.098C317.034 109.978 316.373 109.762 315.729 109.451V107.775C316.401 108.107 317.115 108.362 317.872 108.539C318.636 108.709 319.357 108.794 320.036 108.794C322.717 108.794 324.057 107.743 324.057 105.643C324.057 103.762 322.579 102.821 319.622 102.821H318.095V101.304H319.644C320.853 101.304 321.811 101.039 322.519 100.508C323.226 99.9707 323.579 99.2281 323.579 98.2804C323.579 97.5237 323.318 96.9296 322.794 96.4982C322.278 96.0668 321.574 95.851 320.683 95.851C320.004 95.851 319.364 95.943 318.763 96.1269C318.162 96.3107 317.476 96.6502 316.705 97.1453L315.814 95.9571C316.451 95.455 317.183 95.0625 318.01 94.7796C318.845 94.4896 319.722 94.3446 320.641 94.3446C322.147 94.3446 323.318 94.6912 324.152 95.3843C324.987 96.0703 325.404 97.0145 325.404 98.2168ZM337.837 98.2168C337.837 99.2069 337.558 100.017 336.999 100.646C336.448 101.276 335.663 101.696 334.644 101.909V101.993C335.889 102.149 336.812 102.545 337.413 103.182C338.014 103.818 338.315 104.653 338.315 105.685C338.315 107.163 337.802 108.302 336.777 109.101C335.751 109.893 334.294 110.289 332.406 110.289C331.585 110.289 330.832 110.226 330.146 110.098C329.467 109.978 328.806 109.762 328.162 109.451V107.775C328.834 108.107 329.549 108.362 330.305 108.539C331.069 108.709 331.791 108.794 332.469 108.794C335.15 108.794 336.49 107.743 336.49 105.643C336.49 103.762 335.012 102.821 332.056 102.821H330.528V101.304H332.077C333.286 101.304 334.245 101.039 334.952 100.508C335.659 99.9707 336.013 99.2281 336.013 98.2804C336.013 97.5237 335.751 96.9296 335.228 96.4982C334.711 96.0668 334.008 95.851 333.117 95.851C332.438 95.851 331.798 95.943 331.196 96.1269C330.595 96.3107 329.909 96.6502 329.138 97.1453L328.247 95.9571C328.884 95.455 329.616 95.0625 330.443 94.7796C331.278 94.4896 332.155 94.3446 333.074 94.3446C334.581 94.3446 335.751 94.6912 336.586 95.3843C337.42 96.0703 337.837 97.0145 337.837 98.2168ZM350.271 98.2168C350.271 99.2069 349.991 100.017 349.433 100.646C348.881 101.276 348.096 101.696 347.078 101.909V101.993C348.322 102.149 349.245 102.545 349.846 103.182C350.447 103.818 350.748 104.653 350.748 105.685C350.748 107.163 350.235 108.302 349.21 109.101C348.184 109.893 346.727 110.289 344.839 110.289C344.019 110.289 343.265 110.226 342.579 110.098C341.901 109.978 341.239 109.762 340.596 109.451V107.775C341.268 108.107 341.982 108.362 342.739 108.539C343.502 108.709 344.224 108.794 344.903 108.794C347.583 108.794 348.923 107.743 348.923 105.643C348.923 103.762 347.445 102.821 344.489 102.821H342.961V101.304H344.51C345.72 101.304 346.678 101.039 347.385 100.508C348.092 99.9707 348.446 99.2281 348.446 98.2804C348.446 97.5237 348.184 96.9296 347.661 96.4982C347.145 96.0668 346.441 95.851 345.55 95.851C344.871 95.851 344.231 95.943 343.63 96.1269C343.029 96.3107 342.343 96.6502 341.572 97.1453L340.681 95.9571C341.317 95.455 342.049 95.0625 342.877 94.7796C343.711 94.4896 344.588 94.3446 345.507 94.3446C347.014 94.3446 348.184 94.6912 349.019 95.3843C349.853 96.0703 350.271 97.0145 350.271 98.2168ZM362.704 98.2168C362.704 99.2069 362.425 100.017 361.866 100.646C361.314 101.276 360.529 101.696 359.511 101.909V101.993C360.755 102.149 361.678 102.545 362.28 103.182C362.881 103.818 363.181 104.653 363.181 105.685C363.181 107.163 362.669 108.302 361.643 109.101C360.618 109.893 359.161 110.289 357.272 110.289C356.452 110.289 355.699 110.226 355.013 110.098C354.334 109.978 353.673 109.762 353.029 109.451V107.775C353.701 108.107 354.415 108.362 355.172 108.539C355.936 108.709 356.657 108.794 357.336 108.794C360.016 108.794 361.357 107.743 361.357 105.643C361.357 103.762 359.879 102.821 356.922 102.821H355.395V101.304H356.943C358.153 101.304 359.111 101.039 359.818 100.508C360.526 99.9707 360.879 99.2281 360.879 98.2804C360.879 97.5237 360.618 96.9296 360.094 96.4982C359.578 96.0668 358.874 95.851 357.983 95.851C357.304 95.851 356.664 95.943 356.063 96.1269C355.462 96.3107 354.776 96.6502 354.005 97.1453L353.114 95.9571C353.75 95.455 354.482 95.0625 355.31 94.7796C356.144 94.4896 357.021 94.3446 357.941 94.3446C359.447 94.3446 360.618 94.6912 361.452 95.3843C362.287 96.0703 362.704 97.0145 362.704 98.2168ZM375.137 98.2168C375.137 99.2069 374.858 100.017 374.299 100.646C373.747 101.276 372.962 101.696 371.944 101.909V101.993C373.189 102.149 374.112 102.545 374.713 103.182C375.314 103.818 375.615 104.653 375.615 105.685C375.615 107.163 375.102 108.302 374.076 109.101C373.051 109.893 371.594 110.289 369.706 110.289C368.885 110.289 368.132 110.226 367.446 110.098C366.767 109.978 366.106 109.762 365.462 109.451V107.775C366.134 108.107 366.848 108.362 367.605 108.539C368.369 108.709 369.09 108.794 369.769 108.794C372.45 108.794 373.79 107.743 373.79 105.643C373.79 103.762 372.312 102.821 369.356 102.821H367.828V101.304H369.377C370.586 101.304 371.544 101.039 372.252 100.508C372.959 99.9707 373.313 99.2281 373.313 98.2804C373.313 97.5237 373.051 96.9296 372.527 96.4982C372.011 96.0668 371.307 95.851 370.416 95.851C369.737 95.851 369.097 95.943 368.496 96.1269C367.895 96.3107 367.209 96.6502 366.438 97.1453L365.547 95.9571C366.184 95.455 366.916 95.0625 367.743 94.7796C368.578 94.4896 369.455 94.3446 370.374 94.3446C371.88 94.3446 373.051 94.6912 373.885 95.3843C374.72 96.0703 375.137 97.0145 375.137 98.2168ZM387.57 98.2168C387.57 99.2069 387.291 100.017 386.732 100.646C386.181 101.276 385.396 101.696 384.377 101.909V101.993C385.622 102.149 386.545 102.545 387.146 103.182C387.747 103.818 388.048 104.653 388.048 105.685C388.048 107.163 387.535 108.302 386.51 109.101C385.484 109.893 384.027 110.289 382.139 110.289C381.318 110.289 380.565 110.226 379.879 110.098C379.2 109.978 378.539 109.762 377.895 109.451V107.775C378.567 108.107 379.282 108.362 380.038 108.539C380.802 108.709 381.524 108.794 382.203 108.794C384.883 108.794 386.223 107.743 386.223 105.643C386.223 103.762 384.745 102.821 381.789 102.821H380.261V101.304H381.81C383.019 101.304 383.978 101.039 384.685 100.508C385.392 99.9707 385.746 99.2281 385.746 98.2804C385.746 97.5237 385.484 96.9296 384.961 96.4982C384.444 96.0668 383.741 95.851 382.85 95.851C382.171 95.851 381.531 95.943 380.929 96.1269C380.328 96.3107 379.642 96.6502 378.871 97.1453L377.98 95.9571C378.617 95.455 379.349 95.0625 380.176 94.7796C381.011 94.4896 381.888 94.3446 382.807 94.3446C384.314 94.3446 385.484 94.6912 386.319 95.3843C387.153 96.0703 387.57 97.0145 387.57 98.2168Z" fill="white"/>
<rect width="201.76" height="202.762" fill="#077294"/>
<path d="M66.9641 100.54L66.2639 104.147H69.2662V105.515H66.0093L65.1182 110.077H63.6648L64.556 105.515H61.3416L60.4717 110.077H59.0289L59.8776 105.515H57.0981V104.147H60.1428L60.8642 100.54H57.9256V99.1927H61.0976L61.9675 94.5674H63.4421L62.5722 99.1927H65.8078L66.6989 94.5674H68.1204L67.2293 99.1927H70.03V100.54H66.9641ZM61.5962 104.147H64.8106L65.5107 100.54H62.2963L61.5962 104.147ZM81.9434 102.301C81.9434 104.981 81.5191 106.983 80.6704 108.306C79.8288 109.628 78.5381 110.289 76.7983 110.289C75.1292 110.289 73.8597 109.614 72.9898 108.263C72.1199 106.905 71.6849 104.918 71.6849 102.301C71.6849 99.5994 72.1057 97.5944 72.9473 96.286C73.789 94.9776 75.0726 94.3234 76.7983 94.3234C78.4815 94.3234 79.7581 95.0059 80.628 96.3709C81.5049 97.7358 81.9434 99.7126 81.9434 102.301ZM73.4672 102.301C73.4672 104.557 73.7324 106.201 74.2628 107.234C74.7932 108.26 75.6384 108.772 76.7983 108.772C77.9723 108.772 78.821 108.252 79.3443 107.213C79.8748 106.166 80.14 104.529 80.14 102.301C80.14 100.073 79.8748 98.4431 79.3443 97.4105C78.821 96.3709 77.9723 95.851 76.7983 95.851C75.6384 95.851 74.7932 96.3638 74.2628 97.3893C73.7324 98.4077 73.4672 100.045 73.4672 102.301ZM86.0596 110.077L92.4884 96.1905H84.0333V94.5674H94.3555V95.9783L88.0115 110.077H86.0596ZM98.4928 110.077L104.922 96.1905H96.4666V94.5674H106.789V95.9783L100.445 110.077H98.4928ZM119.158 110.077H108.963V108.56L113.048 104.455C114.293 103.196 115.113 102.298 115.509 101.76C115.905 101.223 116.202 100.699 116.4 100.19C116.598 99.6807 116.697 99.1326 116.697 98.5456C116.697 97.7182 116.446 97.064 115.944 96.583C115.442 96.095 114.745 95.851 113.854 95.851C113.21 95.851 112.599 95.9571 112.019 96.1693C111.446 96.3815 110.806 96.7669 110.099 97.3256L109.165 96.1269C110.594 94.9387 112.15 94.3446 113.833 94.3446C115.29 94.3446 116.432 94.7195 117.259 95.4691C118.087 96.2117 118.501 97.2125 118.501 98.4714C118.501 99.4544 118.225 100.427 117.673 101.389C117.121 102.351 116.089 103.567 114.575 105.038L111.181 108.359V108.443H119.158V110.077ZM131.592 101.187C131.592 107.255 129.244 110.289 124.547 110.289C123.727 110.289 123.076 110.219 122.596 110.077V108.56C123.161 108.744 123.805 108.836 124.526 108.836C126.224 108.836 127.504 108.313 128.367 107.266C129.236 106.212 129.71 104.6 129.788 102.428H129.661C129.272 103.015 128.756 103.464 128.112 103.776C127.468 104.08 126.743 104.232 125.937 104.232C124.565 104.232 123.476 103.822 122.67 103.001C121.864 102.181 121.46 101.035 121.46 99.564C121.46 97.9515 121.909 96.6785 122.808 95.745C123.713 94.8114 124.901 94.3446 126.372 94.3446C127.426 94.3446 128.345 94.6169 129.13 95.1615C129.922 95.699 130.531 96.4876 130.955 97.5272C131.379 98.5598 131.592 99.7798 131.592 101.187ZM126.372 95.851C125.361 95.851 124.579 96.1764 124.028 96.827C123.476 97.4777 123.2 98.383 123.2 99.5428C123.2 100.561 123.455 101.364 123.964 101.951C124.473 102.531 125.248 102.821 126.287 102.821C126.931 102.821 127.521 102.69 128.059 102.428C128.603 102.167 129.031 101.81 129.343 101.357C129.654 100.904 129.809 100.43 129.809 99.9353C129.809 99.1927 129.664 98.5067 129.374 97.8773C129.084 97.2478 128.678 96.7528 128.154 96.3921C127.638 96.0314 127.044 95.851 126.372 95.851ZM144.757 106.513H142.455V110.077H140.768V106.513H133.225V104.974L140.588 94.4825H142.455V104.911H144.757V106.513ZM140.768 104.911V99.755C140.768 98.7436 140.803 97.6015 140.874 96.3284H140.789C140.45 97.0074 140.131 97.5696 139.834 98.0152L134.986 104.911H140.768Z" fill="white"/>
</svg>
