<svg width="934" height="497" viewBox="0 0 934 497" fill="none" xmlns="http://www.w3.org/2000/svg">
<ellipse cx="688.604" cy="388.262" rx="17.1471" ry="17.0837" fill="#109619"/>
<path d="M727.76 391.813H721.803L720.465 395.524H718.531L723.961 381.305H725.601L731.041 395.524H729.117L727.76 391.813ZM722.369 390.27H727.203L724.781 383.62L722.369 390.27ZM734.635 395.524H732.828V380.524H734.635V395.524ZM739.498 395.524H737.691V380.524H739.498V395.524ZM746.881 390.143C746.881 389.108 747.082 388.177 747.486 387.35C747.896 386.523 748.463 385.885 749.185 385.436C749.915 384.987 750.745 384.762 751.676 384.762C753.114 384.762 754.277 385.26 755.162 386.256C756.054 387.252 756.5 388.577 756.5 390.231V390.358C756.5 391.387 756.301 392.311 755.904 393.131C755.513 393.945 754.95 394.58 754.215 395.036C753.485 395.491 752.646 395.719 751.695 395.719C750.263 395.719 749.101 395.221 748.209 394.225C747.323 393.229 746.881 391.911 746.881 390.27V390.143ZM748.697 390.358C748.697 391.53 748.967 392.471 749.508 393.18C750.055 393.89 750.784 394.245 751.695 394.245C752.613 394.245 753.342 393.887 753.883 393.17C754.423 392.448 754.693 391.439 754.693 390.143C754.693 388.984 754.416 388.047 753.863 387.331C753.316 386.608 752.587 386.247 751.676 386.247C750.784 386.247 750.064 386.601 749.517 387.311C748.971 388.021 748.697 389.036 748.697 390.358ZM759.654 395.524V386.354H757.984V384.958H759.654V383.874C759.654 382.741 759.957 381.865 760.562 381.247C761.168 380.628 762.024 380.319 763.131 380.319C763.547 380.319 763.961 380.374 764.371 380.485L764.273 381.95C763.967 381.891 763.642 381.862 763.297 381.862C762.711 381.862 762.258 382.034 761.939 382.379C761.62 382.718 761.461 383.206 761.461 383.844V384.958H763.717V386.354H761.461V395.524H759.654ZM773.131 382.399V384.958H775.103V386.354H773.131V392.907C773.131 393.33 773.219 393.649 773.394 393.864C773.57 394.072 773.87 394.176 774.293 394.176C774.501 394.176 774.788 394.137 775.152 394.059V395.524C774.677 395.654 774.215 395.719 773.765 395.719C772.958 395.719 772.349 395.475 771.939 394.987C771.529 394.499 771.324 393.805 771.324 392.907V386.354H769.4V384.958H771.324V382.399H773.131ZM779.029 386.237C779.83 385.254 780.872 384.762 782.154 384.762C784.387 384.762 785.513 386.022 785.533 388.542V395.524H783.726V388.532C783.72 387.77 783.544 387.207 783.199 386.842C782.86 386.478 782.33 386.295 781.607 386.295C781.021 386.295 780.507 386.452 780.064 386.764C779.622 387.077 779.277 387.487 779.029 387.995V395.524H777.222V380.524H779.029V386.237ZM792.623 395.719C791.191 395.719 790.025 395.25 789.127 394.313C788.228 393.369 787.779 392.109 787.779 390.534V390.202C787.779 389.153 787.978 388.219 788.375 387.399C788.778 386.572 789.338 385.928 790.055 385.465C790.777 384.997 791.558 384.762 792.398 384.762C793.772 384.762 794.84 385.215 795.601 386.12C796.363 387.025 796.744 388.32 796.744 390.006V390.758H789.586C789.612 391.8 789.915 392.643 790.494 393.288C791.08 393.926 791.822 394.245 792.721 394.245C793.359 394.245 793.899 394.114 794.342 393.854C794.784 393.594 795.172 393.249 795.504 392.819L796.607 393.678C795.722 395.039 794.394 395.719 792.623 395.719ZM792.398 386.247C791.669 386.247 791.057 386.514 790.562 387.047C790.068 387.575 789.762 388.317 789.644 389.274H794.937V389.137C794.885 388.219 794.638 387.51 794.195 387.008C793.752 386.5 793.153 386.247 792.398 386.247ZM811.939 391.813H805.982L804.644 395.524H802.711L808.14 381.305H809.781L815.221 395.524H813.297L811.939 391.813ZM806.549 390.27H811.383L808.961 383.62L806.549 390.27ZM825.797 390.358C825.797 391.972 825.426 393.271 824.683 394.254C823.941 395.231 822.945 395.719 821.695 395.719C820.36 395.719 819.329 395.247 818.599 394.303L818.512 395.524H816.851V380.524H818.658V386.12C819.387 385.215 820.393 384.762 821.676 384.762C822.958 384.762 823.964 385.247 824.693 386.217C825.429 387.187 825.797 388.515 825.797 390.202V390.358ZM823.99 390.153C823.99 388.922 823.752 387.972 823.277 387.301C822.802 386.631 822.118 386.295 821.226 386.295C820.035 386.295 819.179 386.849 818.658 387.956V392.526C819.211 393.633 820.074 394.186 821.246 394.186C822.112 394.186 822.786 393.851 823.267 393.18C823.749 392.51 823.99 391.5 823.99 390.153ZM827.603 390.143C827.603 389.108 827.805 388.177 828.209 387.35C828.619 386.523 829.185 385.885 829.908 385.436C830.637 384.987 831.467 384.762 832.398 384.762C833.837 384.762 834.999 385.26 835.885 386.256C836.777 387.252 837.222 388.577 837.222 390.231V390.358C837.222 391.387 837.024 392.311 836.627 393.131C836.236 393.945 835.673 394.58 834.937 395.036C834.208 395.491 833.368 395.719 832.418 395.719C830.985 395.719 829.823 395.221 828.931 394.225C828.046 393.229 827.603 391.911 827.603 390.27V390.143ZM829.42 390.358C829.42 391.53 829.69 392.471 830.23 393.18C830.777 393.89 831.506 394.245 832.418 394.245C833.336 394.245 834.065 393.887 834.605 393.17C835.146 392.448 835.416 391.439 835.416 390.143C835.416 388.984 835.139 388.047 834.586 387.331C834.039 386.608 833.31 386.247 832.398 386.247C831.506 386.247 830.787 386.601 830.24 387.311C829.693 388.021 829.42 389.036 829.42 390.358ZM842.818 393.073L845.435 384.958H847.281L843.492 395.524H842.115L838.287 384.958H840.133L842.818 393.073ZM853.267 395.719C851.835 395.719 850.67 395.25 849.771 394.313C848.873 393.369 848.424 392.109 848.424 390.534V390.202C848.424 389.153 848.622 388.219 849.019 387.399C849.423 386.572 849.983 385.928 850.699 385.465C851.422 384.997 852.203 384.762 853.043 384.762C854.416 384.762 855.484 385.215 856.246 386.12C857.008 387.025 857.388 388.32 857.388 390.006V390.758H850.23C850.256 391.8 850.559 392.643 851.138 393.288C851.724 393.926 852.467 394.245 853.365 394.245C854.003 394.245 854.543 394.114 854.986 393.854C855.429 393.594 855.816 393.249 856.148 392.819L857.252 393.678C856.366 395.039 855.038 395.719 853.267 395.719ZM853.043 386.247C852.314 386.247 851.702 386.514 851.207 387.047C850.712 387.575 850.406 388.317 850.289 389.274H855.582V389.137C855.53 388.219 855.282 387.51 854.84 387.008C854.397 386.5 853.798 386.247 853.043 386.247Z" fill="#000405" fill-opacity="0.65"/>
<ellipse cx="688.604" cy="329.525" rx="17.1471" ry="17.0837" fill="#990099"/>
<path d="M730.406 334.921C729.924 335.611 729.25 336.129 728.385 336.474C727.525 336.812 726.523 336.981 725.377 336.981C724.218 336.981 723.189 336.711 722.291 336.171C721.392 335.624 720.696 334.849 720.201 333.847C719.713 332.844 719.462 331.682 719.449 330.36V329.12C719.449 326.978 719.947 325.318 720.943 324.14C721.946 322.961 723.352 322.372 725.162 322.372C726.646 322.372 727.841 322.753 728.746 323.515C729.651 324.27 730.204 325.344 730.406 326.737H728.531C728.18 324.856 727.06 323.915 725.172 323.915C723.915 323.915 722.961 324.358 722.31 325.243C721.666 326.122 721.34 327.398 721.334 329.071V330.233C721.334 331.828 721.698 333.098 722.428 334.042C723.157 334.979 724.143 335.448 725.387 335.448C726.09 335.448 726.705 335.37 727.232 335.214C727.76 335.058 728.196 334.794 728.541 334.423V331.229H725.25V329.706H730.406V334.921ZM732.779 331.405C732.779 330.37 732.981 329.439 733.385 328.612C733.795 327.785 734.361 327.147 735.084 326.698C735.813 326.249 736.643 326.024 737.574 326.024C739.013 326.024 740.175 326.522 741.06 327.519C741.952 328.515 742.398 329.84 742.398 331.493V331.62C742.398 332.649 742.2 333.573 741.803 334.394C741.412 335.207 740.849 335.842 740.113 336.298C739.384 336.754 738.544 336.981 737.594 336.981C736.161 336.981 734.999 336.483 734.107 335.487C733.222 334.491 732.779 333.173 732.779 331.532V331.405ZM734.596 331.62C734.596 332.792 734.866 333.733 735.406 334.442C735.953 335.152 736.682 335.507 737.594 335.507C738.512 335.507 739.241 335.149 739.781 334.433C740.321 333.71 740.592 332.701 740.592 331.405C740.592 330.246 740.315 329.309 739.762 328.593C739.215 327.87 738.485 327.509 737.574 327.509C736.682 327.509 735.963 327.864 735.416 328.573C734.869 329.283 734.596 330.299 734.596 331.62ZM744.185 331.405C744.185 330.37 744.387 329.439 744.791 328.612C745.201 327.785 745.767 327.147 746.49 326.698C747.219 326.249 748.049 326.024 748.98 326.024C750.419 326.024 751.581 326.522 752.467 327.519C753.359 328.515 753.805 329.84 753.805 331.493V331.62C753.805 332.649 753.606 333.573 753.209 334.394C752.818 335.207 752.255 335.842 751.519 336.298C750.79 336.754 749.95 336.981 749 336.981C747.568 336.981 746.405 336.483 745.513 335.487C744.628 334.491 744.185 333.173 744.185 331.532V331.405ZM746.002 331.62C746.002 332.792 746.272 333.733 746.812 334.442C747.359 335.152 748.088 335.507 749 335.507C749.918 335.507 750.647 335.149 751.187 334.433C751.728 333.71 751.998 332.701 751.998 331.405C751.998 330.246 751.721 329.309 751.168 328.593C750.621 327.87 749.892 327.509 748.98 327.509C748.088 327.509 747.369 327.864 746.822 328.573C746.275 329.283 746.002 330.299 746.002 331.62ZM755.64 331.415C755.64 329.768 756.021 328.459 756.783 327.489C757.545 326.513 758.554 326.024 759.81 326.024C761.099 326.024 762.105 326.48 762.828 327.392L762.916 326.22H764.566V336.532C764.566 337.899 764.159 338.977 763.346 339.765C762.538 340.552 761.451 340.946 760.084 340.946C759.322 340.946 758.577 340.784 757.847 340.458C757.118 340.132 756.562 339.687 756.178 339.12L757.115 338.036C757.89 338.993 758.837 339.472 759.957 339.472C760.836 339.472 761.519 339.224 762.008 338.729C762.502 338.235 762.75 337.538 762.75 336.64V335.731C762.027 336.565 761.041 336.981 759.791 336.981C758.554 336.981 757.551 336.483 756.783 335.487C756.021 334.491 755.64 333.134 755.64 331.415ZM757.457 331.62C757.457 332.812 757.701 333.749 758.189 334.433C758.678 335.11 759.361 335.448 760.24 335.448C761.379 335.448 762.216 334.931 762.75 333.896V329.071C762.196 328.062 761.366 327.558 760.26 327.558C759.381 327.558 758.694 327.899 758.199 328.583C757.704 329.267 757.457 330.279 757.457 331.62ZM769.263 336.786H767.457V321.786H769.263V336.786ZM776.549 336.981C775.116 336.981 773.951 336.513 773.053 335.575C772.154 334.631 771.705 333.371 771.705 331.796V331.464C771.705 330.416 771.903 329.481 772.301 328.661C772.704 327.834 773.264 327.19 773.98 326.728C774.703 326.259 775.484 326.024 776.324 326.024C777.698 326.024 778.765 326.477 779.527 327.382C780.289 328.287 780.67 329.582 780.67 331.269V332.021H773.512C773.538 333.062 773.84 333.905 774.42 334.55C775.006 335.188 775.748 335.507 776.646 335.507C777.284 335.507 777.825 335.377 778.267 335.116C778.71 334.856 779.097 334.511 779.43 334.081L780.533 334.94C779.648 336.301 778.319 336.981 776.549 336.981ZM776.324 327.509C775.595 327.509 774.983 327.776 774.488 328.31C773.993 328.837 773.687 329.579 773.57 330.536H778.863V330.399C778.811 329.481 778.564 328.772 778.121 328.271C777.678 327.763 777.079 327.509 776.324 327.509ZM788.013 336.786V322.567H792.027C793.264 322.567 794.358 322.841 795.308 323.388C796.259 323.935 796.991 324.713 797.506 325.722C798.027 326.731 798.29 327.89 798.297 329.198V330.106C798.297 331.448 798.036 332.623 797.515 333.632C797.001 334.641 796.262 335.416 795.299 335.956C794.342 336.496 793.225 336.773 791.949 336.786H788.013ZM789.888 324.11V335.253H791.861C793.306 335.253 794.43 334.804 795.23 333.905C796.038 333.007 796.441 331.728 796.441 330.067V329.237C796.441 327.623 796.06 326.369 795.299 325.478C794.543 324.579 793.469 324.123 792.076 324.11H789.888ZM805.963 327.841C805.689 327.795 805.393 327.772 805.074 327.772C803.889 327.772 803.085 328.277 802.662 329.286V336.786H800.855V326.22H802.613L802.642 327.44C803.235 326.496 804.075 326.024 805.162 326.024C805.513 326.024 805.78 326.07 805.963 326.161V327.841ZM809.596 336.786H807.789V326.22H809.596V336.786ZM807.642 323.417C807.642 323.124 807.73 322.877 807.906 322.675C808.088 322.473 808.355 322.372 808.707 322.372C809.058 322.372 809.325 322.473 809.508 322.675C809.69 322.877 809.781 323.124 809.781 323.417C809.781 323.71 809.69 323.954 809.508 324.149C809.325 324.345 809.058 324.442 808.707 324.442C808.355 324.442 808.088 324.345 807.906 324.149C807.73 323.954 807.642 323.71 807.642 323.417ZM815.982 334.335L818.599 326.22H820.445L816.656 336.786H815.279L811.451 326.22H813.297L815.982 334.335ZM826.431 336.981C824.999 336.981 823.834 336.513 822.935 335.575C822.037 334.631 821.588 333.371 821.588 331.796V331.464C821.588 330.416 821.786 329.481 822.183 328.661C822.587 327.834 823.147 327.19 823.863 326.728C824.586 326.259 825.367 326.024 826.207 326.024C827.581 326.024 828.648 326.477 829.41 327.382C830.172 328.287 830.553 329.582 830.553 331.269V332.021H823.394C823.42 333.062 823.723 333.905 824.303 334.55C824.888 335.188 825.631 335.507 826.529 335.507C827.167 335.507 827.707 335.377 828.15 335.116C828.593 334.856 828.98 334.511 829.312 334.081L830.416 334.94C829.53 336.301 828.202 336.981 826.431 336.981ZM826.207 327.509C825.478 327.509 824.866 327.776 824.371 328.31C823.876 328.837 823.57 329.579 823.453 330.536H828.746V330.399C828.694 329.481 828.446 328.772 828.004 328.271C827.561 327.763 826.962 327.509 826.207 327.509ZM837.232 332.968C837.232 332.284 837.421 331.656 837.799 331.083C838.183 330.51 838.912 329.843 839.986 329.081C839.355 328.313 838.931 327.694 838.717 327.226C838.502 326.757 838.394 326.291 838.394 325.829C838.394 324.748 838.713 323.902 839.351 323.29C839.989 322.678 840.855 322.372 841.949 322.372C842.926 322.372 843.733 322.659 844.371 323.231C845.009 323.798 845.328 324.514 845.328 325.38C845.328 325.953 845.181 326.483 844.888 326.972C844.602 327.453 844.097 327.961 843.375 328.495L842.33 329.267L845.494 333.046C845.937 332.2 846.158 331.259 846.158 330.224H847.789C847.789 331.884 847.388 333.261 846.588 334.354L848.619 336.786H846.451L845.504 335.663C845.022 336.093 844.456 336.422 843.805 336.649C843.16 336.871 842.502 336.981 841.832 336.981C840.445 336.981 839.332 336.614 838.492 335.878C837.652 335.142 837.232 334.172 837.232 332.968ZM841.832 335.507C842.789 335.507 843.665 335.142 844.459 334.413L840.992 330.263L840.67 330.497C839.582 331.298 839.039 332.121 839.039 332.968C839.039 333.736 839.286 334.351 839.781 334.813C840.282 335.276 840.966 335.507 841.832 335.507ZM840.201 325.771C840.201 326.396 840.585 327.177 841.353 328.114L842.506 327.304C842.948 326.991 843.251 326.695 843.414 326.415C843.577 326.129 843.658 325.784 843.658 325.38C843.658 324.944 843.495 324.582 843.17 324.296C842.844 324.003 842.434 323.856 841.939 323.856C841.405 323.856 840.982 324.039 840.67 324.403C840.357 324.761 840.201 325.217 840.201 325.771ZM855.299 336.786V322.567H859.312C860.549 322.567 861.643 322.841 862.594 323.388C863.544 323.935 864.277 324.713 864.791 325.722C865.312 326.731 865.575 327.89 865.582 329.198V330.106C865.582 331.448 865.321 332.623 864.801 333.632C864.286 334.641 863.547 335.416 862.584 335.956C861.627 336.496 860.51 336.773 859.234 336.786H855.299ZM857.174 324.11V335.253H859.146C860.592 335.253 861.715 334.804 862.515 333.905C863.323 333.007 863.726 331.728 863.726 330.067V329.237C863.726 327.623 863.346 326.369 862.584 325.478C861.829 324.579 860.754 324.123 859.361 324.11H857.174ZM873.248 327.841C872.974 327.795 872.678 327.772 872.359 327.772C871.174 327.772 870.37 328.277 869.947 329.286V336.786H868.14V326.22H869.898L869.928 327.44C870.52 326.496 871.36 326.024 872.447 326.024C872.799 326.024 873.066 326.07 873.248 326.161V327.841ZM874.244 331.405C874.244 330.37 874.446 329.439 874.849 328.612C875.26 327.785 875.826 327.147 876.549 326.698C877.278 326.249 878.108 326.024 879.039 326.024C880.478 326.024 881.64 326.522 882.525 327.519C883.417 328.515 883.863 329.84 883.863 331.493V331.62C883.863 332.649 883.665 333.573 883.267 334.394C882.877 335.207 882.314 335.842 881.578 336.298C880.849 336.754 880.009 336.981 879.058 336.981C877.626 336.981 876.464 336.483 875.572 335.487C874.687 334.491 874.244 333.173 874.244 331.532V331.405ZM876.06 331.62C876.06 332.792 876.331 333.733 876.871 334.442C877.418 335.152 878.147 335.507 879.058 335.507C879.976 335.507 880.706 335.149 881.246 334.433C881.786 333.71 882.056 332.701 882.056 331.405C882.056 330.246 881.78 329.309 881.226 328.593C880.68 327.87 879.95 327.509 879.039 327.509C878.147 327.509 877.428 327.864 876.881 328.573C876.334 329.283 876.06 330.299 876.06 331.62ZM895.055 331.62C895.055 333.228 894.687 334.524 893.951 335.507C893.215 336.49 892.219 336.981 890.963 336.981C889.68 336.981 888.671 336.575 887.935 335.761V340.849H886.129V326.22H887.779L887.867 327.392C888.603 326.48 889.625 326.024 890.933 326.024C892.203 326.024 893.206 326.503 893.941 327.46C894.683 328.417 895.055 329.748 895.055 331.454V331.62ZM893.248 331.415C893.248 330.224 892.994 329.283 892.486 328.593C891.978 327.903 891.282 327.558 890.396 327.558C889.303 327.558 888.482 328.043 887.935 329.013V334.062C888.476 335.025 889.303 335.507 890.416 335.507C891.282 335.507 891.969 335.165 892.476 334.481C892.991 333.791 893.248 332.769 893.248 331.415ZM906.305 331.62C906.305 333.235 905.933 334.534 905.191 335.517C904.449 336.493 903.453 336.981 902.203 336.981C900.868 336.981 899.836 336.509 899.107 335.565L899.019 336.786H897.359V321.786H899.166V327.382C899.895 326.477 900.901 326.024 902.183 326.024C903.466 326.024 904.472 326.509 905.201 327.479C905.937 328.45 906.305 329.778 906.305 331.464V331.62ZM904.498 331.415C904.498 330.185 904.26 329.234 903.785 328.563C903.31 327.893 902.626 327.558 901.734 327.558C900.543 327.558 899.687 328.111 899.166 329.218V333.788C899.719 334.895 900.582 335.448 901.754 335.448C902.62 335.448 903.293 335.113 903.775 334.442C904.257 333.772 904.498 332.763 904.498 331.415ZM908.111 331.405C908.111 330.37 908.313 329.439 908.717 328.612C909.127 327.785 909.693 327.147 910.416 326.698C911.145 326.249 911.975 326.024 912.906 326.024C914.345 326.024 915.507 326.522 916.392 327.519C917.284 328.515 917.73 329.84 917.73 331.493V331.62C917.73 332.649 917.532 333.573 917.135 334.394C916.744 335.207 916.181 335.842 915.445 336.298C914.716 336.754 913.876 336.981 912.926 336.981C911.493 336.981 910.331 336.483 909.439 335.487C908.554 334.491 908.111 333.173 908.111 331.532V331.405ZM909.928 331.62C909.928 332.792 910.198 333.733 910.738 334.442C911.285 335.152 912.014 335.507 912.926 335.507C913.844 335.507 914.573 335.149 915.113 334.433C915.653 333.71 915.924 332.701 915.924 331.405C915.924 330.246 915.647 329.309 915.094 328.593C914.547 327.87 913.818 327.509 912.906 327.509C912.014 327.509 911.295 327.864 910.748 328.573C910.201 329.283 909.928 330.299 909.928 331.62ZM923.326 330.077L925.67 326.22H927.779L924.322 331.444L927.887 336.786H925.797L923.355 332.831L920.914 336.786H918.814L922.379 331.444L918.922 326.22H921.012L923.326 330.077Z" fill="#000405" fill-opacity="0.65"/>
<ellipse cx="688.604" cy="270.485" rx="17.1471" ry="17.0837" fill="#0099C5"/>
<path d="M721.588 277.747H719.781V267.18H721.588V277.747ZM719.635 264.377C719.635 264.084 719.722 263.837 719.898 263.635C720.081 263.433 720.347 263.333 720.699 263.333C721.051 263.333 721.318 263.433 721.5 263.635C721.682 263.837 721.773 264.084 721.773 264.377C721.773 264.67 721.682 264.915 721.5 265.11C721.318 265.305 721.051 265.403 720.699 265.403C720.347 265.403 720.081 265.305 719.898 265.11C719.722 264.915 719.635 264.67 719.635 264.377ZM735.23 273.235C735.055 274.739 734.498 275.901 733.56 276.721C732.629 277.535 731.389 277.942 729.84 277.942C728.16 277.942 726.812 277.34 725.797 276.135C724.788 274.931 724.283 273.319 724.283 271.301V269.934C724.283 268.612 724.517 267.45 724.986 266.448C725.461 265.445 726.132 264.677 726.998 264.143C727.864 263.603 728.866 263.333 730.006 263.333C731.516 263.333 732.727 263.756 733.638 264.602C734.55 265.442 735.081 266.607 735.23 268.098H733.346C733.183 266.965 732.828 266.145 732.281 265.637C731.741 265.129 730.982 264.875 730.006 264.875C728.808 264.875 727.867 265.318 727.183 266.204C726.506 267.089 726.168 268.349 726.168 269.983V271.36C726.168 272.903 726.49 274.13 727.135 275.042C727.779 275.953 728.681 276.409 729.84 276.409C730.881 276.409 731.679 276.174 732.232 275.706C732.792 275.23 733.163 274.407 733.346 273.235H735.23ZM739.478 277.747H737.672V262.747H739.478V277.747ZM741.9 272.366C741.9 271.331 742.102 270.4 742.506 269.573C742.916 268.746 743.482 268.108 744.205 267.659C744.934 267.209 745.764 266.985 746.695 266.985C748.134 266.985 749.296 267.483 750.181 268.479C751.073 269.475 751.519 270.8 751.519 272.454V272.581C751.519 273.609 751.321 274.534 750.924 275.354C750.533 276.168 749.97 276.803 749.234 277.258C748.505 277.714 747.665 277.942 746.715 277.942C745.282 277.942 744.12 277.444 743.228 276.448C742.343 275.452 741.9 274.133 741.9 272.493V272.366ZM743.717 272.581C743.717 273.752 743.987 274.693 744.527 275.403C745.074 276.112 745.803 276.467 746.715 276.467C747.633 276.467 748.362 276.109 748.902 275.393C749.443 274.67 749.713 273.661 749.713 272.366C749.713 271.207 749.436 270.269 748.883 269.553C748.336 268.831 747.607 268.469 746.695 268.469C745.803 268.469 745.084 268.824 744.537 269.534C743.99 270.243 743.717 271.259 743.717 272.581ZM760.308 276.702C759.605 277.528 758.573 277.942 757.213 277.942C756.086 277.942 755.227 277.616 754.635 276.965C754.049 276.308 753.752 275.338 753.746 274.055V267.18H755.553V274.006C755.553 275.608 756.204 276.409 757.506 276.409C758.886 276.409 759.804 275.894 760.26 274.866V267.18H762.066V277.747H760.347L760.308 276.702ZM764.381 272.375C764.381 270.754 764.765 269.452 765.533 268.469C766.301 267.48 767.307 266.985 768.551 266.985C769.788 266.985 770.767 267.408 771.49 268.254V262.747H773.297V277.747H771.637L771.549 276.614C770.826 277.499 769.82 277.942 768.531 277.942C767.307 277.942 766.308 277.441 765.533 276.438C764.765 275.435 764.381 274.127 764.381 272.512V272.375ZM766.187 272.581C766.187 273.778 766.435 274.716 766.93 275.393C767.424 276.07 768.108 276.409 768.98 276.409C770.126 276.409 770.963 275.894 771.49 274.866V270.012C770.95 269.016 770.12 268.518 769 268.518C768.114 268.518 767.424 268.86 766.93 269.543C766.435 270.227 766.187 271.239 766.187 272.581Z" fill="#000405" fill-opacity="0.65"/>
<ellipse cx="688.604" cy="211.749" rx="17.1471" ry="17.0837" fill="#3266CC"/>
<path d="M719.908 219.01V204.792H723.922C725.159 204.792 726.252 205.065 727.203 205.612C728.153 206.159 728.886 206.937 729.4 207.946C729.921 208.955 730.185 210.114 730.191 211.422V212.331C730.191 213.672 729.931 214.847 729.41 215.856C728.896 216.865 728.157 217.64 727.193 218.18C726.236 218.721 725.12 218.997 723.844 219.01H719.908ZM721.783 206.334V217.477H723.756C725.201 217.477 726.324 217.028 727.125 216.129C727.932 215.231 728.336 213.952 728.336 212.292V211.461C728.336 209.847 727.955 208.594 727.193 207.702C726.438 206.803 725.364 206.347 723.971 206.334H721.783ZM737.857 210.065C737.584 210.019 737.288 209.997 736.969 209.997C735.784 209.997 734.98 210.501 734.556 211.51V219.01H732.75V208.444H734.508L734.537 209.665C735.129 208.721 735.969 208.249 737.056 208.249C737.408 208.249 737.675 208.294 737.857 208.385V210.065ZM738.853 213.629C738.853 212.594 739.055 211.663 739.459 210.836C739.869 210.01 740.435 209.372 741.158 208.922C741.887 208.473 742.717 208.249 743.648 208.249C745.087 208.249 746.249 208.747 747.135 209.743C748.027 210.739 748.472 212.064 748.472 213.717V213.844C748.472 214.873 748.274 215.797 747.877 216.618C747.486 217.431 746.923 218.066 746.187 218.522C745.458 218.978 744.618 219.206 743.668 219.206C742.235 219.206 741.073 218.708 740.181 217.711C739.296 216.715 738.853 215.397 738.853 213.756V213.629ZM740.67 213.844C740.67 215.016 740.94 215.957 741.48 216.667C742.027 217.376 742.756 217.731 743.668 217.731C744.586 217.731 745.315 217.373 745.855 216.657C746.396 215.934 746.666 214.925 746.666 213.629C746.666 212.471 746.389 211.533 745.836 210.817C745.289 210.094 744.56 209.733 743.648 209.733C742.756 209.733 742.037 210.088 741.49 210.797C740.943 211.507 740.67 212.523 740.67 213.844ZM759.664 213.844C759.664 215.452 759.296 216.748 758.56 217.731C757.825 218.714 756.829 219.206 755.572 219.206C754.29 219.206 753.28 218.799 752.545 217.985V223.073H750.738V208.444H752.388L752.476 209.616C753.212 208.704 754.234 208.249 755.543 208.249C756.812 208.249 757.815 208.727 758.551 209.684C759.293 210.641 759.664 211.972 759.664 213.678V213.844ZM757.857 213.639C757.857 212.448 757.603 211.507 757.096 210.817C756.588 210.127 755.891 209.782 755.006 209.782C753.912 209.782 753.092 210.267 752.545 211.237V216.286C753.085 217.249 753.912 217.731 755.025 217.731C755.891 217.731 756.578 217.389 757.086 216.706C757.6 216.015 757.857 214.993 757.857 213.639ZM770.914 213.844C770.914 215.459 770.543 216.758 769.801 217.741C769.058 218.717 768.062 219.206 766.812 219.206C765.478 219.206 764.446 218.734 763.717 217.79L763.629 219.01H761.969V204.01H763.775V209.606C764.504 208.701 765.51 208.249 766.793 208.249C768.075 208.249 769.081 208.734 769.81 209.704C770.546 210.674 770.914 212.002 770.914 213.688V213.844ZM769.107 213.639C769.107 212.409 768.87 211.458 768.394 210.788C767.919 210.117 767.235 209.782 766.344 209.782C765.152 209.782 764.296 210.335 763.775 211.442V216.012C764.329 217.119 765.191 217.672 766.363 217.672C767.229 217.672 767.903 217.337 768.385 216.667C768.866 215.996 769.107 214.987 769.107 213.639ZM772.721 213.629C772.721 212.594 772.922 211.663 773.326 210.836C773.736 210.01 774.303 209.372 775.025 208.922C775.754 208.473 776.584 208.249 777.515 208.249C778.954 208.249 780.116 208.747 781.002 209.743C781.894 210.739 782.34 212.064 782.34 213.717V213.844C782.34 214.873 782.141 215.797 781.744 216.618C781.353 217.431 780.79 218.066 780.055 218.522C779.325 218.978 778.485 219.206 777.535 219.206C776.103 219.206 774.941 218.708 774.049 217.711C773.163 216.715 772.721 215.397 772.721 213.756V213.629ZM774.537 213.844C774.537 215.016 774.807 215.957 775.347 216.667C775.894 217.376 776.624 217.731 777.535 217.731C778.453 217.731 779.182 217.373 779.722 216.657C780.263 215.934 780.533 214.925 780.533 213.629C780.533 212.471 780.256 211.533 779.703 210.817C779.156 210.094 778.427 209.733 777.515 209.733C776.624 209.733 775.904 210.088 775.357 210.797C774.81 211.507 774.537 212.523 774.537 213.844ZM787.935 212.301L790.279 208.444H792.388L788.931 213.668L792.496 219.01H790.406L787.965 215.055L785.523 219.01H783.424L786.988 213.668L783.531 208.444H785.621L787.935 212.301Z" fill="#000405" fill-opacity="0.65"/>
<ellipse cx="688.604" cy="152.717" rx="17.1471" ry="17.0837" fill="#DC3812"/>
<path d="M722.33 145.76L726.978 157.361L731.627 145.76H734.058V159.979H732.183V154.441L732.359 148.465L727.691 159.979H726.256L721.597 148.494L721.783 154.441V159.979H719.908V145.76H722.33ZM741.558 153.641C739.95 153.178 738.778 152.612 738.043 151.941C737.314 151.264 736.949 150.431 736.949 149.441C736.949 148.322 737.395 147.397 738.287 146.668C739.185 145.932 740.351 145.564 741.783 145.564C742.76 145.564 743.629 145.753 744.39 146.131C745.159 146.508 745.751 147.029 746.168 147.693C746.591 148.357 746.803 149.083 746.803 149.871H744.918C744.918 149.012 744.644 148.338 744.097 147.85C743.551 147.355 742.779 147.107 741.783 147.107C740.859 147.107 740.136 147.312 739.615 147.723C739.101 148.126 738.844 148.689 738.844 149.412C738.844 149.992 739.088 150.483 739.576 150.887C740.071 151.284 740.907 151.648 742.086 151.98C743.271 152.312 744.195 152.68 744.859 153.084C745.53 153.481 746.025 153.947 746.344 154.48C746.669 155.014 746.832 155.643 746.832 156.365C746.832 157.518 746.383 158.442 745.484 159.139C744.586 159.829 743.385 160.174 741.881 160.174C740.904 160.174 739.993 159.988 739.146 159.617C738.3 159.24 737.646 158.725 737.183 158.074C736.728 157.423 736.5 156.684 736.5 155.857H738.385C738.385 156.717 738.7 157.397 739.332 157.898C739.97 158.393 740.819 158.641 741.881 158.641C742.87 158.641 743.629 158.439 744.156 158.035C744.683 157.632 744.947 157.081 744.947 156.385C744.947 155.688 744.703 155.151 744.215 154.773C743.726 154.389 742.841 154.012 741.558 153.641ZM765.142 153.328C765.142 154.721 764.908 155.939 764.439 156.98C763.971 158.016 763.306 158.807 762.447 159.354C761.588 159.9 760.585 160.174 759.439 160.174C758.319 160.174 757.327 159.9 756.461 159.354C755.595 158.8 754.921 158.016 754.439 157C753.964 155.978 753.72 154.796 753.707 153.455V152.43C753.707 151.062 753.944 149.855 754.42 148.807C754.895 147.758 755.566 146.958 756.431 146.404C757.304 145.844 758.3 145.564 759.42 145.564C760.559 145.564 761.562 145.841 762.428 146.395C763.3 146.941 763.971 147.739 764.439 148.787C764.908 149.829 765.142 151.043 765.142 152.43V153.328ZM763.277 152.41C763.277 150.724 762.939 149.432 762.262 148.533C761.584 147.628 760.637 147.176 759.42 147.176C758.235 147.176 757.301 147.628 756.617 148.533C755.94 149.432 755.592 150.682 755.572 152.283V153.328C755.572 154.962 755.914 156.248 756.597 157.186C757.288 158.117 758.235 158.582 759.439 158.582C760.65 158.582 761.588 158.143 762.252 157.264C762.916 156.378 763.258 155.112 763.277 153.465V152.41ZM769.381 149.412L769.439 150.74C770.247 149.725 771.301 149.217 772.603 149.217C774.836 149.217 775.963 150.477 775.982 152.996V159.979H774.176V152.986C774.169 152.225 773.993 151.661 773.648 151.297C773.31 150.932 772.779 150.75 772.056 150.75C771.471 150.75 770.956 150.906 770.513 151.219C770.071 151.531 769.726 151.941 769.478 152.449V159.979H767.672V149.412H769.381ZM783.092 160.174C781.659 160.174 780.494 159.705 779.596 158.768C778.697 157.824 778.248 156.564 778.248 154.988V154.656C778.248 153.608 778.446 152.674 778.844 151.854C779.247 151.027 779.807 150.382 780.523 149.92C781.246 149.451 782.027 149.217 782.867 149.217C784.241 149.217 785.308 149.669 786.07 150.574C786.832 151.479 787.213 152.775 787.213 154.461V155.213H780.055C780.081 156.255 780.383 157.098 780.963 157.742C781.549 158.38 782.291 158.699 783.189 158.699C783.827 158.699 784.368 158.569 784.81 158.309C785.253 158.048 785.64 157.703 785.972 157.273L787.076 158.133C786.191 159.493 784.862 160.174 783.092 160.174ZM782.867 150.701C782.138 150.701 781.526 150.968 781.031 151.502C780.536 152.029 780.23 152.771 780.113 153.729H785.406V153.592C785.354 152.674 785.107 151.964 784.664 151.463C784.221 150.955 783.622 150.701 782.867 150.701ZM794.556 159.979V145.76H798.57C799.807 145.76 800.901 146.033 801.851 146.58C802.802 147.127 803.534 147.905 804.049 148.914C804.569 149.923 804.833 151.082 804.84 152.391V153.299C804.84 154.64 804.579 155.815 804.058 156.824C803.544 157.833 802.805 158.608 801.842 159.148C800.885 159.689 799.768 159.965 798.492 159.979H794.556ZM796.431 147.303V158.445H798.404C799.849 158.445 800.972 157.996 801.773 157.098C802.581 156.199 802.984 154.92 802.984 153.26V152.43C802.984 150.815 802.603 149.562 801.842 148.67C801.086 147.771 800.012 147.316 798.619 147.303H796.431ZM812.506 151.033C812.232 150.988 811.936 150.965 811.617 150.965C810.432 150.965 809.628 151.469 809.205 152.479V159.979H807.398V149.412H809.156L809.185 150.633C809.778 149.689 810.618 149.217 811.705 149.217C812.056 149.217 812.323 149.262 812.506 149.354V151.033ZM816.138 159.979H814.332V149.412H816.138V159.979ZM814.185 146.609C814.185 146.316 814.273 146.069 814.449 145.867C814.631 145.665 814.898 145.564 815.25 145.564C815.601 145.564 815.868 145.665 816.051 145.867C816.233 146.069 816.324 146.316 816.324 146.609C816.324 146.902 816.233 147.146 816.051 147.342C815.868 147.537 815.601 147.635 815.25 147.635C814.898 147.635 814.631 147.537 814.449 147.342C814.273 147.146 814.185 146.902 814.185 146.609ZM822.525 157.527L825.142 149.412H826.988L823.199 159.979H821.822L817.994 149.412H819.84L822.525 157.527ZM832.974 160.174C831.542 160.174 830.377 159.705 829.478 158.768C828.58 157.824 828.131 156.564 828.131 154.988V154.656C828.131 153.608 828.329 152.674 828.726 151.854C829.13 151.027 829.69 150.382 830.406 149.92C831.129 149.451 831.91 149.217 832.75 149.217C834.124 149.217 835.191 149.669 835.953 150.574C836.715 151.479 837.096 152.775 837.096 154.461V155.213H829.937C829.963 156.255 830.266 157.098 830.846 157.742C831.431 158.38 832.174 158.699 833.072 158.699C833.71 158.699 834.25 158.569 834.693 158.309C835.136 158.048 835.523 157.703 835.855 157.273L836.959 158.133C836.073 159.493 834.745 160.174 832.974 160.174ZM832.75 150.701C832.021 150.701 831.409 150.968 830.914 151.502C830.419 152.029 830.113 152.771 829.996 153.729H835.289V153.592C835.237 152.674 834.989 151.964 834.547 151.463C834.104 150.955 833.505 150.701 832.75 150.701Z" fill="#000405" fill-opacity="0.65"/>
<ellipse cx="688.604" cy="94.0222" rx="17.1471" ry="17.0837" fill="#FE9900"/>
<path d="M730.406 99.4185C729.924 100.109 729.25 100.626 728.385 100.971C727.525 101.31 726.523 101.479 725.377 101.479C724.218 101.479 723.189 101.209 722.291 100.668C721.392 100.122 720.696 99.3468 720.201 98.3442C719.713 97.3416 719.462 96.1795 719.449 94.8579V93.6177C719.449 91.4757 719.947 89.8156 720.943 88.6372C721.946 87.4588 723.352 86.8696 725.162 86.8696C726.646 86.8696 727.841 87.2505 728.746 88.0122C729.651 88.7674 730.204 89.8416 730.406 91.2349H728.531C728.18 89.3534 727.06 88.4126 725.172 88.4126C723.915 88.4126 722.961 88.8553 722.31 89.7407C721.666 90.6196 721.34 91.8957 721.334 93.5688V94.731C721.334 96.326 721.698 97.5955 722.428 98.5396C723.157 99.4771 724.143 99.9458 725.387 99.9458C726.09 99.9458 726.705 99.8677 727.232 99.7114C727.76 99.5552 728.196 99.2915 728.541 98.9204V95.7271H725.25V94.2036H730.406V99.4185ZM732.779 95.9028C732.779 94.8677 732.981 93.9367 733.385 93.1099C733.795 92.283 734.361 91.645 735.084 91.1958C735.813 90.7466 736.643 90.522 737.574 90.522C739.013 90.522 740.175 91.02 741.06 92.0161C741.952 93.0122 742.398 94.3371 742.398 95.9907V96.1177C742.398 97.1463 742.2 98.0708 741.803 98.8911C741.412 99.7049 740.849 100.34 740.113 100.795C739.384 101.251 738.544 101.479 737.594 101.479C736.161 101.479 734.999 100.981 734.107 99.9849C733.222 98.9888 732.779 97.6704 732.779 96.0298V95.9028ZM734.596 96.1177C734.596 97.2896 734.866 98.2303 735.406 98.9399C735.953 99.6496 736.682 100.004 737.594 100.004C738.512 100.004 739.241 99.6463 739.781 98.9302C740.321 98.2075 740.592 97.1984 740.592 95.9028C740.592 94.744 740.315 93.8065 739.762 93.0903C739.215 92.3677 738.485 92.0063 737.574 92.0063C736.682 92.0063 735.963 92.3612 735.416 93.0708C734.869 93.7804 734.596 94.7961 734.596 96.1177ZM744.185 95.9028C744.185 94.8677 744.387 93.9367 744.791 93.1099C745.201 92.283 745.767 91.645 746.49 91.1958C747.219 90.7466 748.049 90.522 748.98 90.522C750.419 90.522 751.581 91.02 752.467 92.0161C753.359 93.0122 753.805 94.3371 753.805 95.9907V96.1177C753.805 97.1463 753.606 98.0708 753.209 98.8911C752.818 99.7049 752.255 100.34 751.519 100.795C750.79 101.251 749.95 101.479 749 101.479C747.568 101.479 746.405 100.981 745.513 99.9849C744.628 98.9888 744.185 97.6704 744.185 96.0298V95.9028ZM746.002 96.1177C746.002 97.2896 746.272 98.2303 746.812 98.9399C747.359 99.6496 748.088 100.004 749 100.004C749.918 100.004 750.647 99.6463 751.187 98.9302C751.728 98.2075 751.998 97.1984 751.998 95.9028C751.998 94.744 751.721 93.8065 751.168 93.0903C750.621 92.3677 749.892 92.0063 748.98 92.0063C748.088 92.0063 747.369 92.3612 746.822 93.0708C746.275 93.7804 746.002 94.7961 746.002 96.1177ZM755.64 95.9126C755.64 94.2655 756.021 92.9569 756.783 91.9868C757.545 91.0103 758.554 90.522 759.81 90.522C761.099 90.522 762.105 90.9777 762.828 91.8892L762.916 90.7173H764.566V101.03C764.566 102.397 764.159 103.474 763.346 104.262C762.538 105.05 761.451 105.444 760.084 105.444C759.322 105.444 758.577 105.281 757.847 104.956C757.118 104.63 756.562 104.184 756.178 103.618L757.115 102.534C757.89 103.491 758.837 103.969 759.957 103.969C760.836 103.969 761.519 103.722 762.008 103.227C762.502 102.732 762.75 102.036 762.75 101.137V100.229C762.027 101.062 761.041 101.479 759.791 101.479C758.554 101.479 757.551 100.981 756.783 99.9849C756.021 98.9888 755.64 97.6313 755.64 95.9126ZM757.457 96.1177C757.457 97.3091 757.701 98.2466 758.189 98.9302C758.678 99.6073 759.361 99.9458 760.24 99.9458C761.379 99.9458 762.216 99.4282 762.75 98.3931V93.5688C762.196 92.5597 761.366 92.0552 760.26 92.0552C759.381 92.0552 758.694 92.397 758.199 93.0806C757.704 93.7642 757.457 94.7765 757.457 96.1177ZM769.263 101.284H767.457V86.2837H769.263V101.284ZM776.549 101.479C775.116 101.479 773.951 101.01 773.053 100.073C772.154 99.1287 771.705 97.869 771.705 96.2935V95.9614C771.705 94.9132 771.903 93.979 772.301 93.1587C772.704 92.3319 773.264 91.6873 773.98 91.2251C774.703 90.7563 775.484 90.522 776.324 90.522C777.698 90.522 778.765 90.9744 779.527 91.8794C780.289 92.7843 780.67 94.0799 780.67 95.7661V96.5181H773.512C773.538 97.5597 773.84 98.4028 774.42 99.0474C775.006 99.6854 775.748 100.004 776.646 100.004C777.284 100.004 777.825 99.8742 778.267 99.6138C778.71 99.3534 779.097 99.0083 779.43 98.5786L780.533 99.438C779.648 100.799 778.319 101.479 776.549 101.479ZM776.324 92.0063C775.595 92.0063 774.983 92.2733 774.488 92.8071C773.993 93.3345 773.687 94.0767 773.57 95.0337H778.863V94.897C778.811 93.979 778.564 93.2694 778.121 92.7681C777.678 92.2603 777.079 92.0063 776.324 92.0063ZM788.013 101.284V87.0649H792.027C793.264 87.0649 794.358 87.3384 795.308 87.8853C796.259 88.4321 796.991 89.2101 797.506 90.2192C798.027 91.2284 798.29 92.3872 798.297 93.6958V94.604C798.297 95.9451 798.036 97.1203 797.515 98.1294C797.001 99.1385 796.262 99.9132 795.299 100.454C794.342 100.994 793.225 101.271 791.949 101.284H788.013ZM789.888 88.6079V99.7505H791.861C793.306 99.7505 794.43 99.3013 795.23 98.4028C796.038 97.5044 796.441 96.2251 796.441 94.5649V93.7349C796.441 92.1203 796.06 90.867 795.299 89.9751C794.543 89.0767 793.469 88.6209 792.076 88.6079H789.888ZM805.963 92.3384C805.689 92.2928 805.393 92.27 805.074 92.27C803.889 92.27 803.085 92.7746 802.662 93.7837V101.284H800.855V90.7173H802.613L802.642 91.938C803.235 90.994 804.075 90.522 805.162 90.522C805.513 90.522 805.78 90.5675 805.963 90.6587V92.3384ZM809.596 101.284H807.789V90.7173H809.596V101.284ZM807.642 87.9146C807.642 87.6216 807.73 87.3742 807.906 87.1724C808.088 86.9705 808.355 86.8696 808.707 86.8696C809.058 86.8696 809.325 86.9705 809.508 87.1724C809.69 87.3742 809.781 87.6216 809.781 87.9146C809.781 88.2075 809.69 88.4517 809.508 88.647C809.325 88.8423 809.058 88.9399 808.707 88.9399C808.355 88.9399 808.088 88.8423 807.906 88.647C807.73 88.4517 807.642 88.2075 807.642 87.9146ZM815.982 98.8325L818.599 90.7173H820.445L816.656 101.284H815.279L811.451 90.7173H813.297L815.982 98.8325ZM826.431 101.479C824.999 101.479 823.834 101.01 822.935 100.073C822.037 99.1287 821.588 97.869 821.588 96.2935V95.9614C821.588 94.9132 821.786 93.979 822.183 93.1587C822.587 92.3319 823.147 91.6873 823.863 91.2251C824.586 90.7563 825.367 90.522 826.207 90.522C827.581 90.522 828.648 90.9744 829.41 91.8794C830.172 92.7843 830.553 94.0799 830.553 95.7661V96.5181H823.394C823.42 97.5597 823.723 98.4028 824.303 99.0474C824.888 99.6854 825.631 100.004 826.529 100.004C827.167 100.004 827.707 99.8742 828.15 99.6138C828.593 99.3534 828.98 99.0083 829.312 98.5786L830.416 99.438C829.53 100.799 828.202 101.479 826.431 101.479ZM826.207 92.0063C825.478 92.0063 824.866 92.2733 824.371 92.8071C823.876 93.3345 823.57 94.0767 823.453 95.0337H828.746V94.897C828.694 93.979 828.446 93.2694 828.004 92.7681C827.561 92.2603 826.962 92.0063 826.207 92.0063Z" fill="#000405" fill-opacity="0.65"/>
<g filter="url(#filter0_d)">
<path d="M494.416 244.832C494.416 301.295 474.766 356.012 438.813 399.658C402.86 443.305 352.83 473.181 297.247 484.196C241.664 495.211 183.966 486.684 133.986 460.068C84.0051 433.452 44.8339 390.392 23.1463 338.227C1.45876 286.062 -1.4033 228.019 15.0478 173.988C31.4989 119.956 66.2453 73.2788 113.367 41.9097C160.488 10.5405 217.069 -3.57986 273.468 1.95448C329.867 7.48881 382.596 32.3354 422.669 72.2608L249.458 244.832H494.416Z" fill="#109619"/>
<path d="M422.669 72.2608C462.239 111.685 487.068 163.418 493.024 218.855C498.981 274.292 485.706 330.09 455.408 376.965C425.111 423.841 379.617 458.967 326.497 476.502C273.376 494.036 215.83 492.921 163.434 473.341C111.038 453.762 66.9501 416.899 38.5053 368.885C10.0606 320.871 -1.02607 264.601 7.0899 209.437C15.2059 154.273 42.0351 103.54 83.1141 65.6797C124.193 27.819 177.045 5.11294 232.877 1.33904L249.458 244.832L422.669 72.2608Z" fill="#990099"/>
<path d="M470.413 139.472C493.008 186.507 499.888 239.515 490.045 290.729C480.203 341.943 454.155 388.669 415.719 424.061C377.283 459.453 328.48 481.65 276.461 487.398C224.443 493.146 171.944 482.144 126.658 456.003C81.3717 429.863 45.6798 389.959 24.8124 342.138C3.94502 294.318 -1.00073 241.096 10.6999 190.271C22.4006 139.447 50.1325 93.6925 89.8317 59.7128C129.531 25.7331 179.11 5.31497 231.304 1.45046L249.458 244.832L470.413 139.472Z" fill="#0099C5"/>
<path d="M491.815 209.363C498.977 257.94 491.267 307.539 469.692 351.681C448.117 395.823 413.68 432.456 370.88 456.793C328.08 481.13 278.908 492.04 229.787 488.097C180.667 484.155 133.882 465.543 95.5443 434.693C57.207 403.844 29.1003 362.191 14.8961 315.177C0.691914 268.163 1.05073 217.974 15.9257 171.166C30.8006 124.358 59.5 83.1086 98.2744 52.8063C137.049 22.5041 184.095 4.55809 233.267 1.31296L249.458 244.832L491.815 209.363Z" fill="#3266CC"/>
<path d="M230.211 1.53381C187.728 4.86977 146.854 19.19 111.625 43.0798C76.3965 66.9697 48.0329 99.6027 29.3359 137.755C10.6389 175.908 2.25544 218.26 5.01362 260.628C7.77179 302.997 21.5762 343.915 45.0632 379.342C68.5502 414.768 100.907 443.478 138.938 462.634C176.969 481.789 219.358 490.729 261.917 488.57C304.477 486.41 345.734 473.226 381.615 450.32C417.496 427.414 446.758 395.578 466.511 357.957L249.458 244.832L230.211 1.53381Z" fill="#DC3812"/>
<path d="M232.143 1.38975C198.335 3.77659 165.393 13.1272 135.398 28.8503C105.404 44.5733 79.0113 66.3266 57.8889 92.7343C36.7665 119.142 21.3743 149.629 12.6858 182.268C3.99731 214.907 2.20159 248.987 7.41222 282.353C12.6229 315.719 24.7264 347.644 42.9575 376.11C61.1885 404.576 85.1503 428.963 113.327 447.729C141.504 466.494 173.283 479.23 206.654 485.131C240.025 491.031 274.262 489.968 307.2 482.008L249.458 244.832L232.143 1.38975Z" fill="#FE9900"/>
</g>
<defs>
<filter id="filter0_d" x="0.499512" y="0.778809" width="497.917" height="496.107" filterUnits="userSpaceOnUse" color-interpolation-filters="sRGB">
<feFlood flood-opacity="0" result="BackgroundImageFix"/>
<feColorMatrix in="SourceAlpha" type="matrix" values="0 0 0 0 0 0 0 0 0 0 0 0 0 0 0 0 0 0 127 0"/>
<feOffset dy="4"/>
<feGaussianBlur stdDeviation="2"/>
<feColorMatrix type="matrix" values="0 0 0 0 0 0 0 0 0 0 0 0 0 0 0 0 0 0 0.25 0"/>
<feBlend mode="normal" in2="BackgroundImageFix" result="effect1_dropShadow"/>
<feBlend mode="normal" in="SourceGraphic" in2="effect1_dropShadow" result="shape"/>
</filter>
</defs>
</svg>
