<svg width="688" height="241" viewBox="0 0 688 241" fill="none" xmlns="http://www.w3.org/2000/svg">
<rect x="372.849" y="0.125" width="315.026" height="239.75" fill="white" stroke="#3E4146" stroke-width="0.25"/>
<path d="M419.748 177.483C421.148 177.483 422.381 177.316 423.448 176.983C424.531 176.633 425.431 176.15 426.148 175.533C426.881 174.9 427.431 174.15 427.798 173.283C428.164 172.416 428.348 171.458 428.348 170.408C428.348 168.275 427.648 166.666 426.248 165.583C424.848 164.5 422.748 163.958 419.948 163.958H414.648V177.483H419.748ZM436.298 195.958H431.998C431.114 195.958 430.464 195.616 430.048 194.933L420.748 182.133C420.464 181.733 420.156 181.45 419.823 181.283C419.506 181.1 419.006 181.008 418.323 181.008H414.648V195.958H409.823V160.133H419.948C422.214 160.133 424.173 160.366 425.823 160.833C427.473 161.283 428.831 161.941 429.898 162.808C430.981 163.675 431.781 164.725 432.298 165.958C432.814 167.175 433.073 168.541 433.073 170.058C433.073 171.325 432.873 172.508 432.473 173.608C432.073 174.708 431.489 175.7 430.723 176.583C429.973 177.45 429.048 178.191 427.948 178.808C426.864 179.425 425.631 179.891 424.248 180.208C424.864 180.558 425.398 181.066 425.848 181.733L436.298 195.958ZM455.459 180.533C455.459 179.5 455.309 178.558 455.009 177.708C454.726 176.841 454.301 176.1 453.734 175.483C453.184 174.85 452.509 174.366 451.709 174.033C450.909 173.683 450.001 173.508 448.984 173.508C446.851 173.508 445.159 174.133 443.909 175.383C442.676 176.616 441.909 178.333 441.609 180.533H455.459ZM459.059 192.408C458.509 193.075 457.851 193.658 457.084 194.158C456.317 194.641 455.492 195.041 454.609 195.358C453.742 195.675 452.842 195.908 451.909 196.058C450.976 196.225 450.051 196.308 449.134 196.308C447.384 196.308 445.767 196.016 444.284 195.433C442.817 194.833 441.542 193.966 440.459 192.833C439.392 191.683 438.559 190.266 437.959 188.583C437.359 186.9 437.059 184.966 437.059 182.783C437.059 181.016 437.326 179.366 437.859 177.833C438.409 176.3 439.192 174.975 440.209 173.858C441.226 172.725 442.467 171.841 443.934 171.208C445.401 170.558 447.051 170.233 448.884 170.233C450.401 170.233 451.801 170.491 453.084 171.008C454.384 171.508 455.501 172.241 456.434 173.208C457.384 174.158 458.126 175.341 458.659 176.758C459.192 178.158 459.459 179.758 459.459 181.558C459.459 182.258 459.384 182.725 459.234 182.958C459.084 183.191 458.801 183.308 458.384 183.308H441.459C441.509 184.908 441.726 186.3 442.109 187.483C442.509 188.666 443.059 189.658 443.759 190.458C444.459 191.241 445.292 191.833 446.259 192.233C447.226 192.616 448.309 192.808 449.509 192.808C450.626 192.808 451.584 192.683 452.384 192.433C453.201 192.166 453.901 191.883 454.484 191.583C455.067 191.283 455.551 191.008 455.934 190.758C456.334 190.491 456.676 190.358 456.959 190.358C457.326 190.358 457.609 190.5 457.809 190.783L459.059 192.408ZM473.75 183.583C474.65 183.583 475.442 183.458 476.125 183.208C476.808 182.958 477.383 182.608 477.85 182.158C478.317 181.708 478.667 181.175 478.9 180.558C479.133 179.925 479.25 179.233 479.25 178.483C479.25 176.933 478.775 175.7 477.825 174.783C476.892 173.866 475.533 173.408 473.75 173.408C471.95 173.408 470.575 173.866 469.625 174.783C468.692 175.7 468.225 176.933 468.225 178.483C468.225 179.233 468.342 179.925 468.575 180.558C468.825 181.175 469.183 181.708 469.65 182.158C470.117 182.608 470.692 182.958 471.375 183.208C472.058 183.458 472.85 183.583 473.75 183.583ZM481.775 197.333C481.775 196.716 481.6 196.216 481.25 195.833C480.9 195.45 480.425 195.15 479.825 194.933C479.242 194.716 478.558 194.566 477.775 194.483C476.992 194.383 476.158 194.308 475.275 194.258C474.408 194.208 473.525 194.158 472.625 194.108C471.725 194.058 470.858 193.975 470.025 193.858C469.092 194.291 468.325 194.841 467.725 195.508C467.142 196.158 466.85 196.925 466.85 197.808C466.85 198.375 466.992 198.9 467.275 199.383C467.575 199.883 468.025 200.308 468.625 200.658C469.225 201.025 469.975 201.308 470.875 201.508C471.792 201.725 472.867 201.833 474.1 201.833C475.3 201.833 476.375 201.725 477.325 201.508C478.275 201.291 479.075 200.983 479.725 200.583C480.392 200.183 480.9 199.708 481.25 199.158C481.6 198.608 481.775 198 481.775 197.333ZM486.3 171.633V173.283C486.3 173.833 485.95 174.183 485.25 174.333L482.375 174.708C482.942 175.808 483.225 177.025 483.225 178.358C483.225 179.591 482.983 180.716 482.5 181.733C482.033 182.733 481.383 183.591 480.55 184.308C479.717 185.025 478.717 185.575 477.55 185.958C476.383 186.341 475.117 186.533 473.75 186.533C472.567 186.533 471.45 186.391 470.4 186.108C469.867 186.441 469.458 186.8 469.175 187.183C468.892 187.55 468.75 187.925 468.75 188.308C468.75 188.908 468.992 189.366 469.475 189.683C469.975 189.983 470.625 190.2 471.425 190.333C472.225 190.466 473.133 190.55 474.15 190.583C475.183 190.616 476.233 190.675 477.3 190.758C478.383 190.825 479.433 190.95 480.45 191.133C481.483 191.316 482.4 191.616 483.2 192.033C484 192.45 484.642 193.025 485.125 193.758C485.625 194.491 485.875 195.441 485.875 196.608C485.875 197.691 485.6 198.741 485.05 199.758C484.517 200.775 483.742 201.675 482.725 202.458C481.708 203.258 480.458 203.891 478.975 204.358C477.508 204.841 475.85 205.083 474 205.083C472.15 205.083 470.533 204.9 469.15 204.533C467.767 204.166 466.617 203.675 465.7 203.058C464.783 202.441 464.092 201.725 463.625 200.908C463.175 200.108 462.95 199.266 462.95 198.383C462.95 197.133 463.342 196.075 464.125 195.208C464.908 194.341 465.983 193.65 467.35 193.133C466.6 192.8 466 192.358 465.55 191.808C465.117 191.241 464.9 190.483 464.9 189.533C464.9 189.166 464.967 188.791 465.1 188.408C465.233 188.008 465.433 187.616 465.7 187.233C465.983 186.833 466.325 186.458 466.725 186.108C467.125 185.758 467.592 185.45 468.125 185.183C466.875 184.483 465.9 183.558 465.2 182.408C464.5 181.241 464.15 179.891 464.15 178.358C464.15 177.125 464.383 176.008 464.85 175.008C465.333 173.991 466 173.133 466.85 172.433C467.7 171.716 468.708 171.166 469.875 170.783C471.058 170.4 472.35 170.208 473.75 170.208C474.85 170.208 475.875 170.333 476.825 170.583C477.775 170.816 478.642 171.166 479.425 171.633H486.3ZM511.726 170.633V195.958H509.076C508.443 195.958 508.043 195.65 507.876 195.033L507.526 192.308C506.426 193.525 505.193 194.508 503.826 195.258C502.46 195.991 500.893 196.358 499.126 196.358C497.743 196.358 496.518 196.133 495.451 195.683C494.401 195.216 493.518 194.566 492.801 193.733C492.085 192.9 491.543 191.891 491.176 190.708C490.826 189.525 490.651 188.216 490.651 186.783V170.633H495.101V186.783C495.101 188.7 495.535 190.183 496.401 191.233C497.285 192.283 498.626 192.808 500.426 192.808C501.743 192.808 502.968 192.5 504.101 191.883C505.251 191.25 506.31 190.383 507.276 189.283V170.633H511.726ZM523.382 159.133V195.958H518.932V159.133H523.382ZM544.324 184.558C542.274 184.625 540.524 184.791 539.074 185.058C537.64 185.308 536.465 185.641 535.549 186.058C534.649 186.475 533.99 186.966 533.574 187.533C533.174 188.1 532.974 188.733 532.974 189.433C532.974 190.1 533.082 190.675 533.299 191.158C533.515 191.641 533.807 192.041 534.174 192.358C534.557 192.658 534.999 192.883 535.499 193.033C536.015 193.166 536.565 193.233 537.149 193.233C537.932 193.233 538.649 193.158 539.299 193.008C539.949 192.841 540.557 192.608 541.124 192.308C541.707 192.008 542.257 191.65 542.774 191.233C543.307 190.816 543.824 190.341 544.324 189.808V184.558ZM529.949 174.208C531.349 172.858 532.857 171.85 534.474 171.183C536.09 170.516 537.882 170.183 539.849 170.183C541.265 170.183 542.524 170.416 543.624 170.883C544.724 171.35 545.649 172 546.399 172.833C547.149 173.666 547.715 174.675 548.099 175.858C548.482 177.041 548.674 178.341 548.674 179.758V195.958H546.699C546.265 195.958 545.932 195.891 545.699 195.758C545.465 195.608 545.282 195.325 545.149 194.908L544.649 192.508C543.982 193.125 543.332 193.675 542.699 194.158C542.065 194.625 541.399 195.025 540.699 195.358C539.999 195.675 539.249 195.916 538.449 196.083C537.665 196.266 536.79 196.358 535.824 196.358C534.84 196.358 533.915 196.225 533.049 195.958C532.182 195.675 531.424 195.258 530.774 194.708C530.14 194.158 529.632 193.466 529.249 192.633C528.882 191.783 528.699 190.783 528.699 189.633C528.699 188.633 528.974 187.675 529.524 186.758C530.074 185.825 530.965 185 532.199 184.283C533.432 183.566 535.04 182.983 537.024 182.533C539.007 182.066 541.44 181.8 544.324 181.733V179.758C544.324 177.791 543.899 176.308 543.049 175.308C542.199 174.291 540.957 173.783 539.324 173.783C538.224 173.783 537.299 173.925 536.549 174.208C535.815 174.475 535.174 174.783 534.624 175.133C534.09 175.466 533.624 175.775 533.224 176.058C532.84 176.325 532.457 176.458 532.074 176.458C531.774 176.458 531.515 176.383 531.299 176.233C531.082 176.066 530.899 175.866 530.749 175.633L529.949 174.208ZM559.677 175.708C560.477 173.975 561.461 172.625 562.627 171.658C563.794 170.675 565.219 170.183 566.902 170.183C567.436 170.183 567.944 170.241 568.427 170.358C568.927 170.475 569.369 170.658 569.752 170.908L569.427 174.233C569.327 174.65 569.077 174.858 568.677 174.858C568.444 174.858 568.102 174.808 567.652 174.708C567.202 174.608 566.694 174.558 566.127 174.558C565.327 174.558 564.611 174.675 563.977 174.908C563.361 175.141 562.802 175.491 562.302 175.958C561.819 176.408 561.377 176.975 560.977 177.658C560.594 178.325 560.244 179.091 559.927 179.958V195.958H555.452V170.633H558.002C558.486 170.633 558.819 170.725 559.002 170.908C559.186 171.091 559.311 171.408 559.377 171.858L559.677 175.708Z" fill="#333333"/>
<path d="M428.848 106.7L423.223 92.125C423.056 91.6917 422.881 91.1917 422.698 90.625C422.514 90.0417 422.339 89.425 422.173 88.775C421.823 90.125 421.464 91.25 421.098 92.15L415.473 106.7H428.848ZM438.948 120H435.198C434.764 120 434.414 119.892 434.148 119.675C433.881 119.458 433.681 119.183 433.548 118.85L430.198 110.2H414.123L410.773 118.85C410.673 119.15 410.481 119.417 410.198 119.65C409.914 119.883 409.564 120 409.148 120H405.398L419.723 84.175H424.623L438.948 120ZM467.468 108.6C465.418 108.667 463.668 108.833 462.218 109.1C460.785 109.35 459.61 109.683 458.693 110.1C457.793 110.517 457.135 111.008 456.718 111.575C456.318 112.142 456.118 112.775 456.118 113.475C456.118 114.142 456.227 114.717 456.443 115.2C456.66 115.683 456.952 116.083 457.318 116.4C457.702 116.7 458.143 116.925 458.643 117.075C459.16 117.208 459.71 117.275 460.293 117.275C461.077 117.275 461.793 117.2 462.443 117.05C463.093 116.883 463.702 116.65 464.268 116.35C464.852 116.05 465.402 115.692 465.918 115.275C466.452 114.858 466.968 114.383 467.468 113.85V108.6ZM453.093 98.25C454.493 96.9 456.002 95.8917 457.618 95.225C459.235 94.5583 461.027 94.225 462.993 94.225C464.41 94.225 465.668 94.4583 466.768 94.925C467.868 95.3917 468.793 96.0417 469.543 96.875C470.293 97.7083 470.86 98.7167 471.243 99.9C471.627 101.083 471.818 102.383 471.818 103.8V120H469.843C469.41 120 469.077 119.933 468.843 119.8C468.61 119.65 468.427 119.367 468.293 118.95L467.793 116.55C467.127 117.167 466.477 117.717 465.843 118.2C465.21 118.667 464.543 119.067 463.843 119.4C463.143 119.717 462.393 119.958 461.593 120.125C460.81 120.308 459.935 120.4 458.968 120.4C457.985 120.4 457.06 120.267 456.193 120C455.327 119.717 454.568 119.3 453.918 118.75C453.285 118.2 452.777 117.508 452.393 116.675C452.027 115.825 451.843 114.825 451.843 113.675C451.843 112.675 452.118 111.717 452.668 110.8C453.218 109.867 454.11 109.042 455.343 108.325C456.577 107.608 458.185 107.025 460.168 106.575C462.152 106.108 464.585 105.842 467.468 105.775V103.8C467.468 101.833 467.043 100.35 466.193 99.35C465.343 98.3333 464.102 97.825 462.468 97.825C461.368 97.825 460.443 97.9667 459.693 98.25C458.96 98.5167 458.318 98.825 457.768 99.175C457.235 99.5083 456.768 99.8167 456.368 100.1C455.985 100.367 455.602 100.5 455.218 100.5C454.918 100.5 454.66 100.425 454.443 100.275C454.227 100.108 454.043 99.9083 453.893 99.675L453.093 98.25Z" fill="black"/>
<path d="M551.55 48.1224V50.5674H539.355V29.0724H542.25V48.1224H551.55ZM562.37 43.7274C561.14 43.7674 560.09 43.8674 559.22 44.0274C558.36 44.1774 557.655 44.3774 557.105 44.6274C556.565 44.8774 556.17 45.1724 555.92 45.5124C555.68 45.8524 555.56 46.2324 555.56 46.6524C555.56 47.0524 555.625 47.3974 555.755 47.6874C555.885 47.9774 556.06 48.2174 556.28 48.4074C556.51 48.5874 556.775 48.7224 557.075 48.8124C557.385 48.8924 557.715 48.9324 558.065 48.9324C558.535 48.9324 558.965 48.8874 559.355 48.7974C559.745 48.6974 560.11 48.5574 560.45 48.3774C560.8 48.1974 561.13 47.9824 561.44 47.7324C561.76 47.4824 562.07 47.1974 562.37 46.8774V43.7274ZM553.745 37.5174C554.585 36.7074 555.49 36.1024 556.46 35.7024C557.43 35.3024 558.505 35.1024 559.685 35.1024C560.535 35.1024 561.29 35.2424 561.95 35.5224C562.61 35.8024 563.165 36.1924 563.615 36.6924C564.065 37.1924 564.405 37.7974 564.635 38.5074C564.865 39.2174 564.98 39.9974 564.98 40.8474V50.5674H563.795C563.535 50.5674 563.335 50.5274 563.195 50.4474C563.055 50.3574 562.945 50.1874 562.865 49.9374L562.565 48.4974C562.165 48.8674 561.775 49.1974 561.395 49.4874C561.015 49.7674 560.615 50.0074 560.195 50.2074C559.775 50.3974 559.325 50.5424 558.845 50.6424C558.375 50.7524 557.85 50.8074 557.27 50.8074C556.68 50.8074 556.125 50.7274 555.605 50.5674C555.085 50.3974 554.63 50.1474 554.24 49.8174C553.86 49.4874 553.555 49.0724 553.325 48.5724C553.105 48.0624 552.995 47.4624 552.995 46.7724C552.995 46.1724 553.16 45.5974 553.49 45.0474C553.82 44.4874 554.355 43.9924 555.095 43.5624C555.835 43.1324 556.8 42.7824 557.99 42.5124C559.18 42.2324 560.64 42.0724 562.37 42.0324V40.8474C562.37 39.6674 562.115 38.7774 561.605 38.1774C561.095 37.5674 560.35 37.2624 559.37 37.2624C558.71 37.2624 558.155 37.3474 557.705 37.5174C557.265 37.6774 556.88 37.8624 556.55 38.0724C556.23 38.2724 555.95 38.4574 555.71 38.6274C555.48 38.7874 555.25 38.8674 555.02 38.8674C554.84 38.8674 554.685 38.8224 554.555 38.7324C554.425 38.6324 554.315 38.5124 554.225 38.3724L553.745 37.5174ZM573.507 50.8074C572.307 50.8074 571.382 50.4724 570.732 49.8024C570.092 49.1324 569.772 48.1674 569.772 46.9074V37.6074H567.942C567.782 37.6074 567.647 37.5624 567.537 37.4724C567.427 37.3724 567.372 37.2224 567.372 37.0224V35.9574L569.862 35.6424L570.477 30.9474C570.507 30.7974 570.572 30.6774 570.672 30.5874C570.782 30.4874 570.922 30.4374 571.092 30.4374H572.442V35.6724H576.837V37.6074H572.442V46.7274C572.442 47.3674 572.597 47.8424 572.907 48.1524C573.217 48.4624 573.617 48.6174 574.107 48.6174C574.387 48.6174 574.627 48.5824 574.827 48.5124C575.037 48.4324 575.217 48.3474 575.367 48.2574C575.517 48.1674 575.642 48.0874 575.742 48.0174C575.852 47.9374 575.947 47.8974 576.027 47.8974C576.167 47.8974 576.292 47.9824 576.402 48.1524L577.182 49.4274C576.722 49.8574 576.167 50.1974 575.517 50.4474C574.867 50.6874 574.197 50.8074 573.507 50.8074ZM585.911 35.1324C587.021 35.1324 588.021 35.3174 588.911 35.6874C589.801 36.0574 590.561 36.5824 591.191 37.2624C591.821 37.9424 592.301 38.7674 592.631 39.7374C592.971 40.6974 593.141 41.7724 593.141 42.9624C593.141 44.1624 592.971 45.2424 592.631 46.2024C592.301 47.1624 591.821 47.9824 591.191 48.6624C590.561 49.3424 589.801 49.8674 588.911 50.2374C588.021 50.5974 587.021 50.7774 585.911 50.7774C584.791 50.7774 583.781 50.5974 582.881 50.2374C581.991 49.8674 581.231 49.3424 580.601 48.6624C579.971 47.9824 579.486 47.1624 579.146 46.2024C578.816 45.2424 578.651 44.1624 578.651 42.9624C578.651 41.7724 578.816 40.6974 579.146 39.7374C579.486 38.7674 579.971 37.9424 580.601 37.2624C581.231 36.5824 581.991 36.0574 582.881 35.6874C583.781 35.3174 584.791 35.1324 585.911 35.1324ZM585.911 48.6924C587.411 48.6924 588.531 48.1924 589.271 47.1924C590.011 46.1824 590.381 44.7774 590.381 42.9774C590.381 41.1674 590.011 39.7574 589.271 38.7474C588.531 37.7374 587.411 37.2324 585.911 37.2324C585.151 37.2324 584.486 37.3624 583.916 37.6224C583.356 37.8824 582.886 38.2574 582.506 38.7474C582.136 39.2374 581.856 39.8424 581.666 40.5624C581.486 41.2724 581.396 42.0774 581.396 42.9774C581.396 44.7774 581.766 46.1824 582.506 47.1924C583.256 48.1924 584.391 48.6924 585.911 48.6924Z" fill="#333333"/>
<rect x="0.125" y="0.599609" width="315.026" height="239.75" fill="white" stroke="#3E4146" stroke-width="0.25"/>
<path d="M178.22 48.1224V50.5674H166.025V29.0724H168.92V48.1224H178.22ZM189.04 43.7274C187.81 43.7674 186.76 43.8674 185.89 44.0274C185.03 44.1774 184.325 44.3774 183.775 44.6274C183.235 44.8774 182.84 45.1724 182.59 45.5124C182.35 45.8524 182.23 46.2324 182.23 46.6524C182.23 47.0524 182.295 47.3974 182.425 47.6874C182.555 47.9774 182.73 48.2174 182.95 48.4074C183.18 48.5874 183.445 48.7224 183.745 48.8124C184.055 48.8924 184.385 48.9324 184.735 48.9324C185.205 48.9324 185.635 48.8874 186.025 48.7974C186.415 48.6974 186.78 48.5574 187.12 48.3774C187.47 48.1974 187.8 47.9824 188.11 47.7324C188.43 47.4824 188.74 47.1974 189.04 46.8774V43.7274ZM180.415 37.5174C181.255 36.7074 182.16 36.1024 183.13 35.7024C184.1 35.3024 185.175 35.1024 186.355 35.1024C187.205 35.1024 187.96 35.2424 188.62 35.5224C189.28 35.8024 189.835 36.1924 190.285 36.6924C190.735 37.1924 191.075 37.7974 191.305 38.5074C191.535 39.2174 191.65 39.9974 191.65 40.8474V50.5674H190.465C190.205 50.5674 190.005 50.5274 189.865 50.4474C189.725 50.3574 189.615 50.1874 189.535 49.9374L189.235 48.4974C188.835 48.8674 188.445 49.1974 188.065 49.4874C187.685 49.7674 187.285 50.0074 186.865 50.2074C186.445 50.3974 185.995 50.5424 185.515 50.6424C185.045 50.7524 184.52 50.8074 183.94 50.8074C183.35 50.8074 182.795 50.7274 182.275 50.5674C181.755 50.3974 181.3 50.1474 180.91 49.8174C180.53 49.4874 180.225 49.0724 179.995 48.5724C179.775 48.0624 179.665 47.4624 179.665 46.7724C179.665 46.1724 179.83 45.5974 180.16 45.0474C180.49 44.4874 181.025 43.9924 181.765 43.5624C182.505 43.1324 183.47 42.7824 184.66 42.5124C185.85 42.2324 187.31 42.0724 189.04 42.0324V40.8474C189.04 39.6674 188.785 38.7774 188.275 38.1774C187.765 37.5674 187.02 37.2624 186.04 37.2624C185.38 37.2624 184.825 37.3474 184.375 37.5174C183.935 37.6774 183.55 37.8624 183.22 38.0724C182.9 38.2724 182.62 38.4574 182.38 38.6274C182.15 38.7874 181.92 38.8674 181.69 38.8674C181.51 38.8674 181.355 38.8224 181.225 38.7324C181.095 38.6324 180.985 38.5124 180.895 38.3724L180.415 37.5174ZM200.177 50.8074C198.977 50.8074 198.052 50.4724 197.402 49.8024C196.762 49.1324 196.442 48.1674 196.442 46.9074V37.6074H194.612C194.452 37.6074 194.317 37.5624 194.207 37.4724C194.097 37.3724 194.042 37.2224 194.042 37.0224V35.9574L196.532 35.6424L197.147 30.9474C197.177 30.7974 197.242 30.6774 197.342 30.5874C197.452 30.4874 197.592 30.4374 197.762 30.4374H199.112V35.6724H203.507V37.6074H199.112V46.7274C199.112 47.3674 199.267 47.8424 199.577 48.1524C199.887 48.4624 200.287 48.6174 200.777 48.6174C201.057 48.6174 201.297 48.5824 201.497 48.5124C201.707 48.4324 201.887 48.3474 202.037 48.2574C202.187 48.1674 202.312 48.0874 202.412 48.0174C202.522 47.9374 202.617 47.8974 202.697 47.8974C202.837 47.8974 202.962 47.9824 203.072 48.1524L203.852 49.4274C203.392 49.8574 202.837 50.1974 202.187 50.4474C201.537 50.6874 200.867 50.8074 200.177 50.8074ZM212.581 35.1324C213.691 35.1324 214.691 35.3174 215.581 35.6874C216.471 36.0574 217.231 36.5824 217.861 37.2624C218.491 37.9424 218.971 38.7674 219.301 39.7374C219.641 40.6974 219.811 41.7724 219.811 42.9624C219.811 44.1624 219.641 45.2424 219.301 46.2024C218.971 47.1624 218.491 47.9824 217.861 48.6624C217.231 49.3424 216.471 49.8674 215.581 50.2374C214.691 50.5974 213.691 50.7774 212.581 50.7774C211.461 50.7774 210.451 50.5974 209.551 50.2374C208.661 49.8674 207.901 49.3424 207.271 48.6624C206.641 47.9824 206.156 47.1624 205.816 46.2024C205.486 45.2424 205.321 44.1624 205.321 42.9624C205.321 41.7724 205.486 40.6974 205.816 39.7374C206.156 38.7674 206.641 37.9424 207.271 37.2624C207.901 36.5824 208.661 36.0574 209.551 35.6874C210.451 35.3174 211.461 35.1324 212.581 35.1324ZM212.581 48.6924C214.081 48.6924 215.201 48.1924 215.941 47.1924C216.681 46.1824 217.051 44.7774 217.051 42.9774C217.051 41.1674 216.681 39.7574 215.941 38.7474C215.201 37.7374 214.081 37.2324 212.581 37.2324C211.821 37.2324 211.156 37.3624 210.586 37.6224C210.026 37.8824 209.556 38.2574 209.176 38.7474C208.806 39.2374 208.526 39.8424 208.336 40.5624C208.156 41.2724 208.066 42.0774 208.066 42.9774C208.066 44.7774 208.436 46.1824 209.176 47.1924C209.926 48.1924 211.061 48.6924 212.581 48.6924Z" fill="#333333"/>
<path d="M53.0628 190.708C54.3128 190.708 55.3628 190.558 56.2128 190.258C57.0628 189.958 57.7378 189.558 58.2378 189.058C58.7544 188.558 59.1211 187.975 59.3378 187.308C59.5711 186.641 59.6878 185.933 59.6878 185.183C59.6878 184.4 59.5628 183.7 59.3128 183.083C59.0628 182.45 58.6711 181.916 58.1378 181.483C57.6044 181.033 56.9128 180.691 56.0628 180.458C55.2294 180.225 54.2211 180.108 53.0378 180.108H46.2628V190.708H53.0628ZM46.2628 165.008V175.458H51.6128C53.9128 175.458 55.6461 175.041 56.8128 174.208C57.9961 173.375 58.5878 172.05 58.5878 170.233C58.5878 168.35 58.0544 167.008 56.9878 166.208C55.9211 165.408 54.2544 165.008 51.9878 165.008H46.2628ZM51.9878 159.808C54.3544 159.808 56.3794 160.033 58.0628 160.483C59.7461 160.933 61.1211 161.575 62.1878 162.408C63.2711 163.241 64.0628 164.25 64.5628 165.433C65.0628 166.616 65.3128 167.95 65.3128 169.433C65.3128 170.283 65.1878 171.1 64.9378 171.883C64.6878 172.65 64.2961 173.375 63.7628 174.058C63.2461 174.725 62.5794 175.333 61.7628 175.883C60.9628 176.433 60.0044 176.9 58.8878 177.283C63.8544 178.4 66.3378 181.083 66.3378 185.333C66.3378 186.866 66.0461 188.283 65.4628 189.583C64.8794 190.883 64.0294 192.008 62.9128 192.958C61.7961 193.891 60.4211 194.625 58.7878 195.158C57.1544 195.691 55.2878 195.958 53.1878 195.958H39.5378V159.808H51.9878ZM82.4811 169.908C84.3811 169.908 86.1061 170.216 87.6561 170.833C89.2228 171.45 90.5561 172.325 91.6561 173.458C92.7728 174.591 93.6311 175.975 94.2311 177.608C94.8311 179.241 95.1311 181.066 95.1311 183.083C95.1311 185.116 94.8311 186.95 94.2311 188.583C93.6311 190.216 92.7728 191.608 91.6561 192.758C90.5561 193.908 89.2228 194.791 87.6561 195.408C86.1061 196.025 84.3811 196.333 82.4811 196.333C80.5644 196.333 78.8228 196.025 77.2561 195.408C75.6894 194.791 74.3478 193.908 73.2311 192.758C72.1311 191.608 71.2728 190.216 70.6561 188.583C70.0561 186.95 69.7561 185.116 69.7561 183.083C69.7561 181.066 70.0561 179.241 70.6561 177.608C71.2728 175.975 72.1311 174.591 73.2311 173.458C74.3478 172.325 75.6894 171.45 77.2561 170.833C78.8228 170.216 80.5644 169.908 82.4811 169.908ZM82.4811 191.583C84.6145 191.583 86.1895 190.866 87.2061 189.433C88.2394 188 88.7561 185.9 88.7561 183.133C88.7561 180.366 88.2394 178.258 87.2061 176.808C86.1895 175.358 84.6145 174.633 82.4811 174.633C80.3144 174.633 78.7061 175.366 77.6561 176.833C76.6228 178.283 76.1061 180.383 76.1061 183.133C76.1061 185.883 76.6228 187.983 77.6561 189.433C78.7061 190.866 80.3144 191.583 82.4811 191.583ZM106.092 158.808V195.958H99.9171V158.808H106.092ZM128.344 176.858C127.644 176.008 126.878 175.408 126.044 175.058C125.228 174.708 124.344 174.533 123.394 174.533C122.461 174.533 121.619 174.708 120.869 175.058C120.119 175.408 119.478 175.941 118.944 176.658C118.411 177.358 118.003 178.258 117.719 179.358C117.436 180.441 117.294 181.725 117.294 183.208C117.294 184.708 117.411 185.983 117.644 187.033C117.894 188.066 118.244 188.916 118.694 189.583C119.144 190.233 119.694 190.708 120.344 191.008C120.994 191.291 121.719 191.433 122.519 191.433C123.803 191.433 124.894 191.166 125.794 190.633C126.694 190.1 127.544 189.341 128.344 188.358V176.858ZM134.519 158.808V195.958H130.744C129.928 195.958 129.411 195.583 129.194 194.833L128.669 192.358C127.636 193.541 126.444 194.5 125.094 195.233C123.761 195.966 122.203 196.333 120.419 196.333C119.019 196.333 117.736 196.041 116.569 195.458C115.403 194.875 114.394 194.033 113.544 192.933C112.711 191.816 112.061 190.441 111.594 188.808C111.144 187.175 110.919 185.308 110.919 183.208C110.919 181.308 111.178 179.541 111.694 177.908C112.211 176.275 112.953 174.858 113.919 173.658C114.886 172.458 116.044 171.525 117.394 170.858C118.744 170.175 120.261 169.833 121.944 169.833C123.378 169.833 124.603 170.058 125.619 170.508C126.636 170.958 127.544 171.566 128.344 172.333V158.808H134.519Z" fill="#333333"/>
<path d="M58.6378 106.875L54.2378 94.8504C54.0211 94.3171 53.7961 93.6837 53.5628 92.9504C53.3294 92.2171 53.0961 91.4254 52.8628 90.5754C52.6461 91.4254 52.4211 92.2254 52.1878 92.9754C51.9544 93.7087 51.7294 94.3504 51.5128 94.9004L47.1378 106.875H58.6378ZM70.5128 120.525H65.3128C64.7294 120.525 64.2544 120.384 63.8878 120.1C63.5211 119.8 63.2461 119.434 63.0628 119L60.3628 111.625H45.3878L42.6878 119C42.5544 119.384 42.2961 119.734 41.9128 120.05C41.5294 120.367 41.0544 120.525 40.4878 120.525H35.2378L49.4628 84.3754H56.3128L70.5128 120.525ZM97.3276 109.575C95.5443 109.659 94.0443 109.817 92.8276 110.05C91.6109 110.267 90.6359 110.55 89.9026 110.9C89.1693 111.25 88.6443 111.659 88.3276 112.125C88.0109 112.592 87.8526 113.1 87.8526 113.65C87.8526 114.734 88.1693 115.509 88.8026 115.975C89.4526 116.442 90.2943 116.675 91.3276 116.675C92.5943 116.675 93.6859 116.45 94.6026 116C95.5359 115.534 96.4443 114.834 97.3276 113.9V109.575ZM83.1776 98.4504C86.1276 95.7504 89.6776 94.4004 93.8276 94.4004C95.3276 94.4004 96.6693 94.6504 97.8526 95.1504C99.0359 95.6337 100.036 96.3171 100.853 97.2004C101.669 98.0671 102.286 99.1087 102.703 100.325C103.136 101.542 103.353 102.875 103.353 104.325V120.525H100.553C99.9693 120.525 99.5193 120.442 99.2026 120.275C98.8859 120.092 98.6359 119.734 98.4526 119.2L97.9026 117.35C97.2526 117.934 96.6193 118.45 96.0026 118.9C95.3859 119.334 94.7443 119.7 94.0776 120C93.4109 120.3 92.6943 120.525 91.9276 120.675C91.1776 120.842 90.3443 120.925 89.4276 120.925C88.3443 120.925 87.3443 120.784 86.4276 120.5C85.5109 120.2 84.7193 119.759 84.0526 119.175C83.3859 118.592 82.8693 117.867 82.5026 117C82.1359 116.134 81.9526 115.125 81.9526 113.975C81.9526 113.325 82.0609 112.684 82.2776 112.05C82.4943 111.4 82.8443 110.784 83.3276 110.2C83.8276 109.617 84.4693 109.067 85.2526 108.55C86.0359 108.034 86.9943 107.584 88.1276 107.2C89.2776 106.817 90.6109 106.509 92.1276 106.275C93.6443 106.025 95.3776 105.875 97.3276 105.825V104.325C97.3276 102.609 96.9609 101.342 96.2276 100.525C95.4943 99.6921 94.4359 99.2754 93.0526 99.2754C92.0526 99.2754 91.2193 99.3921 90.5526 99.6254C89.9026 99.8587 89.3276 100.125 88.8276 100.425C88.3276 100.709 87.8693 100.967 87.4526 101.2C87.0526 101.434 86.6026 101.55 86.1026 101.55C85.6693 101.55 85.3026 101.442 85.0026 101.225C84.7026 100.992 84.4609 100.725 84.2776 100.425L83.1776 98.4504Z" fill="black"/>
</svg>
