<svg width="821" height="503" viewBox="0 0 821 503" fill="none" xmlns="http://www.w3.org/2000/svg">
<rect x="1.93289" y="366.9" width="817.134" height="134.167" fill="#F2F2F2" stroke="#333333" stroke-width="2.13421"/>
<path d="M224.883 444.928H205.035L200.927 454.266H195.431L212.345 416.917H217.627L234.594 454.266H228.992L224.883 444.928ZM223.016 440.66L214.959 422.359L206.903 440.66H223.016ZM275.807 454.266L267.75 442.794C266.754 442.865 265.972 442.901 265.403 442.901H256.172V454.266H250.837V416.917H265.403C270.24 416.917 274.046 418.073 276.821 420.385C279.595 422.697 280.982 425.881 280.982 429.936C280.982 432.817 280.271 435.271 278.848 437.299C277.425 439.326 275.398 440.802 272.766 441.727L281.623 454.266H275.807ZM265.242 438.366C268.622 438.366 271.2 437.637 272.979 436.178C274.757 434.72 275.647 432.639 275.647 429.936C275.647 427.232 274.757 425.169 272.979 423.746C271.2 422.288 268.622 421.559 265.242 421.559H256.172V438.366H265.242ZM316.974 454.692C313.239 454.692 309.86 453.874 306.836 452.238C303.848 450.566 301.501 448.29 299.793 445.409C298.086 442.492 297.232 439.219 297.232 435.591C297.232 431.963 298.086 428.708 299.793 425.827C301.501 422.911 303.866 420.634 306.89 418.998C309.913 417.326 313.292 416.49 317.027 416.49C319.944 416.49 322.612 416.988 325.03 417.984C327.449 418.944 329.512 420.385 331.22 422.306L327.751 425.667C324.941 422.715 321.438 421.239 317.24 421.239C314.466 421.239 311.958 421.861 309.717 423.106C307.476 424.351 305.716 426.076 304.435 428.282C303.19 430.451 302.568 432.888 302.568 435.591C302.568 438.295 303.19 440.749 304.435 442.954C305.716 445.124 307.476 446.831 309.717 448.076C311.958 449.321 314.466 449.944 317.24 449.944C321.402 449.944 324.906 448.45 327.751 445.462L331.22 448.823C329.512 450.744 327.431 452.203 324.977 453.199C322.558 454.194 319.89 454.692 316.974 454.692ZM381.622 416.917V454.266H376.286V437.619H354.838V454.266H349.502V416.917H354.838V432.977H376.286V416.917H381.622ZM430.577 449.624V454.266H403.472V416.917H429.83V421.559H408.808V433.03H427.535V437.565H408.808V449.624H430.577ZM457.303 421.559H444.498V416.917H475.391V421.559H462.586V454.266H457.303V421.559ZM505.755 441.354V454.266H500.473V441.247L485.641 416.917H491.35L503.301 436.605L515.306 416.917H520.588L505.755 441.354ZM550.613 416.917C555.451 416.917 559.257 418.073 562.032 420.385C564.806 422.697 566.193 425.881 566.193 429.936C566.193 433.991 564.806 437.174 562.032 439.486C559.257 441.798 555.451 442.954 550.613 442.954H541.383V454.266H536.047V416.917H550.613ZM550.453 438.312C553.833 438.312 556.411 437.601 558.19 436.178C559.968 434.72 560.858 432.639 560.858 429.936C560.858 427.232 559.968 425.169 558.19 423.746C556.411 422.288 553.833 421.559 550.453 421.559H541.383V438.312H550.453ZM611.807 449.624V454.266H584.703V416.917H611.06V421.559H590.038V433.03H608.766V437.565H590.038V449.624H611.807Z" fill="#333333"/>
<rect x="3" y="183.984" width="815" height="132.035" fill="#077294"/>
<path d="M224.883 260.944H205.035L200.927 270.281H195.431L212.345 232.933H217.627L234.594 270.281H228.992L224.883 260.944ZM223.016 256.676L214.959 238.375L206.903 256.676H223.016ZM275.807 270.281L267.75 258.81C266.754 258.881 265.972 258.917 265.403 258.917H256.172V270.281H250.837V232.933H265.403C270.24 232.933 274.046 234.089 276.821 236.401C279.595 238.713 280.982 241.896 280.982 245.951C280.982 248.832 280.271 251.287 278.848 253.314C277.425 255.342 275.398 256.818 272.766 257.743L281.623 270.281H275.807ZM265.242 254.381C268.622 254.381 271.2 253.652 272.979 252.194C274.757 250.735 275.647 248.655 275.647 245.951C275.647 243.248 274.757 241.185 272.979 239.762C271.2 238.304 268.622 237.574 265.242 237.574H256.172V254.381H265.242ZM316.974 270.708C313.239 270.708 309.86 269.89 306.836 268.254C303.848 266.582 301.501 264.305 299.793 261.424C298.086 258.508 297.232 255.235 297.232 251.607C297.232 247.979 298.086 244.724 299.793 241.843C301.501 238.926 303.866 236.65 306.89 235.013C309.913 233.342 313.292 232.506 317.027 232.506C319.944 232.506 322.612 233.004 325.03 234C327.449 234.96 329.512 236.401 331.22 238.321L327.751 241.683C324.941 238.731 321.438 237.254 317.24 237.254C314.466 237.254 311.958 237.877 309.717 239.122C307.476 240.367 305.716 242.092 304.435 244.297C303.19 246.467 302.568 248.904 302.568 251.607C302.568 254.31 303.19 256.765 304.435 258.97C305.716 261.14 307.476 262.847 309.717 264.092C311.958 265.337 314.466 265.959 317.24 265.959C321.402 265.959 324.906 264.466 327.751 261.478L331.22 264.839C329.512 266.76 327.431 268.218 324.977 269.214C322.558 270.21 319.89 270.708 316.974 270.708ZM381.622 232.933V270.281H376.286V253.634H354.838V270.281H349.502V232.933H354.838V248.993H376.286V232.933H381.622ZM430.577 265.639V270.281H403.472V232.933H429.83V237.574H408.808V249.046H427.535V253.581H408.808V265.639H430.577ZM457.303 237.574H444.498V232.933H475.391V237.574H462.586V270.281H457.303V237.574ZM505.755 257.369V270.281H500.473V257.263L485.641 232.933H491.35L503.301 252.621L515.306 232.933H520.588L505.755 257.369ZM550.613 232.933C555.451 232.933 559.257 234.089 562.032 236.401C564.806 238.713 566.193 241.896 566.193 245.951C566.193 250.006 564.806 253.19 562.032 255.502C559.257 257.814 555.451 258.97 550.613 258.97H541.383V270.281H536.047V232.933H550.613ZM550.453 254.328C553.833 254.328 556.411 253.617 558.19 252.194C559.968 250.735 560.858 248.655 560.858 245.951C560.858 243.248 559.968 241.185 558.19 239.762C556.411 238.304 553.833 237.574 550.453 237.574H541.383V254.328H550.453ZM611.807 265.639V270.281H584.703V232.933H611.06V237.574H590.038V249.046H608.766V253.581H590.038V265.639H611.807Z" fill="white"/>
<rect x="3" width="815" height="132.035" fill="#333333"/>
<path d="M224.883 76.9602H205.035L200.927 86.2974H195.431L212.345 48.9487H217.627L234.594 86.2974H228.992L224.883 76.9602ZM223.016 72.6918L214.959 54.3909L206.903 72.6918H223.016ZM275.807 86.2974L267.75 74.826C266.754 74.8971 265.972 74.9327 265.403 74.9327H256.172V86.2974H250.837V48.9487H265.403C270.24 48.9487 274.046 50.1047 276.821 52.4168C279.595 54.7288 280.982 57.9124 280.982 61.9674C280.982 64.8485 280.271 67.3029 278.848 69.3304C277.425 71.3579 275.398 72.8341 272.766 73.7589L281.623 86.2974H275.807ZM265.242 70.3975C268.622 70.3975 271.2 69.6683 272.979 68.2099C274.757 66.7516 275.647 64.6707 275.647 61.9674C275.647 59.264 274.757 57.201 272.979 55.7782C271.2 54.3198 268.622 53.5906 265.242 53.5906H256.172V70.3975H265.242ZM316.974 86.7242C313.239 86.7242 309.86 85.9061 306.836 84.2699C303.848 82.5981 301.501 80.3216 299.793 77.4404C298.086 74.5236 297.232 71.2512 297.232 67.623C297.232 63.9949 298.086 60.7402 299.793 57.859C301.501 54.9423 303.866 52.6658 306.89 51.0295C309.913 49.3577 313.292 48.5218 317.027 48.5218C319.944 48.5218 322.612 49.0198 325.03 50.0158C327.449 50.9762 329.512 52.4168 331.22 54.3376L327.751 57.6989C324.941 54.7466 321.438 53.2705 317.24 53.2705C314.466 53.2705 311.958 53.8929 309.717 55.1379C307.476 56.3828 305.716 58.108 304.435 60.3134C303.19 62.4831 302.568 64.9197 302.568 67.623C302.568 70.3264 303.19 72.7807 304.435 74.986C305.716 77.1558 307.476 78.8632 309.717 80.1082C311.958 81.3531 314.466 81.9756 317.24 81.9756C321.402 81.9756 324.906 80.4816 327.751 77.4937L331.22 80.8551C329.512 82.7759 327.431 84.2343 324.977 85.2303C322.558 86.2262 319.89 86.7242 316.974 86.7242ZM381.622 48.9487V86.2974H376.286V69.6505H354.838V86.2974H349.502V48.9487H354.838V65.0086H376.286V48.9487H381.622ZM430.577 81.6555V86.2974H403.472V48.9487H429.83V53.5906H408.808V65.062H427.535V69.5972H408.808V81.6555H430.577ZM457.303 53.5906H444.498V48.9487H475.391V53.5906H462.586V86.2974H457.303V53.5906ZM505.755 73.3854V86.2974H500.473V73.2787L485.641 48.9487H491.35L503.301 68.6368L515.306 48.9487H520.588L505.755 73.3854ZM550.613 48.9487C555.451 48.9487 559.257 50.1047 562.032 52.4168C564.806 54.7288 566.193 57.9124 566.193 61.9674C566.193 66.0224 564.806 69.2059 562.032 71.518C559.257 73.83 555.451 74.986 550.613 74.986H541.383V86.2974H536.047V48.9487H550.613ZM550.453 70.3441C553.833 70.3441 556.411 69.6327 558.19 68.2099C559.968 66.7516 560.858 64.6707 560.858 61.9674C560.858 59.264 559.968 57.201 558.19 55.7782C556.411 54.3198 553.833 53.5906 550.453 53.5906H541.383V70.3441H550.453ZM611.807 81.6555V86.2974H584.703V48.9487H611.06V53.5906H590.038V65.062H608.766V69.5972H590.038V81.6555H611.807Z" fill="white"/>
</svg>
