<svg width="817" height="284" viewBox="0 0 817 284" fill="none" xmlns="http://www.w3.org/2000/svg">
<g filter="url(#filter0_d)">
<rect x="202.198" y="240.961" width="610" height="35" fill="#109619"/>
</g>
<path d="M13.3879 266.961L11.2551 261.512H4.38794L2.27856 266.961H0.262939L7.03638 249.758H8.71216L15.4504 266.961H13.3879ZM10.634 259.719L8.64185 254.41C8.38403 253.738 8.11841 252.914 7.84497 251.938C7.6731 252.688 7.427 253.512 7.10669 254.41L5.09106 259.719H10.634ZM19.9383 266.961H17.9929V248.727H19.9383V266.961ZM26.4886 266.961H24.5433V248.727H26.4886V266.961ZM48.8939 260.527C48.8939 262.621 48.3665 264.258 47.3118 265.438C46.2572 266.609 44.8001 267.195 42.9408 267.195C41.7923 267.195 40.7728 266.926 39.8822 266.387C38.9915 265.848 38.304 265.074 37.8197 264.066C37.3353 263.059 37.0931 261.879 37.0931 260.527C37.0931 258.434 37.6165 256.805 38.6634 255.641C39.7103 254.469 41.1634 253.883 43.0228 253.883C44.8197 253.883 46.2454 254.48 47.3001 255.676C48.3626 256.871 48.8939 258.488 48.8939 260.527ZM39.1087 260.527C39.1087 262.168 39.4368 263.418 40.0931 264.277C40.7493 265.137 41.7142 265.566 42.9876 265.566C44.2611 265.566 45.2259 265.141 45.8822 264.289C46.5462 263.43 46.8783 262.176 46.8783 260.527C46.8783 258.895 46.5462 257.656 45.8822 256.812C45.2259 255.961 44.2533 255.535 42.9642 255.535C41.6908 255.535 40.7298 255.953 40.0814 256.789C39.4329 257.625 39.1087 258.871 39.1087 260.527ZM58.5848 255.629H55.3153V266.961H53.37V255.629H51.0731V254.75L53.37 254.047V253.332C53.37 250.176 54.7489 248.598 57.5067 248.598C58.1864 248.598 58.9833 248.734 59.8973 249.008L59.3934 250.566C58.6434 250.324 58.0028 250.203 57.4715 250.203C56.7372 250.203 56.1942 250.449 55.8426 250.941C55.4911 251.426 55.3153 252.207 55.3153 253.285V254.117H58.5848V255.629ZM72.2714 265.59C72.6151 265.59 72.9472 265.566 73.2675 265.52C73.5878 265.465 73.8417 265.41 74.0292 265.355V266.844C73.8183 266.945 73.5058 267.027 73.0917 267.09C72.6854 267.16 72.3183 267.195 71.9901 267.195C69.5058 267.195 68.2636 265.887 68.2636 263.27V255.629H66.4237V254.691L68.2636 253.883L69.0839 251.141H70.2089V254.117H73.9354V255.629H70.2089V263.188C70.2089 263.961 70.3925 264.555 70.7597 264.969C71.1268 265.383 71.6308 265.59 72.2714 265.59ZM85.8764 266.961V258.652C85.8764 257.605 85.6381 256.824 85.1615 256.309C84.685 255.793 83.9389 255.535 82.9232 255.535C81.5717 255.535 80.5834 255.902 79.9584 256.637C79.3412 257.371 79.0326 258.574 79.0326 260.246V266.961H77.0873V248.727H79.0326V254.246C79.0326 254.91 79.0014 255.461 78.9389 255.898H79.0561C79.4389 255.281 79.9818 254.797 80.685 254.445C81.3959 254.086 82.2045 253.906 83.1107 253.906C84.6811 253.906 85.8568 254.281 86.6381 255.031C87.4272 255.773 87.8217 256.957 87.8217 258.582V266.961H85.8764ZM97.7353 267.195C95.8368 267.195 94.3368 266.617 93.2353 265.461C92.1415 264.305 91.5947 262.699 91.5947 260.645C91.5947 258.574 92.1025 256.93 93.1181 255.711C94.1415 254.492 95.5126 253.883 97.2314 253.883C98.8408 253.883 100.114 254.414 101.052 255.477C101.989 256.531 102.458 257.926 102.458 259.66V260.891H93.6103C93.6493 262.398 94.0283 263.543 94.747 264.324C95.4736 265.105 96.4931 265.496 97.8056 265.496C99.1884 265.496 100.556 265.207 101.907 264.629V266.363C101.22 266.66 100.567 266.871 99.9501 266.996C99.3408 267.129 98.6025 267.195 97.7353 267.195ZM97.2079 255.512C96.1767 255.512 95.3525 255.848 94.7353 256.52C94.1259 257.191 93.7665 258.121 93.6572 259.309H100.372C100.372 258.082 100.099 257.145 99.5517 256.496C99.0048 255.84 98.2236 255.512 97.2079 255.512ZM124.043 266.961L121.91 261.512H115.043L112.934 266.961H110.918L117.691 249.758H119.367L126.105 266.961H124.043ZM121.289 259.719L119.297 254.41C119.039 253.738 118.773 252.914 118.5 251.938C118.328 252.688 118.082 253.512 117.762 254.41L115.746 259.719H121.289ZM134.625 253.906C136.312 253.906 137.621 254.484 138.55 255.641C139.488 256.789 139.957 258.418 139.957 260.527C139.957 262.637 139.484 264.277 138.539 265.449C137.601 266.613 136.296 267.195 134.625 267.195C133.789 267.195 133.023 267.043 132.328 266.738C131.64 266.426 131.062 265.949 130.593 265.309H130.453L130.042 266.961H128.648V248.727H130.593V253.156C130.593 254.148 130.562 255.039 130.5 255.828H130.593C131.5 254.547 132.843 253.906 134.625 253.906ZM134.343 255.535C133.015 255.535 132.058 255.918 131.472 256.684C130.886 257.441 130.593 258.723 130.593 260.527C130.593 262.332 130.894 263.625 131.496 264.406C132.097 265.18 133.062 265.566 134.39 265.566C135.585 265.566 136.476 265.133 137.062 264.266C137.648 263.391 137.941 262.137 137.941 260.504C137.941 258.832 137.648 257.586 137.062 256.766C136.476 255.945 135.57 255.535 134.343 255.535ZM154.933 260.527C154.933 262.621 154.405 264.258 153.351 265.438C152.296 266.609 150.839 267.195 148.98 267.195C147.831 267.195 146.812 266.926 145.921 266.387C145.03 265.848 144.343 265.074 143.858 264.066C143.374 263.059 143.132 261.879 143.132 260.527C143.132 258.434 143.655 256.805 144.702 255.641C145.749 254.469 147.202 253.883 149.062 253.883C150.858 253.883 152.284 254.48 153.339 255.676C154.401 256.871 154.933 258.488 154.933 260.527ZM145.147 260.527C145.147 262.168 145.476 263.418 146.132 264.277C146.788 265.137 147.753 265.566 149.026 265.566C150.3 265.566 151.265 265.141 151.921 264.289C152.585 263.43 152.917 262.176 152.917 260.527C152.917 258.895 152.585 257.656 151.921 256.812C151.265 255.961 150.292 255.535 149.003 255.535C147.73 255.535 146.769 255.953 146.12 256.789C145.472 257.625 145.147 258.871 145.147 260.527ZM161.647 266.961L156.772 254.117H158.858L161.624 261.734C162.249 263.516 162.616 264.672 162.725 265.203H162.819C162.905 264.789 163.174 263.934 163.627 262.637C164.088 261.332 165.116 258.492 166.71 254.117H168.795L163.92 266.961H161.647ZM176.764 267.195C174.865 267.195 173.365 266.617 172.264 265.461C171.17 264.305 170.623 262.699 170.623 260.645C170.623 258.574 171.131 256.93 172.147 255.711C173.17 254.492 174.541 253.883 176.26 253.883C177.869 253.883 179.143 254.414 180.08 255.477C181.018 256.531 181.486 257.926 181.486 259.66V260.891H172.639C172.678 262.398 173.057 263.543 173.775 264.324C174.502 265.105 175.522 265.496 176.834 265.496C178.217 265.496 179.584 265.207 180.936 264.629V266.363C180.248 266.66 179.596 266.871 178.979 266.996C178.369 267.129 177.631 267.195 176.764 267.195ZM176.236 255.512C175.205 255.512 174.381 255.848 173.764 256.52C173.154 257.191 172.795 258.121 172.686 259.309H179.4C179.4 258.082 179.127 257.145 178.58 256.496C178.033 255.84 177.252 255.512 176.236 255.512Z" fill="#000405" fill-opacity="0.65"/>
<g filter="url(#filter1_d)">
<rect x="202.198" y="180.961" width="440" height="35" fill="#990099"/>
</g>
<path d="M78.5249 189.828V200.914C78.5249 202.867 77.9351 204.402 76.7554 205.52C75.5757 206.637 73.9546 207.195 71.8921 207.195C69.8296 207.195 68.2319 206.633 67.0991 205.508C65.9741 204.383 65.4116 202.836 65.4116 200.867V189.828H67.4038V201.008C67.4038 202.438 67.7944 203.535 68.5757 204.301C69.3569 205.066 70.5054 205.449 72.021 205.449C73.4663 205.449 74.5796 205.066 75.3608 204.301C76.1421 203.527 76.5327 202.422 76.5327 200.984V189.828H78.5249ZM89.2354 207.195C88.3994 207.195 87.6338 207.043 86.9385 206.738C86.251 206.426 85.6729 205.949 85.2041 205.309H85.0635C85.1572 206.059 85.2041 206.77 85.2041 207.441V212.727H83.2588V194.117H84.8408L85.1104 195.875H85.2041C85.7041 195.172 86.2862 194.664 86.9502 194.352C87.6143 194.039 88.376 193.883 89.2354 193.883C90.9385 193.883 92.251 194.465 93.1729 195.629C94.1026 196.793 94.5674 198.426 94.5674 200.527C94.5674 202.637 94.0947 204.277 93.1494 205.449C92.2119 206.613 90.9072 207.195 89.2354 207.195ZM88.9541 195.535C87.6416 195.535 86.6924 195.898 86.1065 196.625C85.5205 197.352 85.2197 198.508 85.2041 200.094V200.527C85.2041 202.332 85.5049 203.625 86.1065 204.406C86.708 205.18 87.6729 205.566 89.001 205.566C90.1104 205.566 90.9776 205.117 91.6026 204.219C92.2354 203.32 92.5518 202.082 92.5518 200.504C92.5518 198.902 92.2354 197.676 91.6026 196.824C90.9776 195.965 90.0947 195.535 88.9541 195.535ZM100.403 206.961H98.4576V188.727H100.403V206.961ZM116.094 200.527C116.094 202.621 115.566 204.258 114.512 205.438C113.457 206.609 112 207.195 110.141 207.195C108.992 207.195 107.973 206.926 107.082 206.387C106.191 205.848 105.504 205.074 105.02 204.066C104.535 203.059 104.293 201.879 104.293 200.527C104.293 198.434 104.816 196.805 105.863 195.641C106.91 194.469 108.363 193.883 110.223 193.883C112.02 193.883 113.445 194.48 114.5 195.676C115.563 196.871 116.094 198.488 116.094 200.527ZM106.309 200.527C106.309 202.168 106.637 203.418 107.293 204.277C107.949 205.137 108.914 205.566 110.188 205.566C111.461 205.566 112.426 205.141 113.082 204.289C113.746 203.43 114.078 202.176 114.078 200.527C114.078 198.895 113.746 197.656 113.082 196.812C112.426 195.961 111.453 195.535 110.164 195.535C108.891 195.535 107.93 195.953 107.281 196.789C106.633 197.625 106.309 198.871 106.309 200.527ZM127.894 206.961L127.507 205.133H127.414C126.773 205.938 126.132 206.484 125.492 206.773C124.859 207.055 124.066 207.195 123.113 207.195C121.839 207.195 120.839 206.867 120.113 206.211C119.394 205.555 119.035 204.621 119.035 203.41C119.035 200.816 121.109 199.457 125.257 199.332L127.437 199.262V198.465C127.437 197.457 127.218 196.715 126.781 196.238C126.351 195.754 125.66 195.512 124.707 195.512C123.636 195.512 122.425 195.84 121.074 196.496L120.476 195.008C121.109 194.664 121.8 194.395 122.55 194.199C123.308 194.004 124.066 193.906 124.824 193.906C126.355 193.906 127.488 194.246 128.222 194.926C128.964 195.605 129.336 196.695 129.336 198.195V206.961H127.894ZM123.5 205.59C124.711 205.59 125.66 205.258 126.347 204.594C127.043 203.93 127.39 203 127.39 201.805V200.645L125.445 200.727C123.898 200.781 122.781 201.023 122.093 201.453C121.414 201.875 121.074 202.535 121.074 203.434C121.074 204.137 121.285 204.672 121.707 205.039C122.136 205.406 122.734 205.59 123.5 205.59ZM142.577 205.238H142.472C141.573 206.543 140.23 207.195 138.441 207.195C136.761 207.195 135.452 206.621 134.515 205.473C133.585 204.324 133.12 202.691 133.12 200.574C133.12 198.457 133.589 196.812 134.526 195.641C135.464 194.469 136.769 193.883 138.441 193.883C140.183 193.883 141.519 194.516 142.448 195.781H142.601L142.519 194.855L142.472 193.953V188.727H144.417V206.961H142.835L142.577 205.238ZM138.687 205.566C140.015 205.566 140.976 205.207 141.569 204.488C142.171 203.762 142.472 202.594 142.472 200.984V200.574C142.472 198.754 142.167 197.457 141.558 196.684C140.956 195.902 139.991 195.512 138.663 195.512C137.523 195.512 136.648 195.957 136.038 196.848C135.437 197.73 135.136 198.98 135.136 200.598C135.136 202.238 135.437 203.477 136.038 204.312C136.64 205.148 137.523 205.566 138.687 205.566ZM150.979 206.961H149.034V194.117H150.979V206.961ZM148.87 190.637C148.87 190.191 148.979 189.867 149.198 189.664C149.417 189.453 149.69 189.348 150.018 189.348C150.331 189.348 150.6 189.453 150.827 189.664C151.053 189.875 151.167 190.199 151.167 190.637C151.167 191.074 151.053 191.402 150.827 191.621C150.6 191.832 150.331 191.938 150.018 191.938C149.69 191.938 149.417 191.832 149.198 191.621C148.979 191.402 148.87 191.074 148.87 190.637ZM164.373 206.961V198.652C164.373 197.605 164.135 196.824 163.658 196.309C163.182 195.793 162.436 195.535 161.42 195.535C160.076 195.535 159.092 195.898 158.467 196.625C157.842 197.352 157.529 198.551 157.529 200.223V206.961H155.584V194.117H157.166L157.483 195.875H157.576C157.975 195.242 158.533 194.754 159.252 194.41C159.971 194.059 160.772 193.883 161.654 193.883C163.201 193.883 164.365 194.258 165.147 195.008C165.928 195.75 166.318 196.941 166.318 198.582V206.961H164.373ZM181.318 194.117V195.348L178.939 195.629C179.158 195.902 179.353 196.262 179.525 196.707C179.697 197.145 179.783 197.641 179.783 198.195C179.783 199.453 179.353 200.457 178.494 201.207C177.634 201.957 176.455 202.332 174.955 202.332C174.572 202.332 174.213 202.301 173.877 202.238C173.048 202.676 172.634 203.227 172.634 203.891C172.634 204.242 172.779 204.504 173.068 204.676C173.357 204.84 173.853 204.922 174.556 204.922H176.83C178.22 204.922 179.287 205.215 180.029 205.801C180.779 206.387 181.154 207.238 181.154 208.355C181.154 209.777 180.584 210.859 179.443 211.602C178.302 212.352 176.638 212.727 174.451 212.727C172.771 212.727 171.474 212.414 170.56 211.789C169.654 211.164 169.201 210.281 169.201 209.141C169.201 208.359 169.451 207.684 169.951 207.113C170.451 206.543 171.154 206.156 172.06 205.953C171.732 205.805 171.455 205.574 171.228 205.262C171.009 204.949 170.9 204.586 170.9 204.172C170.9 203.703 171.025 203.293 171.275 202.941C171.525 202.59 171.92 202.25 172.459 201.922C171.795 201.648 171.252 201.184 170.83 200.527C170.416 199.871 170.209 199.121 170.209 198.277C170.209 196.871 170.631 195.789 171.474 195.031C172.318 194.266 173.513 193.883 175.06 193.883C175.732 193.883 176.338 193.961 176.877 194.117H181.318ZM171.076 209.117C171.076 209.812 171.369 210.34 171.955 210.699C172.541 211.059 173.381 211.238 174.474 211.238C176.107 211.238 177.314 210.992 178.095 210.5C178.884 210.016 179.279 209.355 179.279 208.52C179.279 207.824 179.064 207.34 178.634 207.066C178.205 206.801 177.396 206.668 176.209 206.668H173.877C172.994 206.668 172.306 206.879 171.814 207.301C171.322 207.723 171.076 208.328 171.076 209.117ZM172.131 198.23C172.131 199.129 172.384 199.809 172.892 200.27C173.4 200.73 174.107 200.961 175.013 200.961C176.912 200.961 177.861 200.039 177.861 198.195C177.861 196.266 176.9 195.301 174.978 195.301C174.064 195.301 173.361 195.547 172.869 196.039C172.377 196.531 172.131 197.262 172.131 198.23Z" fill="#000405" fill-opacity="0.65"/>
<g filter="url(#filter2_d)">
<rect x="202.198" y="120.961" width="309.137" height="35" fill="#3266CC"/>
</g>
<path d="M92.9234 131.363C91.0406 131.363 89.5523 131.992 88.4586 133.25C87.3726 134.5 86.8297 136.215 86.8297 138.395C86.8297 140.637 87.3531 142.371 88.4 143.598C89.4547 144.816 90.9547 145.426 92.9 145.426C94.0953 145.426 95.4586 145.211 96.9898 144.781V146.527C95.8023 146.973 94.3375 147.195 92.5953 147.195C90.0718 147.195 88.1226 146.43 86.7476 144.898C85.3804 143.367 84.6968 141.191 84.6968 138.371C84.6968 136.605 85.025 135.059 85.6812 133.73C86.3453 132.402 87.2984 131.379 88.5406 130.66C89.7906 129.941 91.2593 129.582 92.9468 129.582C94.7437 129.582 96.314 129.91 97.6578 130.566L96.814 132.277C95.5172 131.668 94.2203 131.363 92.9234 131.363ZM106.774 133.883C107.345 133.883 107.857 133.93 108.31 134.023L108.04 135.828C107.509 135.711 107.04 135.652 106.634 135.652C105.595 135.652 104.704 136.074 103.962 136.918C103.228 137.762 102.86 138.812 102.86 140.07V146.961H100.915V134.117H102.521L102.743 136.496H102.837C103.314 135.66 103.888 135.016 104.56 134.562C105.232 134.109 105.97 133.883 106.774 133.883ZM116.618 147.195C114.719 147.195 113.219 146.617 112.118 145.461C111.024 144.305 110.477 142.699 110.477 140.645C110.477 138.574 110.985 136.93 112.001 135.711C113.024 134.492 114.395 133.883 116.114 133.883C117.723 133.883 118.997 134.414 119.934 135.477C120.872 136.531 121.34 137.926 121.34 139.66V140.891H112.493C112.532 142.398 112.911 143.543 113.629 144.324C114.356 145.105 115.376 145.496 116.688 145.496C118.071 145.496 119.438 145.207 120.79 144.629V146.363C120.102 146.66 119.45 146.871 118.833 146.996C118.223 147.129 117.485 147.195 116.618 147.195ZM116.09 135.512C115.059 135.512 114.235 135.848 113.618 136.52C113.008 137.191 112.649 138.121 112.54 139.309H119.254C119.254 138.082 118.981 137.145 118.434 136.496C117.887 135.84 117.106 135.512 116.09 135.512ZM133.047 146.961L132.66 145.133H132.567C131.926 145.938 131.285 146.484 130.645 146.773C130.012 147.055 129.219 147.195 128.266 147.195C126.992 147.195 125.992 146.867 125.266 146.211C124.547 145.555 124.188 144.621 124.188 143.41C124.188 140.816 126.262 139.457 130.41 139.332L132.59 139.262V138.465C132.59 137.457 132.371 136.715 131.934 136.238C131.504 135.754 130.813 135.512 129.859 135.512C128.789 135.512 127.578 135.84 126.227 136.496L125.629 135.008C126.262 134.664 126.953 134.395 127.703 134.199C128.461 134.004 129.219 133.906 129.977 133.906C131.508 133.906 132.641 134.246 133.375 134.926C134.117 135.605 134.488 136.695 134.488 138.195V146.961H133.047ZM128.652 145.59C129.863 145.59 130.813 145.258 131.5 144.594C132.195 143.93 132.543 143 132.543 141.805V140.645L130.598 140.727C129.051 140.781 127.934 141.023 127.246 141.453C126.567 141.875 126.227 142.535 126.227 143.434C126.227 144.137 126.438 144.672 126.859 145.039C127.289 145.406 127.887 145.59 128.652 145.59ZM143.136 145.59C143.48 145.59 143.812 145.566 144.132 145.52C144.453 145.465 144.707 145.41 144.894 145.355V146.844C144.683 146.945 144.371 147.027 143.957 147.09C143.55 147.16 143.183 147.195 142.855 147.195C140.371 147.195 139.129 145.887 139.129 143.27V135.629H137.289V134.691L139.129 133.883L139.949 131.141H141.074V134.117H144.8V135.629H141.074V143.188C141.074 143.961 141.257 144.555 141.625 144.969C141.992 145.383 142.496 145.59 143.136 145.59ZM149.898 146.961H147.952V134.117H149.898V146.961ZM147.788 130.637C147.788 130.191 147.898 129.867 148.116 129.664C148.335 129.453 148.609 129.348 148.937 129.348C149.249 129.348 149.519 129.453 149.745 129.664C149.972 129.875 150.085 130.199 150.085 130.637C150.085 131.074 149.972 131.402 149.745 131.621C149.519 131.832 149.249 131.938 148.937 131.938C148.609 131.938 148.335 131.832 148.116 131.621C147.898 131.402 147.788 131.074 147.788 130.637ZM165.589 140.527C165.589 142.621 165.061 144.258 164.007 145.438C162.952 146.609 161.495 147.195 159.635 147.195C158.487 147.195 157.467 146.926 156.577 146.387C155.686 145.848 154.999 145.074 154.514 144.066C154.03 143.059 153.788 141.879 153.788 140.527C153.788 138.434 154.311 136.805 155.358 135.641C156.405 134.469 157.858 133.883 159.717 133.883C161.514 133.883 162.94 134.48 163.995 135.676C165.057 136.871 165.589 138.488 165.589 140.527ZM155.803 140.527C155.803 142.168 156.132 143.418 156.788 144.277C157.444 145.137 158.409 145.566 159.682 145.566C160.956 145.566 161.921 145.141 162.577 144.289C163.241 143.43 163.573 142.176 163.573 140.527C163.573 138.895 163.241 137.656 162.577 136.812C161.921 135.961 160.948 135.535 159.659 135.535C158.385 135.535 157.424 135.953 156.776 136.789C156.128 137.625 155.803 138.871 155.803 140.527ZM178.279 146.961V138.652C178.279 137.605 178.041 136.824 177.565 136.309C177.088 135.793 176.342 135.535 175.326 135.535C173.983 135.535 172.998 135.898 172.373 136.625C171.748 137.352 171.436 138.551 171.436 140.223V146.961H169.49V134.117H171.072L171.389 135.875H171.483C171.881 135.242 172.44 134.754 173.158 134.41C173.877 134.059 174.678 133.883 175.561 133.883C177.108 133.883 178.272 134.258 179.053 135.008C179.834 135.75 180.225 136.941 180.225 138.582V146.961H178.279Z" fill="#000405" fill-opacity="0.65"/>
<g filter="url(#filter3_d)">
<rect x="202.198" y="60.9609" width="367.5" height="35" fill="#DC3812"/>
</g>
<path d="M50.4585 78.3711C50.4585 81.1133 49.7632 83.2695 48.3726 84.8398C46.9897 86.4102 45.064 87.1953 42.5952 87.1953C40.0718 87.1953 38.1226 86.4258 36.7476 84.8867C35.3804 83.3398 34.6968 81.1602 34.6968 78.3477C34.6968 75.5586 35.3843 73.3984 36.7593 71.8672C38.1343 70.3281 40.0874 69.5586 42.6187 69.5586C45.0796 69.5586 47.0015 70.3398 48.3843 71.9023C49.7671 73.4648 50.4585 75.6211 50.4585 78.3711ZM36.8062 78.3711C36.8062 80.6914 37.2983 82.4531 38.2827 83.6562C39.2749 84.8516 40.7124 85.4492 42.5952 85.4492C44.4937 85.4492 45.9272 84.8516 46.896 83.6562C47.8647 82.4609 48.3491 80.6992 48.3491 78.3711C48.3491 76.0664 47.8647 74.3203 46.896 73.1328C45.9351 71.9375 44.5093 71.3398 42.6187 71.3398C40.7202 71.3398 39.2749 71.9414 38.2827 73.1445C37.2983 74.3398 36.8062 76.082 36.8062 78.3711ZM60.3369 73.8828C60.9072 73.8828 61.419 73.9297 61.8721 74.0234L61.6026 75.8281C61.0713 75.7109 60.6026 75.6523 60.1963 75.6523C59.1572 75.6523 58.2666 76.0742 57.5244 76.918C56.7901 77.7617 56.4229 78.8125 56.4229 80.0703V86.9609H54.4776V74.1172H56.083L56.3057 76.4961H56.3994C56.876 75.6602 57.4502 75.0156 58.1221 74.5625C58.794 74.1094 59.5322 73.8828 60.3369 73.8828ZM75.2662 74.1172V75.3477L72.8872 75.6289C73.106 75.9023 73.3013 76.2617 73.4732 76.707C73.6451 77.1445 73.731 77.6406 73.731 78.1953C73.731 79.4531 73.3013 80.457 72.4419 81.207C71.5826 81.957 70.4029 82.332 68.9029 82.332C68.5201 82.332 68.1607 82.3008 67.8247 82.2383C66.9966 82.6758 66.5826 83.2266 66.5826 83.8906C66.5826 84.2422 66.7271 84.5039 67.0162 84.6758C67.3052 84.8398 67.8013 84.9219 68.5044 84.9219H70.7779C72.1685 84.9219 73.2349 85.2148 73.9771 85.8008C74.7271 86.3867 75.1021 87.2383 75.1021 88.3555C75.1021 89.7773 74.5318 90.8594 73.3912 91.6016C72.2505 92.3516 70.5865 92.7266 68.399 92.7266C66.7193 92.7266 65.4224 92.4141 64.5083 91.7891C63.6021 91.1641 63.149 90.2812 63.149 89.1406C63.149 88.3594 63.399 87.6836 63.899 87.1133C64.399 86.543 65.1021 86.1562 66.0083 85.9531C65.6802 85.8047 65.4029 85.5742 65.1763 85.2617C64.9576 84.9492 64.8482 84.5859 64.8482 84.1719C64.8482 83.7031 64.9732 83.293 65.2232 82.9414C65.4732 82.5898 65.8677 82.25 66.4068 81.9219C65.7427 81.6484 65.1997 81.1836 64.7779 80.5273C64.3638 79.8711 64.1568 79.1211 64.1568 78.2773C64.1568 76.8711 64.5787 75.7891 65.4224 75.0312C66.2662 74.2656 67.4615 73.8828 69.0083 73.8828C69.6802 73.8828 70.2857 73.9609 70.8247 74.1172H75.2662ZM65.024 89.1172C65.024 89.8125 65.3169 90.3398 65.9029 90.6992C66.4888 91.0586 67.3287 91.2383 68.4224 91.2383C70.0552 91.2383 71.2622 90.9922 72.0435 90.5C72.8326 90.0156 73.2271 89.3555 73.2271 88.5195C73.2271 87.8242 73.0122 87.3398 72.5826 87.0664C72.1529 86.8008 71.3443 86.668 70.1568 86.668H67.8247C66.9419 86.668 66.2544 86.8789 65.7622 87.3008C65.2701 87.7227 65.024 88.3281 65.024 89.1172ZM66.0787 78.2305C66.0787 79.1289 66.3326 79.8086 66.8404 80.2695C67.3482 80.7305 68.0552 80.9609 68.9615 80.9609C70.8599 80.9609 71.8091 80.0391 71.8091 78.1953C71.8091 76.2656 70.8482 75.3008 68.9263 75.3008C68.0122 75.3008 67.3091 75.5469 66.8169 76.0391C66.3247 76.5312 66.0787 77.2617 66.0787 78.2305ZM86.2813 86.9609L85.8946 85.1328H85.8008C85.1602 85.9375 84.5196 86.4844 83.879 86.7734C83.2462 87.0547 82.4532 87.1953 81.5001 87.1953C80.2266 87.1953 79.2266 86.8672 78.5001 86.2109C77.7813 85.5547 77.4219 84.6211 77.4219 83.4102C77.4219 80.8164 79.4962 79.457 83.6446 79.332L85.8243 79.2617V78.4648C85.8243 77.457 85.6055 76.7148 85.168 76.2383C84.7383 75.7539 84.0469 75.5117 83.0938 75.5117C82.0235 75.5117 80.8126 75.8398 79.461 76.4961L78.8633 75.0078C79.4962 74.6641 80.1876 74.3945 80.9376 74.1992C81.6954 74.0039 82.4532 73.9062 83.211 73.9062C84.7422 73.9062 85.8751 74.2461 86.6094 74.9258C87.3516 75.6055 87.7227 76.6953 87.7227 78.1953V86.9609H86.2813ZM81.8868 85.5898C83.0977 85.5898 84.0469 85.2578 84.7344 84.5938C85.4297 83.9297 85.7774 83 85.7774 81.8047V80.6445L83.8321 80.7266C82.2852 80.7812 81.168 81.0234 80.4805 81.4531C79.8008 81.875 79.461 82.5352 79.461 83.4336C79.461 84.1367 79.6719 84.6719 80.0938 85.0391C80.5235 85.4062 81.1212 85.5898 81.8868 85.5898ZM101.011 86.9609V78.6523C101.011 77.6055 100.773 76.8242 100.296 76.3086C99.8199 75.793 99.0738 75.5352 98.0582 75.5352C96.7144 75.5352 95.7301 75.8984 95.1051 76.625C94.4801 77.3516 94.1676 78.5508 94.1676 80.2227V86.9609H92.2222V74.1172H93.8043L94.1207 75.875H94.2144C94.6129 75.2422 95.1715 74.7539 95.8902 74.4102C96.609 74.0586 97.4097 73.8828 98.2926 73.8828C99.8394 73.8828 101.003 74.2578 101.785 75.0078C102.566 75.75 102.957 76.9414 102.957 78.582V86.9609H101.011ZM109.39 86.9609H107.444V74.1172H109.39V86.9609ZM107.28 70.6367C107.28 70.1914 107.39 69.8672 107.608 69.6641C107.827 69.4531 108.101 69.3477 108.429 69.3477C108.741 69.3477 109.011 69.4531 109.237 69.6641C109.464 69.875 109.577 70.1992 109.577 70.6367C109.577 71.0742 109.464 71.4023 109.237 71.6211C109.011 71.832 108.741 71.9375 108.429 71.9375C108.101 71.9375 107.827 71.832 107.608 71.6211C107.39 71.4023 107.28 71.0742 107.28 70.6367ZM122.21 86.9609H112.893V85.6367L119.901 75.6289H113.327V74.1172H122.034V75.6289L115.12 85.4492H122.21V86.9609ZM133.6 86.9609L133.213 85.1328H133.119C132.479 85.9375 131.838 86.4844 131.197 86.7734C130.565 87.0547 129.772 87.1953 128.818 87.1953C127.545 87.1953 126.545 86.8672 125.818 86.2109C125.1 85.5547 124.74 84.6211 124.74 83.4102C124.74 80.8164 126.815 79.457 130.963 79.332L133.143 79.2617V78.4648C133.143 77.457 132.924 76.7148 132.486 76.2383C132.057 75.7539 131.365 75.5117 130.412 75.5117C129.342 75.5117 128.131 75.8398 126.779 76.4961L126.182 75.0078C126.815 74.6641 127.506 74.3945 128.256 74.1992C129.014 74.0039 129.772 73.9062 130.529 73.9062C132.061 73.9062 133.193 74.2461 133.928 74.9258C134.67 75.6055 135.041 76.6953 135.041 78.1953V86.9609H133.6ZM129.205 85.5898C130.416 85.5898 131.365 85.2578 132.053 84.5938C132.748 83.9297 133.096 83 133.096 81.8047V80.6445L131.151 80.7266C129.604 80.7812 128.486 81.0234 127.799 81.4531C127.119 81.875 126.779 82.5352 126.779 83.4336C126.779 84.1367 126.99 84.6719 127.412 85.0391C127.842 85.4062 128.44 85.5898 129.205 85.5898ZM143.689 85.5898C144.033 85.5898 144.365 85.5664 144.685 85.5195C145.006 85.4648 145.259 85.4102 145.447 85.3555V86.8438C145.236 86.9453 144.923 87.0273 144.509 87.0898C144.103 87.1602 143.736 87.1953 143.408 87.1953C140.923 87.1953 139.681 85.8867 139.681 83.2695V75.6289H137.841V74.6914L139.681 73.8828L140.502 71.1406H141.627V74.1172H145.353V75.6289H141.627V83.1875C141.627 83.9609 141.81 84.5547 142.177 84.9688C142.545 85.3828 143.048 85.5898 143.689 85.5898ZM150.45 86.9609H148.505V74.1172H150.45V86.9609ZM148.341 70.6367C148.341 70.1914 148.45 69.8672 148.669 69.6641C148.888 69.4531 149.161 69.3477 149.489 69.3477C149.802 69.3477 150.071 69.4531 150.298 69.6641C150.525 69.875 150.638 70.1992 150.638 70.6367C150.638 71.0742 150.525 71.4023 150.298 71.6211C150.071 71.832 149.802 71.9375 149.489 71.9375C149.161 71.9375 148.888 71.832 148.669 71.6211C148.45 71.4023 148.341 71.0742 148.341 70.6367ZM166.141 80.5273C166.141 82.6211 165.614 84.2578 164.559 85.4375C163.505 86.6094 162.048 87.1953 160.188 87.1953C159.04 87.1953 158.02 86.9258 157.13 86.3867C156.239 85.8477 155.551 85.0742 155.067 84.0664C154.583 83.0586 154.341 81.8789 154.341 80.5273C154.341 78.4336 154.864 76.8047 155.911 75.6406C156.958 74.4688 158.411 73.8828 160.27 73.8828C162.067 73.8828 163.493 74.4805 164.548 75.6758C165.61 76.8711 166.141 78.4883 166.141 80.5273ZM156.356 80.5273C156.356 82.168 156.684 83.418 157.341 84.2773C157.997 85.1367 158.962 85.5664 160.235 85.5664C161.508 85.5664 162.473 85.1406 163.13 84.2891C163.794 83.4297 164.126 82.1758 164.126 80.5273C164.126 78.8945 163.794 77.6562 163.13 76.8125C162.473 75.9609 161.501 75.5352 160.212 75.5352C158.938 75.5352 157.977 75.9531 157.329 76.7891C156.68 77.625 156.356 78.8711 156.356 80.5273ZM178.832 86.9609V78.6523C178.832 77.6055 178.594 76.8242 178.117 76.3086C177.641 75.793 176.895 75.5352 175.879 75.5352C174.535 75.5352 173.551 75.8984 172.926 76.625C172.301 77.3516 171.988 78.5508 171.988 80.2227V86.9609H170.043V74.1172H171.625L171.942 75.875H172.035C172.434 75.2422 172.992 74.7539 173.711 74.4102C174.43 74.0586 175.231 73.8828 176.113 73.8828C177.66 73.8828 178.824 74.2578 179.606 75.0078C180.387 75.75 180.778 76.9414 180.778 78.582V86.9609H178.832Z" fill="#000405" fill-opacity="0.65"/>
<g filter="url(#filter4_d)">
<rect x="202.198" y="0.960938" width="309.137" height="35" fill="#FE9900"/>
</g>
<path d="M66.5405 26.9609H64.5718L61.1147 15.4883C60.9507 14.9805 60.7671 14.3398 60.564 13.5664C60.3608 12.793 60.2554 12.3281 60.2476 12.1719C60.0757 13.2031 59.8022 14.332 59.4272 15.5586L56.0757 26.9609H54.1069L49.5483 9.82812H51.6577L54.3647 20.4102C54.7397 21.8945 55.0132 23.2383 55.1851 24.4414C55.396 23.0117 55.7085 21.6133 56.1226 20.2461L59.1929 9.82812H61.3022L64.5249 20.3398C64.8999 21.5508 65.2163 22.918 65.4741 24.4414C65.6226 23.332 65.9038 21.9805 66.3179 20.3867L69.0132 9.82812H71.1226L66.5405 26.9609ZM79.419 27.1953C77.5205 27.1953 76.0205 26.6172 74.919 25.4609C73.8252 24.3047 73.2783 22.6992 73.2783 20.6445C73.2783 18.5742 73.7862 16.9297 74.8018 15.7109C75.8252 14.4922 77.1963 13.8828 78.9151 13.8828C80.5244 13.8828 81.7979 14.4141 82.7354 15.4766C83.6729 16.5312 84.1416 17.9258 84.1416 19.6602V20.8906H75.294C75.333 22.3984 75.7119 23.543 76.4307 24.3242C77.1572 25.1055 78.1768 25.4961 79.4893 25.4961C80.8721 25.4961 82.2393 25.207 83.5908 24.6289V26.3633C82.9033 26.6602 82.251 26.8711 81.6338 26.9961C81.0244 27.1289 80.2862 27.1953 79.419 27.1953ZM78.8916 15.5117C77.8604 15.5117 77.0362 15.8477 76.419 16.5195C75.8096 17.1914 75.4502 18.1211 75.3408 19.3086H82.0557C82.0557 18.082 81.7822 17.1445 81.2354 16.4961C80.6885 15.8398 79.9072 15.5117 78.8916 15.5117ZM93.9263 13.9062C95.6138 13.9062 96.9224 14.4844 97.8521 15.6406C98.7896 16.7891 99.2583 18.418 99.2583 20.5273C99.2583 22.6367 98.7857 24.2773 97.8404 25.4492C96.9029 26.6133 95.5982 27.1953 93.9263 27.1953C93.0904 27.1953 92.3247 27.043 91.6294 26.7383C90.9419 26.4258 90.3638 25.9492 89.8951 25.3086H89.7544L89.3443 26.9609H87.9497V8.72656H89.8951V13.1562C89.8951 14.1484 89.8638 15.0391 89.8013 15.8281H89.8951C90.8013 14.5469 92.1451 13.9062 93.9263 13.9062ZM93.6451 15.5352C92.3169 15.5352 91.3599 15.918 90.774 16.6836C90.188 17.4414 89.8951 18.7227 89.8951 20.5273C89.8951 22.332 90.1958 23.625 90.7974 24.4062C91.399 25.1797 92.3638 25.5664 93.6919 25.5664C94.8872 25.5664 95.7779 25.1328 96.3638 24.2656C96.9497 23.3906 97.2427 22.1367 97.2427 20.5039C97.2427 18.832 96.9497 17.5859 96.3638 16.7656C95.7779 15.9453 94.8716 15.5352 93.6451 15.5352ZM119.824 22.4023C119.824 23.9102 119.277 25.0859 118.183 25.9297C117.089 26.7734 115.605 27.1953 113.73 27.1953C111.699 27.1953 110.136 26.9336 109.043 26.4102V24.4883C109.746 24.7852 110.511 25.0195 111.339 25.1914C112.168 25.3633 112.988 25.4492 113.8 25.4492C115.128 25.4492 116.128 25.1992 116.8 24.6992C117.472 24.1914 117.808 23.4883 117.808 22.5898C117.808 21.9961 117.687 21.5117 117.445 21.1367C117.211 20.7539 116.812 20.4023 116.25 20.082C115.695 19.7617 114.847 19.3984 113.707 18.9922C112.113 18.4219 110.972 17.7461 110.285 16.9648C109.605 16.1836 109.265 15.1641 109.265 13.9062C109.265 12.5859 109.761 11.5352 110.753 10.7539C111.746 9.97266 113.058 9.58203 114.691 9.58203C116.394 9.58203 117.961 9.89453 119.39 10.5195L118.769 12.2539C117.355 11.6602 115.98 11.3633 114.644 11.3633C113.589 11.3633 112.765 11.5898 112.171 12.043C111.578 12.4961 111.281 13.125 111.281 13.9297C111.281 14.5234 111.39 15.0117 111.609 15.3945C111.828 15.7695 112.195 16.1172 112.711 16.4375C113.234 16.75 114.031 17.0977 115.101 17.4805C116.898 18.1211 118.132 18.8086 118.804 19.543C119.484 20.2773 119.824 21.2305 119.824 22.4023ZM131.413 26.9609L131.026 25.1328H130.933C130.292 25.9375 129.651 26.4844 129.011 26.7734C128.378 27.0547 127.585 27.1953 126.632 27.1953C125.358 27.1953 124.358 26.8672 123.632 26.2109C122.913 25.5547 122.554 24.6211 122.554 23.4102C122.554 20.8164 124.628 19.457 128.776 19.332L130.956 19.2617V18.4648C130.956 17.457 130.737 16.7148 130.3 16.2383C129.87 15.7539 129.179 15.5117 128.226 15.5117C127.155 15.5117 125.944 15.8398 124.593 16.4961L123.995 15.0078C124.628 14.6641 125.319 14.3945 126.069 14.1992C126.827 14.0039 127.585 13.9062 128.343 13.9062C129.874 13.9062 131.007 14.2461 131.741 14.9258C132.483 15.6055 132.855 16.6953 132.855 18.1953V26.9609H131.413ZM127.019 25.5898C128.23 25.5898 129.179 25.2578 129.866 24.5938C130.562 23.9297 130.909 23 130.909 21.8047V20.6445L128.964 20.7266C127.417 20.7812 126.3 21.0234 125.612 21.4531C124.933 21.875 124.593 22.5352 124.593 23.4336C124.593 24.1367 124.804 24.6719 125.226 25.0391C125.655 25.4062 126.253 25.5898 127.019 25.5898ZM140.167 26.9609L135.292 14.1172H137.378L140.143 21.7344C140.768 23.5156 141.135 24.6719 141.245 25.2031H141.338C141.424 24.7891 141.694 23.9336 142.147 22.6367C142.608 21.332 143.635 18.4922 145.229 14.1172H147.315L142.44 26.9609H140.167ZM151.803 26.9609H149.858V14.1172H151.803V26.9609ZM149.693 10.6367C149.693 10.1914 149.803 9.86719 150.022 9.66406C150.24 9.45312 150.514 9.34766 150.842 9.34766C151.154 9.34766 151.424 9.45312 151.651 9.66406C151.877 9.875 151.99 10.1992 151.99 10.6367C151.99 11.0742 151.877 11.4023 151.651 11.6211C151.424 11.832 151.154 11.9375 150.842 11.9375C150.514 11.9375 150.24 11.832 150.022 11.6211C149.803 11.4023 149.693 11.0742 149.693 10.6367ZM165.197 26.9609V18.6523C165.197 17.6055 164.959 16.8242 164.482 16.3086C164.006 15.793 163.259 15.5352 162.244 15.5352C160.9 15.5352 159.916 15.8984 159.291 16.625C158.666 17.3516 158.353 18.5508 158.353 20.2227V26.9609H156.408V14.1172H157.99L158.306 15.875H158.4C158.798 15.2422 159.357 14.7539 160.076 14.4102C160.795 14.0586 161.595 13.8828 162.478 13.8828C164.025 13.8828 165.189 14.2578 165.97 15.0078C166.752 15.75 167.142 16.9414 167.142 18.582V26.9609H165.197ZM182.142 14.1172V15.3477L179.763 15.6289C179.982 15.9023 180.177 16.2617 180.349 16.707C180.521 17.1445 180.607 17.6406 180.607 18.1953C180.607 19.4531 180.177 20.457 179.318 21.207C178.458 21.957 177.278 22.332 175.778 22.332C175.396 22.332 175.036 22.3008 174.7 22.2383C173.872 22.6758 173.458 23.2266 173.458 23.8906C173.458 24.2422 173.603 24.5039 173.892 24.6758C174.181 24.8398 174.677 24.9219 175.38 24.9219H177.653C179.044 24.9219 180.111 25.2148 180.853 25.8008C181.603 26.3867 181.978 27.2383 181.978 28.3555C181.978 29.7773 181.407 30.8594 180.267 31.6016C179.126 32.3516 177.462 32.7266 175.275 32.7266C173.595 32.7266 172.298 32.4141 171.384 31.7891C170.478 31.1641 170.025 30.2812 170.025 29.1406C170.025 28.3594 170.275 27.6836 170.775 27.1133C171.275 26.543 171.978 26.1562 172.884 25.9531C172.556 25.8047 172.278 25.5742 172.052 25.2617C171.833 24.9492 171.724 24.5859 171.724 24.1719C171.724 23.7031 171.849 23.293 172.099 22.9414C172.349 22.5898 172.743 22.25 173.282 21.9219C172.618 21.6484 172.075 21.1836 171.653 20.5273C171.239 19.8711 171.032 19.1211 171.032 18.2773C171.032 16.8711 171.454 15.7891 172.298 15.0312C173.142 14.2656 174.337 13.8828 175.884 13.8828C176.556 13.8828 177.161 13.9609 177.7 14.1172H182.142ZM171.9 29.1172C171.9 29.8125 172.193 30.3398 172.778 30.6992C173.364 31.0586 174.204 31.2383 175.298 31.2383C176.931 31.2383 178.138 30.9922 178.919 30.5C179.708 30.0156 180.103 29.3555 180.103 28.5195C180.103 27.8242 179.888 27.3398 179.458 27.0664C179.028 26.8008 178.22 26.668 177.032 26.668H174.7C173.818 26.668 173.13 26.8789 172.638 27.3008C172.146 27.7227 171.9 28.3281 171.9 29.1172ZM172.954 18.2305C172.954 19.1289 173.208 19.8086 173.716 20.2695C174.224 20.7305 174.931 20.9609 175.837 20.9609C177.736 20.9609 178.685 20.0391 178.685 18.1953C178.685 16.2656 177.724 15.3008 175.802 15.3008C174.888 15.3008 174.185 15.5469 173.693 16.0391C173.2 16.5312 172.954 17.2617 172.954 18.2305Z" fill="#000405" fill-opacity="0.65"/>
<defs>
<filter id="filter0_d" x="198.198" y="240.961" width="618" height="43" filterUnits="userSpaceOnUse" color-interpolation-filters="sRGB">
<feFlood flood-opacity="0" result="BackgroundImageFix"/>
<feColorMatrix in="SourceAlpha" type="matrix" values="0 0 0 0 0 0 0 0 0 0 0 0 0 0 0 0 0 0 127 0"/>
<feOffset dy="4"/>
<feGaussianBlur stdDeviation="2"/>
<feColorMatrix type="matrix" values="0 0 0 0 0 0 0 0 0 0 0 0 0 0 0 0 0 0 0.25 0"/>
<feBlend mode="normal" in2="BackgroundImageFix" result="effect1_dropShadow"/>
<feBlend mode="normal" in="SourceGraphic" in2="effect1_dropShadow" result="shape"/>
</filter>
<filter id="filter1_d" x="198.198" y="180.961" width="448" height="43" filterUnits="userSpaceOnUse" color-interpolation-filters="sRGB">
<feFlood flood-opacity="0" result="BackgroundImageFix"/>
<feColorMatrix in="SourceAlpha" type="matrix" values="0 0 0 0 0 0 0 0 0 0 0 0 0 0 0 0 0 0 127 0"/>
<feOffset dy="4"/>
<feGaussianBlur stdDeviation="2"/>
<feColorMatrix type="matrix" values="0 0 0 0 0 0 0 0 0 0 0 0 0 0 0 0 0 0 0.25 0"/>
<feBlend mode="normal" in2="BackgroundImageFix" result="effect1_dropShadow"/>
<feBlend mode="normal" in="SourceGraphic" in2="effect1_dropShadow" result="shape"/>
</filter>
<filter id="filter2_d" x="198.198" y="120.961" width="317.137" height="43" filterUnits="userSpaceOnUse" color-interpolation-filters="sRGB">
<feFlood flood-opacity="0" result="BackgroundImageFix"/>
<feColorMatrix in="SourceAlpha" type="matrix" values="0 0 0 0 0 0 0 0 0 0 0 0 0 0 0 0 0 0 127 0"/>
<feOffset dy="4"/>
<feGaussianBlur stdDeviation="2"/>
<feColorMatrix type="matrix" values="0 0 0 0 0 0 0 0 0 0 0 0 0 0 0 0 0 0 0.25 0"/>
<feBlend mode="normal" in2="BackgroundImageFix" result="effect1_dropShadow"/>
<feBlend mode="normal" in="SourceGraphic" in2="effect1_dropShadow" result="shape"/>
</filter>
<filter id="filter3_d" x="198.198" y="60.9609" width="375.5" height="43" filterUnits="userSpaceOnUse" color-interpolation-filters="sRGB">
<feFlood flood-opacity="0" result="BackgroundImageFix"/>
<feColorMatrix in="SourceAlpha" type="matrix" values="0 0 0 0 0 0 0 0 0 0 0 0 0 0 0 0 0 0 127 0"/>
<feOffset dy="4"/>
<feGaussianBlur stdDeviation="2"/>
<feColorMatrix type="matrix" values="0 0 0 0 0 0 0 0 0 0 0 0 0 0 0 0 0 0 0.25 0"/>
<feBlend mode="normal" in2="BackgroundImageFix" result="effect1_dropShadow"/>
<feBlend mode="normal" in="SourceGraphic" in2="effect1_dropShadow" result="shape"/>
</filter>
<filter id="filter4_d" x="198.198" y="0.960938" width="317.137" height="43" filterUnits="userSpaceOnUse" color-interpolation-filters="sRGB">
<feFlood flood-opacity="0" result="BackgroundImageFix"/>
<feColorMatrix in="SourceAlpha" type="matrix" values="0 0 0 0 0 0 0 0 0 0 0 0 0 0 0 0 0 0 127 0"/>
<feOffset dy="4"/>
<feGaussianBlur stdDeviation="2"/>
<feColorMatrix type="matrix" values="0 0 0 0 0 0 0 0 0 0 0 0 0 0 0 0 0 0 0.25 0"/>
<feBlend mode="normal" in2="BackgroundImageFix" result="effect1_dropShadow"/>
<feBlend mode="normal" in="SourceGraphic" in2="effect1_dropShadow" result="shape"/>
</filter>
</defs>
</svg>
