<svg width="80" height="90" viewBox="0 0 80 90" fill="none" xmlns="http://www.w3.org/2000/svg">
<path fill-rule="evenodd" clip-rule="evenodd" d="M53.562 56.6038H57.1755L80 82.3328L73.1847 90L50.3145 64.3225V60.2573L49.0795 58.8165C43.8651 63.8593 37.0955 66.8954 29.7313 66.8954C13.3105 66.8954 0 51.9211 0 33.4477C0 14.9743 13.3105 0 29.7313 0C46.1521 0 59.4626 14.9743 59.4626 33.4477C59.4626 41.7324 56.7639 49.3482 52.2813 55.2144L53.562 56.6038ZM9.82593 33.4478C9.82593 46.2608 19.0198 56.6038 30.4091 56.6038C41.7985 56.6038 50.9923 46.2608 50.9923 33.4478C50.9923 20.6349 41.7985 10.2918 30.4091 10.2918C19.0198 10.2918 9.82593 20.6349 9.82593 33.4478Z" fill="#000405" fill-opacity="0.65"/>
<path fill-rule="evenodd" clip-rule="evenodd" d="M30.4092 18.7402C27.1853 18.7402 24.5741 21.6768 24.5741 25.3024C24.5741 28.928 27.1853 31.8646 30.4092 31.8646C33.6331 31.8646 36.2443 28.928 36.2443 25.3024C36.2443 21.6768 33.6331 18.7402 30.4092 18.7402ZM33.3267 25.2933C33.3267 23.4906 32.0138 22.0156 30.4091 22.0156C28.8045 22.0156 27.4916 23.4906 27.4916 25.2933C27.4916 27.096 28.8045 28.571 30.4091 28.571C32.0138 28.571 33.3267 27.096 33.3267 25.2933ZM39.1619 40.0653C38.8702 38.9021 34.348 36.7886 30.4093 36.7886C26.4706 36.7886 21.9484 38.9021 21.6566 40.0817V41.7036H39.1619V40.0653ZM18.739 40.0658C18.739 35.7029 26.5143 33.5051 30.4092 33.5051C34.3041 33.5051 42.0794 35.7029 42.0794 40.0658V44.9863H18.739V40.0658Z" fill="#007AFF" fill-opacity="0.75"/>
</svg>
