<svg width="80" height="100" viewBox="0 0 80 100" fill="none" xmlns="http://www.w3.org/2000/svg">
<path fill-rule="evenodd" clip-rule="evenodd" d="M72.7274 0H21.8182C17.8182 0 14.5455 4.09118 14.5455 9.0915V72.732C14.5455 77.7324 17.8182 81.8235 21.8182 81.8235H72.7274C76.7274 81.8235 80.0001 77.7324 80.0001 72.732V9.0915C80.0001 4.09118 76.7274 0 72.7274 0ZM7.27273 18.1778H0V90.9086C0 95.9089 3.27273 100 7.27273 100H65.4546V90.9086H7.27273V18.1778ZM21.8181 72.7227H72.7273V9.08218H21.8181V72.7227Z" fill="#000405" fill-opacity="0.65"/>
<path d="M54.4 42.2285L44.4 58.3136L37.2727 47.5902L27.2727 63.6298H67.2727L54.4 42.2285Z" fill="#007AFF" fill-opacity="0.75"/>
</svg>
